<svg xmlns="http://www.w3.org/2000/svg" viewBox="0 0 161 171.48">
  <title>Asset 4</title>
  <g id="Layer_2" data-name="Layer 2">
    <g id="Layer_1-2" data-name="Layer 1">
      <g>
        <path d="M148.62,117.62c-.4-1.61-.73-3.36-1-5.16A71,71,0,1,0,128,131l28.32,3.66A55.58,55.58,0,0,1,148.62,117.62Z" fill="#00c1bc"/>
        <path d="M90,146A75,75,0,0,1,24.61,34.27a71,71,0,0,0,3.49,110.3,68.74,68.74,0,0,1,.68,8.54,55.57,55.57,0,0,1-3.28,18.37L59.34,158a70.89,70.89,0,0,0,59.93-18A74.61,74.61,0,0,1,90,146Z" fill="#005b56"/>
        <g>
          <circle cx="72.75" cy="73" r="3.75" fill="#fff"/>
          <circle cx="90" cy="73" r="3.75" fill="#fff"/>
          <circle cx="107.25" cy="73" r="3.75" fill="#fff"/>
        </g>
      </g>
    </g>
  </g>
</svg>
