<?xml version="1.0" encoding="utf-8"?>
<!-- Generator: Adobe Illustrator 21.0.2, SVG Export Plug-In . SVG Version: 6.00 Build 0)  -->
<svg version="1.1" id="Layer_1" xmlns="http://www.w3.org/2000/svg" xmlns:xlink="http://www.w3.org/1999/xlink" x="0px" y="0px"
	 viewBox="0 0 792 182" style="enable-background:new 0 0 792 182;" xml:space="preserve">
<style type="text/css">
	.st0{fill:#14A2A5;}
	.st1{fill:#8ACEDA;}
	.st2{fill:#FFFFFF;}
</style>
<g>
	<circle class="st0" cx="100" cy="91" r="79.1"/>
	<path class="st0" d="M415.6,113.5c1.1,0,2.1,0.3,2.9,0.9c0.8,0.6,1.2,1.4,1.2,2.1s-0.5,1.5-1.2,2.1c-0.8,0.6-1.8,0.9-2.9,0.9h-18.6
		c-5.9,0-10.4-1.2-13.9-3.5c-3.3-2.4-5.1-5.6-5.1-9.7V87.7c0-4.1,1.7-7.2,5.1-9.7c3.3-2.4,8-3.5,13.9-3.5h18.6
		c1.1,0,2.1,0.3,2.9,0.9c0.8,0.6,1.2,1.2,1.2,2.1c0,0.9-0.5,1.5-1.2,2.1c-0.8,0.6-1.8,0.9-2.9,0.9h-18.6c-7.1,0-10.7,2.4-10.7,7.2
		v6.3h26.1c1.1,0,2.1,0.3,2.9,0.9c0.8,0.6,1.2,1.2,1.2,2.1c0,0.8-0.5,1.5-1.2,2.1c-0.8,0.6-1.8,0.9-2.9,0.9h-26.1v6.3
		c0,4.8,3.6,7.2,10.7,7.2h18.6V113.5z"/>
	<path class="st0" d="M475.7,114.5c0.6,0.6,1.1,1.2,1.1,2c0,0.9-0.5,1.7-1.4,2.1c-0.9,0.6-1.8,0.8-2.9,0.8c-1.2,0-2.3-0.3-3.2-1.1
		l-13.6-11.5l-13.6,11.5c-0.8,0.8-1.8,1.1-3,1.1c-1.1,0-2-0.3-2.7-0.8c-0.9-0.6-1.5-1.4-1.5-2.3c0-0.8,0.3-1.5,1.1-2l14.3-12.1
		L436,90.1c-0.6-0.6-1.1-1.2-1.1-2c0-0.9,0.5-1.7,1.5-2.3c0.8-0.5,1.7-0.8,2.7-0.8c1.2,0,2.3,0.3,3,1.1l13.6,11.5l13.6-11.5
		c0.9-0.8,1.8-1.1,3.2-1.1c1.1,0,2,0.3,2.9,0.8c0.9,0.6,1.4,1.4,1.4,2.3c0,0.8-0.3,1.4-1.1,2l-14.3,12.2L475.7,114.5z"/>
	<path class="st0" d="M483.2,102c0-5,2-9.4,6-12.8c4.1-3.5,8.9-5.3,14.6-5.3c3.5,0,6.6,0.8,9.7,2.1s5.6,3.3,7.4,5.9
		c0.3,0.5,0.6,0.9,0.6,1.5c0,1.2-0.8,2.1-2.1,2.6c-0.6,0.3-1.4,0.5-2,0.5c-1.7,0-2.9-0.5-3.6-1.5c-2.6-3.3-5.9-5-10-5
		c-3.5,0-6.3,1.2-8.8,3.6c-2.4,2.4-3.6,5.3-3.6,8.6s1.2,6.2,3.6,8.5c2.4,2.4,5.3,3.6,8.8,3.6c4.1,0,7.4-1.7,10-4.8
		c0.8-1.1,2-1.7,3.6-1.7c0.8,0,1.4,0.2,2,0.5c1.4,0.6,2.1,1.4,2.1,2.6c0,0.5-0.2,1.1-0.5,1.5c-2,2.6-4.4,4.5-7.4,5.9
		c-3,1.4-6.3,2.1-9.7,2.1c-5.7,0-10.6-1.8-14.6-5.3C485.2,111.2,483.2,107,483.2,102z"/>
	<path class="st0" d="M531.3,65.6c0-0.8,0.5-1.5,1.2-2.1c0.8-0.6,1.8-0.9,3-0.9c1.1,0,2.1,0.3,2.9,0.9c0.8,0.6,1.2,1.4,1.2,2.1v21.9
		c3.8-2.4,7.8-3.8,12.4-3.8c5.7,0,10.6,1.8,14.6,5.3c4.1,3.6,6,7.8,6,12.8v14.6c0,0.8-0.5,1.5-1.2,2.1s-1.8,0.9-2.9,0.9
		s-2.1-0.3-2.9-0.9c-0.8-0.6-1.2-1.2-1.2-2.1v-14.6c0-3.3-1.2-6.2-3.6-8.5c-2.4-2.4-5.3-3.6-8.8-3.6s-6.3,1.2-8.8,3.6
		c-2.4,2.4-3.6,5.3-3.6,8.5v14.6c0,0.8-0.5,1.5-1.2,2.1c-0.8,0.6-1.8,0.9-2.9,0.9c-1.2,0-2.1-0.3-3-0.9s-1.2-1.2-1.2-2.1V65.6H531.3
		z"/>
	<path class="st0" d="M581.1,102c0-5,2-9.4,6-12.8s8.9-5.3,14.6-5.3s10.6,1.8,14.6,5.3s6,7.8,6,12.8v14.5c0,0.8-0.5,1.5-1.2,2.1
		s-1.8,0.9-2.9,0.9s-2.1-0.3-2.9-0.9s-1.2-1.2-1.2-2.1V102c0-3.3-1.2-6.2-3.6-8.6c-2.4-2.4-5.3-3.6-8.8-3.6s-6.3,1.2-8.8,3.6
		s-3.6,5.3-3.6,8.6c0,3.3,1.2,6.2,3.6,8.5c2.4,2.4,5.3,3.6,8.8,3.6c1.4,0,2.9-0.3,4.2-0.8c0.6-0.3,1.2-0.3,1.8-0.3
		c0.9,0,1.8,0.3,2.7,0.8c0.9,0.6,1.4,1.2,1.4,2.3c0,1.2-0.8,2.1-2.3,2.7c-2.6,0.9-5.1,1.4-7.8,1.4c-5.7,0-10.6-1.8-14.6-5.3
		C583,111.2,581.1,107,581.1,102z"/>
	<path class="st0" d="M631.2,102c0-5,2-9.4,6-12.8c4.1-3.5,8.9-5.3,14.6-5.3c5.7,0,10.6,1.8,14.6,5.3c4.1,3.5,6,7.8,6,12.8v14.5
		c0,0.8-0.5,1.5-1.2,2.1c-0.8,0.6-1.8,0.9-2.9,0.9c-1.1,0-2.1-0.3-2.9-0.9s-1.2-1.2-1.2-2.1V102c0-3.3-1.2-6.2-3.6-8.6
		c-2.4-2.4-5.3-3.6-8.8-3.6s-6.3,1.2-8.8,3.6c-2.4,2.4-3.6,5.3-3.6,8.6v14.6c0,0.8-0.5,1.5-1.2,2.1c-0.8,0.6-1.8,0.9-2.9,0.9
		c-1.2,0-2.1-0.3-3-0.9c-0.8-0.6-1.2-1.4-1.2-2.1V102H631.2z"/>
	<path class="st0" d="M681,102c0-5,2-9.4,6-12.8s8.9-5.3,14.6-5.3s10.6,1.8,14.6,5.3s6,7.8,6,12.8v12.8c0,5-2,9.4-6,12.8
		s-8.9,5.3-14.6,5.3c-3.3,0-6.5-0.6-9.4-2c-1.4-0.6-2-1.4-2-2.6c0-0.9,0.5-1.7,1.5-2.3c0.9-0.5,1.7-0.8,2.6-0.8
		c0.8,0,1.5,0.2,2.1,0.5c1.7,0.8,3.3,1.1,5.1,1.1c3.5,0,6.3-1.2,8.8-3.6c2.4-2.4,3.6-5.3,3.6-8.6V102c0-3.3-1.2-6.2-3.6-8.6
		c-2.4-2.4-5.3-3.6-8.8-3.6c-3.5,0-6.3,1.2-8.8,3.6s-3.6,5.3-3.6,8.6c0,3.3,1.2,6.2,3.6,8.5c2.4,2.4,5.3,3.6,8.8,3.6
		c1.4,0,2.9-0.3,4.2-0.8c0.6-0.3,1.1-0.3,1.8-0.3c0.9,0,2,0.3,2.7,0.8c0.9,0.6,1.4,1.2,1.4,2.3c0,1.2-0.8,2.1-2.3,2.7
		c-2.4,0.9-5.1,1.4-7.8,1.4c-5.7,0-10.6-1.8-14.6-5.3C683,111.2,681,107,681,102z"/>
	<path class="st0" d="M730.7,102c0-5,2-9.4,6-12.8s8.9-5.3,14.6-5.3c4.4,0,8.3,1.1,11.9,3.3c3.6,2.1,6,5,7.5,8.6
		c0.3,0.6,0.3,1.4,0.3,2c0,2-0.9,3.2-2.9,3.5l-22,4.1c-0.3,0-0.6,0-1.1,0c-0.9,0-1.8-0.3-2.6-0.8c-1.1-0.6-1.5-1.4-1.5-2.4
		c0-1.5,1.1-2.6,3.2-2.9l17.8-3.2c-2.4-4.1-6-6.2-10.7-6.2c-3.5,0-6.3,1.2-8.8,3.6c-2.4,2.4-3.6,5.3-3.6,8.6s1.2,6.2,3.6,8.5
		c2.4,2.4,5.3,3.6,8.8,3.6c4.4,0,7.8-1.8,10.4-5.4c0.8-1.1,2-1.7,3.6-1.7c0.6,0,1.4,0.2,1.8,0.3c1.5,0.6,2.3,1.5,2.3,2.7
		c0,0.5-0.2,0.9-0.5,1.4c-1.8,2.7-4.4,5-7.5,6.5s-6.5,2.4-10.3,2.4c-5.7,0-10.6-1.8-14.6-5.3C732.8,111.2,730.7,107,730.7,102z"/>
	<g>
		<path class="st1" d="M109.2,54.3l20.4,20.4c0.2,0.2,0.5,0.3,0.6,0.5l-4.2-4.2l2.4-2.4l-16.6-16.6l0,0c-3.5-3.5-3.8-9.2-0.3-12.5
			c3.3-3.3,8.9-3.2,12.5,0.3l16.6,16.6l2.4-2.4l-16.6-16.6c-4.8-4.8-12.7-5.1-17.4-0.3C104.1,41.6,104.2,49.3,109.2,54.3L109.2,54.3
			z"/>
		<path class="st1" d="M30.6,92.7c0-2.4,0.8-4.5,2.4-6.2c1.7-1.7,3.8-2.4,6.2-2.4l0,0h100.1l-3.5-3.5H38.9l0,0
			c-3.2,0-6.2,1.2-8.3,3.5c-4.7,4.7-4.5,12.5,0.3,17.4L57,127.7l2.4-2.4l-26-26.1C31.6,97.3,30.7,95.1,30.6,92.7z"/>
	</g>
	<g>
		<path class="st2" d="M64.4,107.8c1.4,0.2,2.7,0.9,3.8,2l20.4,20.4l2.4-2.4l-20.4-20.5c-1.7-1.7-3.8-2.7-5.9-3
			c-2.3-0.3-4.4,0.5-5.7,1.8c-1.4,1.4-2.1,3.5-1.8,5.7c0.3,2.1,1.4,4.2,3,5.9l21,21l2.4-2.4l-21-21c-1.1-1.1-1.8-2.4-2-3.8
			c-0.2-1.2,0.2-2.3,0.8-2.9C62.1,107.8,63.2,107.6,64.4,107.8z"/>
		<path class="st2" d="M172.9,89c-0.2-3.3-1.4-6.3-3.8-8.8L143,54.2c-4.8-4.8-12.7-5.1-17.4-0.3c-4.7,4.7-4.5,12.5,0.3,17.4l0,0
			l20.4,20.4c2,2,4.5,3,6.8,3c1.8,0,3.5-0.6,4.8-1.8c2.9-2.9,2.4-8.2-1.2-11.6l-21-21l-2.4,2.4l21,21c2.1,2.1,2.7,5.1,1.2,6.6
			s-4.5,0.9-6.6-1.2l-20.4-20.2l0,0c-3.5-3.5-3.8-9.2-0.3-12.5c3.3-3.3,8.9-3.2,12.5,0.3l26.1,26.1c1.7,1.7,2.7,3.9,2.7,6.3
			s-0.8,4.5-2.4,6.2c-1.7,1.7-3.8,2.4-6.2,2.4l0,0H55.8l0,0c-3.2,0-6.2,1.2-8.3,3.5c-4.7,4.7-4.5,12.5,0.3,17.4l26.1,26.1
			c2.6,2.6,5.7,3.8,9.1,3.8c3,0,6-1.2,8.3-3.5c4.7-4.7,4.5-12.5-0.3-17.4l-2.4,2.4c3.5,3.5,3.8,9.2,0.3,12.5
			c-3.3,3.3-8.9,3.2-12.5-0.3l-26.1-26.1c-1.7-1.7-2.7-3.9-2.7-6.3c0-2.4,0.8-4.5,2.4-6.2c1.7-1.7,3.8-2.4,6.2-2.4l0,0H161l0,0
			c0.2,0,0.2,0,0.3,0c3.2,0,6.2-1.2,8.3-3.5C171.8,95.4,173,92.4,172.9,89z"/>
	</g>
	<g>
		<path class="st2" d="M234.6,97.3c0.8,0.6,1.2,1.4,1.2,2.1v17.2c0,0.8-0.5,1.5-1.2,2.1s-1.8,0.9-2.9,0.9c-1.2,0-2.1-0.3-3-0.9
			s-1.2-1.2-1.2-2.1V99.6c0-0.8,0.5-1.5,1.2-2.1s1.8-0.9,3-0.9C232.8,96.4,233.7,96.7,234.6,97.3z"/>
		<path class="st2" d="M279.6,102.2c0-5,2-9.4,6-12.8s8.9-5.3,14.6-5.3c4.4,0,8.3,1.1,11.9,3.3c3.6,2.1,6,5,7.5,8.6
			c0.3,0.6,0.3,1.4,0.3,2c0,2-0.9,3.2-2.9,3.5l-22,4.1c-0.3,0-0.6,0-1.1,0c-0.9,0-1.8-0.3-2.6-0.8c-1.1-0.6-1.5-1.4-1.5-2.4
			c0-1.5,1.1-2.6,3.2-2.9l17.8-3.2c-2.4-4.1-6-6.2-10.7-6.2c-3.5,0-6.3,1.2-8.8,3.6s-3.6,5.3-3.6,8.6s1.2,6.2,3.6,8.5
			c2.4,2.3,5.3,3.6,8.8,3.6c4.4,0,7.8-1.8,10.4-5.4c0.8-1.1,2-1.7,3.6-1.7c0.6,0,1.4,0.2,1.8,0.3c1.5,0.6,2.3,1.5,2.3,2.7
			c0,0.5-0.2,0.9-0.5,1.4c-1.8,2.7-4.4,5-7.5,6.5c-3.2,1.5-6.5,2.4-10.3,2.4c-5.7,0-10.6-1.8-14.6-5.3
			C281.7,111.5,279.6,107.2,279.6,102.2z"/>
		<path class="st2" d="M367.2,114.8c0.6,0.6,1.1,1.2,1.1,2c0,0.9-0.5,1.7-1.4,2.1c-0.9,0.6-1.8,0.8-2.9,0.8c-1.2,0-2.3-0.3-3.2-1.1
			l-13.6-11.5l-13.6,11.5c-0.8,0.8-1.8,1.1-3,1.1c-1.1,0-2-0.3-2.7-0.8c-0.9-0.6-1.5-1.4-1.5-2.3c0-0.8,0.3-1.5,1.1-2l14.3-12.1
			l-14.3-12.2c-0.6-0.6-1.1-1.2-1.1-2c0-0.9,0.5-1.7,1.5-2.3c0.8-0.5,1.7-0.8,2.7-0.8c1.2,0,2.3,0.3,3,1.1l13.6,11.5l13.6-11.5
			c0.9-0.8,1.8-1.1,3.2-1.1c1.1,0,2,0.3,2.9,0.8c0.9,0.6,1.4,1.4,1.4,2.3c0,0.8-0.3,1.4-1.1,2l-14.3,12.2L367.2,114.8z"/>
		<g>
			<path class="st2" d="M247,65.5c0-0.8,0.5-1.4,1.2-2c0.8-0.5,1.8-0.8,2.9-0.8c1.1,0,2.1,0.3,2.9,0.8s1.2,1.2,1.2,2v43
				c0,4.4,3.6,6.5,10.7,6.5h5.7c1.1,0,2.1,0.3,2.9,0.8c0.8,0.6,1.2,1.2,1.2,2s-0.5,1.4-1.2,2c-0.8,0.5-1.8,0.8-2.9,0.8h-5.7
				c-5.9,0-10.4-1.1-13.7-3.2c-3.3-2.1-5-5-5-8.8v-43H247z"/>
		</g>
		<circle class="st2" cx="231.5" cy="89.5" r="3.9"/>
	</g>
</g>
</svg>
