<?xml version="1.0" encoding="utf-8"?>
<!-- Generator: Adobe Illustrator 21.0.0, SVG Export Plug-In . SVG Version: 6.00 Build 0)  -->
<svg version="1.1" id="Layer_1" xmlns="http://www.w3.org/2000/svg" xmlns:xlink="http://www.w3.org/1999/xlink" x="0px" y="0px"
	 viewBox="0 0 37 37" style="enable-background:new 0 0 37 37;" xml:space="preserve">
<style type="text/css">
	.st0{fill:none;stroke:#FFFFFF;stroke-width:0.25;stroke-miterlimit:10;}
</style>
<g>
	<g>
		<line class="st0" x1="1443" y1="-7" x2="1443" y2="710"/>
	</g>
	<g>
		<line class="st0" x1="1406" y1="-7" x2="1406" y2="710"/>
	</g>
	<g>
		<line class="st0" x1="1369" y1="-7" x2="1369" y2="710"/>
	</g>
	<g>
		<line class="st0" x1="1332" y1="-7" x2="1332" y2="710"/>
	</g>
	<g>
		<line class="st0" x1="1295" y1="-7" x2="1295" y2="710"/>
	</g>
	<g>
		<line class="st0" x1="1258" y1="-7" x2="1258" y2="710"/>
	</g>
	<g>
		<line class="st0" x1="1221" y1="-7" x2="1221" y2="710"/>
	</g>
	<g>
		<line class="st0" x1="1184" y1="-7" x2="1184" y2="710"/>
	</g>
	<g>
		<line class="st0" x1="1147" y1="-7" x2="1147" y2="710"/>
	</g>
	<g>
		<line class="st0" x1="1110" y1="-7" x2="1110" y2="710"/>
	</g>
	<g>
		<line class="st0" x1="1073" y1="-7" x2="1073" y2="710"/>
	</g>
	<g>
		<line class="st0" x1="1036" y1="-7" x2="1036" y2="710"/>
	</g>
	<g>
		<line class="st0" x1="999" y1="-7" x2="999" y2="710"/>
	</g>
	<g>
		<line class="st0" x1="962" y1="-7" x2="962" y2="710"/>
	</g>
	<g>
		<line class="st0" x1="925" y1="-7" x2="925" y2="710"/>
	</g>
	<g>
		<line class="st0" x1="888" y1="-7" x2="888" y2="710"/>
	</g>
	<g>
		<line class="st0" x1="851" y1="-7" x2="851" y2="710"/>
	</g>
	<g>
		<line class="st0" x1="814" y1="-7" x2="814" y2="710"/>
	</g>
	<g>
		<line class="st0" x1="777" y1="-7" x2="777" y2="710"/>
	</g>
	<g>
		<line class="st0" x1="740" y1="-7" x2="740" y2="710"/>
	</g>
	<g>
		<line class="st0" x1="703" y1="-7" x2="703" y2="710"/>
	</g>
	<g>
		<line class="st0" x1="666" y1="-7" x2="666" y2="710"/>
	</g>
	<g>
		<line class="st0" x1="629" y1="-7" x2="629" y2="710"/>
	</g>
	<g>
		<line class="st0" x1="592" y1="-7" x2="592" y2="710"/>
	</g>
	<g>
		<line class="st0" x1="555" y1="-7" x2="555" y2="710"/>
	</g>
	<g>
		<line class="st0" x1="518" y1="-7" x2="518" y2="710"/>
	</g>
	<g>
		<line class="st0" x1="481" y1="-7" x2="481" y2="710"/>
	</g>
	<g>
		<line class="st0" x1="444" y1="-7" x2="444" y2="710"/>
	</g>
	<g>
		<line class="st0" x1="407" y1="-7" x2="407" y2="710"/>
	</g>
	<g>
		<line class="st0" x1="370" y1="-7" x2="370" y2="710"/>
	</g>
	<g>
		<line class="st0" x1="333" y1="-7" x2="333" y2="710"/>
	</g>
	<g>
		<line class="st0" x1="296" y1="-7" x2="296" y2="710"/>
	</g>
	<g>
		<line class="st0" x1="259" y1="-7" x2="259" y2="710"/>
	</g>
	<g>
		<line class="st0" x1="222" y1="-7" x2="222" y2="710"/>
	</g>
	<g>
		<line class="st0" x1="185" y1="-7" x2="185" y2="710"/>
	</g>
	<g>
		<line class="st0" x1="148" y1="-7" x2="148" y2="710"/>
	</g>
	<g>
		<line class="st0" x1="111" y1="-7" x2="111" y2="710"/>
	</g>
	<g>
		<line class="st0" x1="74" y1="-7" x2="74" y2="710"/>
	</g>
	<g>
		<line class="st0" x1="37" y1="-7" x2="37" y2="710"/>
	</g>
	<g>
		<line class="st0" x1="0" y1="-7" x2="0" y2="710"/>
	</g>
	<g>
		<line class="st0" x1="1443" y1="-7" x2="1443" y2="710"/>
	</g>
	<g>
		<line class="st0" x1="1406" y1="-7" x2="1406" y2="710"/>
	</g>
	<g>
		<line class="st0" x1="1369" y1="-7" x2="1369" y2="710"/>
	</g>
	<g>
		<line class="st0" x1="1332" y1="-7" x2="1332" y2="710"/>
	</g>
	<g>
		<line class="st0" x1="1295" y1="-7" x2="1295" y2="710"/>
	</g>
	<g>
		<line class="st0" x1="1258" y1="-7" x2="1258" y2="710"/>
	</g>
	<g>
		<line class="st0" x1="1221" y1="-7" x2="1221" y2="710"/>
	</g>
	<g>
		<line class="st0" x1="1184" y1="-7" x2="1184" y2="710"/>
	</g>
	<g>
		<line class="st0" x1="1147" y1="-7" x2="1147" y2="710"/>
	</g>
	<g>
		<line class="st0" x1="1110" y1="-7" x2="1110" y2="710"/>
	</g>
	<g>
		<line class="st0" x1="1073" y1="-7" x2="1073" y2="710"/>
	</g>
	<g>
		<line class="st0" x1="1036" y1="-7" x2="1036" y2="710"/>
	</g>
	<g>
		<line class="st0" x1="999" y1="-7" x2="999" y2="710"/>
	</g>
	<g>
		<line class="st0" x1="962" y1="-7" x2="962" y2="710"/>
	</g>
	<g>
		<line class="st0" x1="925" y1="-7" x2="925" y2="710"/>
	</g>
	<g>
		<line class="st0" x1="888" y1="-7" x2="888" y2="710"/>
	</g>
	<g>
		<line class="st0" x1="851" y1="-7" x2="851" y2="710"/>
	</g>
	<g>
		<line class="st0" x1="814" y1="-7" x2="814" y2="710"/>
	</g>
	<g>
		<line class="st0" x1="777" y1="-7" x2="777" y2="710"/>
	</g>
	<g>
		<line class="st0" x1="740" y1="-7" x2="740" y2="710"/>
	</g>
	<g>
		<line class="st0" x1="703" y1="-7" x2="703" y2="710"/>
	</g>
	<g>
		<line class="st0" x1="666" y1="-7" x2="666" y2="710"/>
	</g>
	<g>
		<line class="st0" x1="629" y1="-7" x2="629" y2="710"/>
	</g>
	<g>
		<line class="st0" x1="592" y1="-7" x2="592" y2="710"/>
	</g>
	<g>
		<line class="st0" x1="555" y1="-7" x2="555" y2="710"/>
	</g>
	<g>
		<line class="st0" x1="518" y1="-7" x2="518" y2="710"/>
	</g>
	<g>
		<line class="st0" x1="481" y1="-7" x2="481" y2="710"/>
	</g>
	<g>
		<line class="st0" x1="444" y1="-7" x2="444" y2="710"/>
	</g>
	<g>
		<line class="st0" x1="407" y1="-7" x2="407" y2="710"/>
	</g>
	<g>
		<line class="st0" x1="370" y1="-7" x2="370" y2="710"/>
	</g>
	<g>
		<line class="st0" x1="333" y1="-7" x2="333" y2="710"/>
	</g>
	<g>
		<line class="st0" x1="296" y1="-7" x2="296" y2="710"/>
	</g>
	<g>
		<line class="st0" x1="259" y1="-7" x2="259" y2="710"/>
	</g>
	<g>
		<line class="st0" x1="222" y1="-7" x2="222" y2="710"/>
	</g>
	<g>
		<line class="st0" x1="185" y1="-7" x2="185" y2="710"/>
	</g>
	<g>
		<line class="st0" x1="148" y1="-7" x2="148" y2="710"/>
	</g>
	<g>
		<line class="st0" x1="111" y1="-7" x2="111" y2="710"/>
	</g>
	<g>
		<line class="st0" x1="74" y1="-7" x2="74" y2="710"/>
	</g>
	<g>
		<line class="st0" x1="37" y1="-7" x2="37" y2="710"/>
	</g>
	<g>
		<line class="st0" x1="0" y1="-7" x2="0" y2="710"/>
	</g>
	<g>
		<line class="st0" x1="1454" y1="703" x2="-11" y2="703"/>
	</g>
	<g>
		<line class="st0" x1="1454" y1="666" x2="-11" y2="666"/>
	</g>
	<g>
		<line class="st0" x1="1454" y1="629" x2="-11" y2="629"/>
	</g>
	<g>
		<line class="st0" x1="1454" y1="592" x2="-11" y2="592"/>
	</g>
	<g>
		<line class="st0" x1="1454" y1="555" x2="-11" y2="555"/>
	</g>
	<g>
		<line class="st0" x1="1454" y1="518" x2="-11" y2="518"/>
	</g>
	<g>
		<line class="st0" x1="1454" y1="481" x2="-11" y2="481"/>
	</g>
	<g>
		<line class="st0" x1="1454" y1="444" x2="-11" y2="444"/>
	</g>
	<g>
		<line class="st0" x1="1454" y1="407" x2="-11" y2="407"/>
	</g>
	<g>
		<line class="st0" x1="1454" y1="370" x2="-11" y2="370"/>
	</g>
	<g>
		<line class="st0" x1="1454" y1="333" x2="-11" y2="333"/>
	</g>
	<g>
		<line class="st0" x1="1454" y1="296" x2="-11" y2="296"/>
	</g>
	<g>
		<line class="st0" x1="1454" y1="259" x2="-11" y2="259"/>
	</g>
	<g>
		<line class="st0" x1="1454" y1="222" x2="-11" y2="222"/>
	</g>
	<g>
		<line class="st0" x1="1454" y1="185" x2="-11" y2="185"/>
	</g>
	<g>
		<line class="st0" x1="1454" y1="148" x2="-11" y2="148"/>
	</g>
	<g>
		<line class="st0" x1="1454" y1="111" x2="-11" y2="111"/>
	</g>
	<g>
		<line class="st0" x1="1454" y1="74" x2="-11" y2="74"/>
	</g>
	<g>
		<line class="st0" x1="1454" y1="37" x2="-11" y2="37"/>
	</g>
	<g>
		<line class="st0" x1="1454" y1="0" x2="-11" y2="0"/>
	</g>
	<g>
		<line class="st0" x1="1454" y1="703" x2="-11" y2="703"/>
	</g>
	<g>
		<line class="st0" x1="1454" y1="666" x2="-11" y2="666"/>
	</g>
	<g>
		<line class="st0" x1="1454" y1="629" x2="-11" y2="629"/>
	</g>
	<g>
		<line class="st0" x1="1454" y1="592" x2="-11" y2="592"/>
	</g>
	<g>
		<line class="st0" x1="1454" y1="555" x2="-11" y2="555"/>
	</g>
	<g>
		<line class="st0" x1="1454" y1="518" x2="-11" y2="518"/>
	</g>
	<g>
		<line class="st0" x1="1454" y1="481" x2="-11" y2="481"/>
	</g>
	<g>
		<line class="st0" x1="1454" y1="444" x2="-11" y2="444"/>
	</g>
	<g>
		<line class="st0" x1="1454" y1="407" x2="-11" y2="407"/>
	</g>
	<g>
		<line class="st0" x1="1454" y1="370" x2="-11" y2="370"/>
	</g>
	<g>
		<line class="st0" x1="1454" y1="333" x2="-11" y2="333"/>
	</g>
	<g>
		<line class="st0" x1="1454" y1="296" x2="-11" y2="296"/>
	</g>
	<g>
		<line class="st0" x1="1454" y1="259" x2="-11" y2="259"/>
	</g>
	<g>
		<line class="st0" x1="1454" y1="222" x2="-11" y2="222"/>
	</g>
	<g>
		<line class="st0" x1="1454" y1="185" x2="-11" y2="185"/>
	</g>
	<g>
		<line class="st0" x1="1454" y1="148" x2="-11" y2="148"/>
	</g>
	<g>
		<line class="st0" x1="1454" y1="111" x2="-11" y2="111"/>
	</g>
	<g>
		<line class="st0" x1="1454" y1="74" x2="-11" y2="74"/>
	</g>
	<g>
		<line class="st0" x1="1454" y1="37" x2="-11" y2="37"/>
	</g>
	<g>
		<line class="st0" x1="1454" y1="0" x2="-11" y2="0"/>
	</g>
</g>
</svg>
