<svg id="Layer_1" data-name="Layer 1" xmlns="http://www.w3.org/2000/svg" viewBox="0 0 299 299">
  <title>application_form_icon</title>
  <g>
    <polygon points="81.98 168.79 81.98 110.92 48.23 110.92 48.23 192.9 221.84 192.9 221.84 168.79 81.98 168.79" fill="#d0f4f7"/>
    <path d="M107.1,97.45H49.23V58.87H107.1Z" transform="translate(-1 -1)" fill="#d0f4f7"/>
    <path d="M179.44,97.45H121.56V58.87h57.87Z" transform="translate(-1 -1)" fill="#d0f4f7"/>
    <path d="M275.89,78.16H242.13V1H29.94V78.16H25.11A24.14,24.14,0,0,0,1,102.27V247a24.14,24.14,0,0,0,24.11,24.11H87.81v19.29H68.52V300h164v-9.65H213.19V271.06h62.69A24.14,24.14,0,0,0,300,247V102.27A24.14,24.14,0,0,0,275.89,78.16Zm-43.4,38.58h9.65v28.94h-9.65Zm-9.65,9.65H136v-9.65h86.81Zm-96.45,17.15L98.84,133.21a2.14,2.14,0,0,1,0-4l27.55-10.33ZM136,136h86.81v9.65H136Zm115.74-19.29h4.82a14.47,14.47,0,0,1,0,28.94h-4.82ZM130.33,107.1,95.46,120.18a11.78,11.78,0,0,0,0,22.07l34.88,13.08H232.48v48.23H39.58V49.23h192.9V107.1ZM232.48,10.65V39.58H39.58V10.65ZM25.11,87.81h4.82V213.19H242.13V155.32H256.6a24.11,24.11,0,0,0,0-48.23H242.13V87.81h33.76a14.49,14.49,0,0,1,14.47,14.47V232.48H10.65V102.27A14.49,14.49,0,0,1,25.11,87.81ZM203.55,290.35H97.45V271.06h106.1Zm72.34-28.94H25.11A14.49,14.49,0,0,1,10.65,247v-4.82H290.35V247A14.49,14.49,0,0,1,275.89,261.42Z" transform="translate(-1 -1)" fill="#43b6c7"/>
    <rect x="48.23" y="19.29" width="9.65" height="9.65" fill="#43b6c7"/>
    <rect x="67.52" y="19.29" width="9.65" height="9.65" fill="#43b6c7"/>
    <rect x="86.81" y="19.29" width="9.65" height="9.65" fill="#43b6c7"/>
    <rect x="48.23" y="106.1" width="33.76" height="9.65" fill="#43b6c7"/>
    <rect x="48.23" y="125.39" width="28.94" height="9.65" fill="#43b6c7"/>
    <rect x="48.23" y="144.68" width="33.76" height="9.65" fill="#43b6c7"/>
    <rect x="48.23" y="163.97" width="173.61" height="9.65" fill="#43b6c7"/>
    <rect x="212.19" y="183.26" width="9.65" height="9.65" fill="#43b6c7"/>
    <rect x="48.23" y="183.26" width="154.32" height="9.65" fill="#43b6c7"/>
  </g>
</svg>
