<?xml version="1.0" encoding="utf-8"?>
<!-- Generator: Adobe Illustrator 21.0.0, SVG Export Plug-In . SVG Version: 6.00 Build 0)  -->
<svg version="1.1" id="Layer_1" xmlns="http://www.w3.org/2000/svg" xmlns:xlink="http://www.w3.org/1999/xlink" x="0px" y="0px"
	 viewBox="0 0 300 300" style="enable-background:new 0 0 300 300;" xml:space="preserve">
<style type="text/css">
	.st0{fill:#FFD5B0;}
	.st1{fill:#FF8400;}
	.st2{fill:none;stroke:#FF8400;stroke-width:9;stroke-miterlimit:10;}
</style>
<g>
	<g>
		<path class="st0" d="M150.8,38.6H4.7v0c0-10.6,8.6-19.2,19.2-19.2h107.7C142.2,19.4,150.8,28,150.8,38.6L150.8,38.6z"/>
		<path class="st0" d="M134.6,276.5h-113c-8.6,0-15.5-6.9-15.5-15.5v-19.5h144V261C150.1,269.6,143.2,276.5,134.6,276.5z"/>
		<g>
			<path class="st1" d="M135.7,282H18.5C9.4,282,2,274.6,2,265.5v-231C2,25.4,9.4,18,18.5,18h117.2c9.1,0,16.5,7.4,16.5,16.5v231
				C152.2,274.6,144.8,282,135.7,282z M18.5,23.5c-6.1,0-11,4.9-11,11v231c0,6.1,4.9,11,11,11h117.2c6.1,0,11-4.9,11-11v-231
				c0-6.1-4.9-11-11-11H18.5z"/>
		</g>
		<g>
			<rect x="4.7" y="36.1" class="st1" width="144.7" height="5.5"/>
		</g>
		<g>
			<rect x="4.7" y="241.8" class="st1" width="144.7" height="5.5"/>
		</g>
		<g>
			<path class="st1" d="M78.1,274.1c-6.6,0-12-5.4-12-12c0-6.6,5.4-12,12-12c6.6,0,12,5.4,12,12C90.1,268.7,84.7,274.1,78.1,274.1z
				 M78.1,254.9c-4,0-7.2,3.2-7.2,7.2s3.2,7.2,7.2,7.2c4,0,7.2-3.2,7.2-7.2S82.1,254.9,78.1,254.9z"/>
		</g>
	</g>
	<g>
		<circle class="st1" cx="50.7" cy="185" r="9.3"/>
		<circle class="st1" cx="192.3" cy="116.7" r="11"/>
		<circle class="st1" cx="139.5" cy="180.5" r="11"/>
		<circle class="st1" cx="86.7" cy="144.9" r="9.6"/>
		<polyline class="st2" points="192.3,116.7 140.2,179.8 86.7,142.8 50.3,184.6 		"/>
	</g>
</g>
</svg>
