<?xml version="1.0" encoding="utf-8"?>
<!-- Generator: Adobe Illustrator 21.0.0, SVG Export Plug-In . SVG Version: 6.00 Build 0)  -->
<svg version="1.1" id="Layer_1" xmlns="http://www.w3.org/2000/svg" xmlns:xlink="http://www.w3.org/1999/xlink" x="0px" y="0px"
	 viewBox="0 0 300 300" style="enable-background:new 0 0 300 300;" xml:space="preserve">
<style type="text/css">
	.st0{fill:#FFD5B0;}
	.st1{fill:#FF8400;}
	.st2{fill:none;stroke:#FF8400;stroke-width:9;stroke-miterlimit:10;}
	.st3{fill:none;}
	.st4{clip-path:url(#SVGID_2_);}
	.st5{fill:#FFFFFF;}
</style>
<g>
	<g>
		<path class="st0" d="M-137.1,38.6h-146.1v0c0-10.6,8.6-19.2,19.2-19.2h107.7C-145.7,19.4-137.1,28-137.1,38.6L-137.1,38.6z"/>
		<path class="st0" d="M-153.3,276.5h-113c-8.6,0-15.5-6.9-15.5-15.5v-19.5h144V261C-137.8,269.6-144.8,276.5-153.3,276.5z"/>
		<g>
			<path class="st1" d="M-152.2,282h-117.2c-9.1,0-16.5-7.4-16.5-16.5v-231c0-9.1,7.4-16.5,16.5-16.5h117.2
				c9.1,0,16.5,7.4,16.5,16.5v231C-135.8,274.6-143.1,282-152.2,282z M-269.5,23.5c-6.1,0-11,4.9-11,11v231c0,6.1,4.9,11,11,11
				h117.2c6.1,0,11-4.9,11-11v-231c0-6.1-4.9-11-11-11H-269.5z"/>
		</g>
		<g>
			<rect x="-283.2" y="36.1" class="st1" width="144.7" height="5.5"/>
		</g>
		<g>
			<rect x="-283.2" y="241.8" class="st1" width="144.7" height="5.5"/>
		</g>
		<g>
			<path class="st1" d="M-209.8,274.1c-6.6,0-12-5.4-12-12c0-6.6,5.4-12,12-12s12,5.4,12,12C-197.8,268.7-203.2,274.1-209.8,274.1z
				 M-209.8,254.9c-4,0-7.2,3.2-7.2,7.2s3.2,7.2,7.2,7.2s7.2-3.2,7.2-7.2S-205.8,254.9-209.8,254.9z"/>
		</g>
	</g>
	<g>
		<circle class="st1" cx="-237.2" cy="185" r="9.3"/>
		<circle class="st1" cx="-95.6" cy="116.7" r="11"/>
		<circle class="st1" cx="-148.4" cy="180.5" r="11"/>
		<circle class="st1" cx="-201.2" cy="144.9" r="9.6"/>
		<polyline class="st2" points="-95.6,116.7 -147.8,179.8 -201.2,142.8 -237.6,184.6 		"/>
	</g>
</g>
<g>
	<rect x="393.8" y="97.5" class="st0" width="109.1" height="61.2"/>
	<rect x="377.7" y="110.8" class="st0" width="125.2" height="47.9"/>
	<g>
		<g>
			<path class="st1" d="M548.7,120.1c-22.6,0-41-18.4-41-41s18.4-41,41-41s41,18.4,41,41S571.3,120.1,548.7,120.1z M548.7,41.8
				c-20.5,0-37.2,16.7-37.2,37.2s16.7,37.2,37.2,37.2s37.2-16.7,37.2-37.2S569.2,41.8,548.7,41.8z"/>
		</g>
		<g>
			<path class="st1" d="M547.7,89.5c-1.6,0-2.8-1.4-2.6-3c0.1-0.9,0.3-1.8,0.6-2.5c0.5-1.3,1.5-2.8,2.9-4.4l3.8-3.9
				c1.6-1.8,2.4-3.8,2.4-5.9c0-2-0.5-3.6-1.6-4.7c-1.1-1.1-2.6-1.7-4.6-1.7c-2,0-3.5,0.5-4.7,1.6c-0.7,0.6-1.3,1.4-1.5,2.4
				c-0.3,1.1-1.4,1.8-2.6,1.8l0,0c-1.7,0-3-1.7-2.5-3.3c0.5-1.6,1.5-3.1,2.8-4.2c2.2-1.9,5-2.9,8.5-2.9c3.6,0,6.5,1,8.5,2.9
				c2,1.9,3,4.6,3,8c0,3.4-1.6,6.7-4.7,9.9l-3.1,3.1c-1,1.1-1.7,2.6-2,4.5c-0.2,1.3-1.3,2.2-2.5,2.2H547.7z M544.7,98.6
				c0-0.9,0.3-1.6,0.8-2.2c0.5-0.6,1.3-0.9,2.3-0.9c1,0,1.8,0.3,2.4,0.9c0.5,0.6,0.8,1.3,0.8,2.2c0,0.9-0.3,1.6-0.8,2.2
				c-0.5,0.6-1.3,0.9-2.4,0.9c-1,0-1.8-0.3-2.3-0.9C544.9,100.2,544.7,99.5,544.7,98.6z"/>
		</g>
	</g>
	<path class="st0" d="M579.7,109.9c-1.1,0.9-2.3,1.8-3.5,2.6c2,1.4,3.3,4,3.3,7.1V204c0,4.4-2.8,8-6.3,8h-17.4l3.6,16.7L536.3,212
		H443c-3.5,0-6.3-3.6-6.3-8v-10.2h-4.3V204c0,6.8,4.7,12.3,10.6,12.3H535l31,22.4l-4.8-22.4h12.1c5.8,0,10.6-5.5,10.6-12.3v-84.4
		C583.7,115.7,582.2,112.2,579.7,109.9z"/>
	<g>
		<path class="st1" d="M364.6,216.1l6.3-24.2h-17.2c-7.5,0-13.5-6.1-13.5-13.5V84c0-7.5,6.1-13.5,13.5-13.5h152.6v4.3H353.8
			c-5.1,0-9.2,4.1-9.2,9.2v94.4c0,5.1,4.1,9.2,9.2,9.2h22.7l-5.1,19.4l32.5-19.4h125.8c5.1,0,9.2-4.1,9.2-9.2V122h4.3v56.4
			c0,7.5-6.1,13.5-13.5,13.5H405.1L364.6,216.1z"/>
	</g>
	<g>
		<g>
			<rect x="394" y="97.5" class="st1" width="108.9" height="4.3"/>
		</g>
		<g>
			<rect x="377.7" y="111.3" class="st1" width="125.2" height="4.3"/>
		</g>
		<g>
			<rect x="377.7" y="125.5" class="st1" width="125.2" height="4.3"/>
		</g>
		<g>
			<rect x="377.7" y="139.8" class="st1" width="125.2" height="4.3"/>
		</g>
		<g>
			<rect x="377.7" y="154" class="st1" width="125.2" height="4.3"/>
		</g>
	</g>
</g>
<g>
	<g>
		
			<rect x="148.9" y="214.1" transform="matrix(1.857960e-03 -1 1 1.857960e-03 -60.7098 372.9196)" class="st1" width="15" height="5.5"/>
	</g>
	<g>
		
			<rect x="223.7" y="214.2" transform="matrix(1.857960e-03 -1 1 1.857960e-03 13.8176 447.8635)" class="st1" width="15" height="5.5"/>
	</g>
</g>
<g>
	<path class="st1" d="M279.2,212.2l-170.8-0.3c-8.5,0-15.3-6.9-15.3-15.4l0.2-98.7c0-8.5,6.9-15.3,15.4-15.3l170.8,0.3
		c8.5,0,15.3,6.9,15.3,15.4l-0.2,98.7C294.6,205.3,287.7,212.2,279.2,212.2z M108.7,88c-5.4,0-9.8,4.4-9.8,9.8l-0.2,98.7
		c0,5.4,4.4,9.8,9.8,9.8l170.8,0.3c5.4,0,9.8-4.4,9.8-9.8l0.2-98.7c0-5.4-4.4-9.8-9.8-9.8L108.7,88z"/>
</g>
<g>
	
		<rect x="189.4" y="170.8" transform="matrix(1.861045e-03 -1 1 1.861045e-03 -30.981 417.883)" class="st1" width="8.8" height="107.3"/>
</g>
<ellipse transform="matrix(1.857960e-03 -1 1 1.857960e-03 6.764 282.9496)" class="st3" cx="145.1" cy="138.1" rx="33.2" ry="33.2"/>
<g>
	
		<ellipse transform="matrix(1.857960e-03 -1 1 1.857960e-03 18.52 293.6746)" class="st0" cx="156.4" cy="137.6" rx="21.3" ry="21.3"/>
	<g>
		<defs>
			
				<ellipse id="SVGID_1_" transform="matrix(1.857960e-03 -1 1 1.857960e-03 17.8906 294.3027)" cx="156.4" cy="138.2" rx="21.3" ry="21.3"/>
		</defs>
		<clipPath id="SVGID_2_">
			<use xlink:href="#SVGID_1_"  style="overflow:visible;"/>
		</clipPath>
		<g class="st4">
			<g>
				<path class="st1" d="M156.4,140c-4.9,0-8.9-4-8.9-8.9c0-4.9,4-8.9,8.9-8.9s8.9,4,8.9,8.9C165.2,136,161.3,140,156.4,140z
					 M156.4,125.8c-2.9,0-5.3,2.4-5.3,5.3c0,2.9,2.4,5.3,5.3,5.3c2.9,0,5.3-2.4,5.3-5.3C161.7,128.2,159.3,125.8,156.4,125.8z"/>
			</g>
			<g>
				<path class="st1" d="M159.9,165.1l-7.1,0c-6.7,0-12.2-5.5-12.1-12.2s5.5-12.2,12.2-12.1l7.1,0c6.7,0,12.2,5.5,12.1,12.2
					C172,159.6,166.6,165.1,159.9,165.1z M152.8,144.3c-4.8,0-8.6,3.8-8.6,8.6c0,4.8,3.8,8.6,8.6,8.6l7.1,0c4.8,0,8.6-3.8,8.6-8.6
					c0-4.8-3.8-8.6-8.6-8.6L152.8,144.3z"/>
			</g>
		</g>
	</g>
</g>
<g>
	<rect x="186" y="114.8" class="st0" width="72.4" height="46.7"/>
	<g>
		
			<rect x="219.4" y="81.4" transform="matrix(1.857960e-03 -1 1 1.857960e-03 104.1402 339.6224)" class="st1" width="5.5" height="72.4"/>
	</g>
	<g>
		
			<rect x="219.4" y="94.1" transform="matrix(1.857960e-03 -1 1 1.857960e-03 91.4512 352.2408)" class="st1" width="5.5" height="72.4"/>
	</g>
	<g>
		
			<rect x="219.4" y="108.3" transform="matrix(1.857960e-03 -1 1 1.857960e-03 77.1762 366.4365)" class="st1" width="5.5" height="72.4"/>
	</g>
	<g>
		
			<rect x="219.4" y="122.6" transform="matrix(1.857960e-03 -1 1 1.857960e-03 62.9012 380.6322)" class="st1" width="5.5" height="72.4"/>
	</g>
</g>
<g>
	<rect x="98.7" y="189.8" class="st1" width="190.4" height="5.5"/>
</g>
<g>
	<path class="st1" d="M57.4,180.4c-0.5-1.3-1.3-2.3-2.2-3.1c-0.9-0.8-2-1.6-3.1-2.2c-1.2-0.6-2.4-1.1-3.7-1.5l-2.4-0.7
		c-0.5-0.1-1-0.3-1.5-0.4c-1.3-0.4-2.5-0.7-3.7-1c-0.4-0.1-0.9-0.2-1.3-0.4c-0.7-0.2-1.3-0.4-1.8-0.7c-0.9-0.4-1.6-0.9-2.1-1.5
		c-0.5-0.6-0.8-1.3-0.8-2.1c0-1.5,0.6-2.7,1.9-3.7c0.8-0.6,1.8-1,2.9-1.2c0.6-0.1,1.3-0.2,2-0.2c1.5,0,3,0.2,4.4,0.5
		c0.7,0.2,1.3,0.4,2,0.6c2,0.8,3.8,1.9,5.3,3.4l4.1-5.2c-3-2.9-6.8-4.7-11.3-5.3v-4h-6.4v3.9c-3.1,0.4-5.8,1.4-7.9,3.2
		c-2.7,2.2-4.1,5-4.1,8.4c0,1.6,0.3,3,0.8,4.2c0.5,1.2,1.3,2.3,2.2,3c0.9,0.8,1.9,1.5,3.1,2.1c1.2,0.6,2.4,1.1,3.7,1.4
		c0.7,0.2,1.5,0.4,2.2,0.6c0.6,0.2,1.1,0.3,1.7,0.5c1.3,0.4,2.5,0.7,3.7,1c0.4,0.1,0.7,0.2,1.1,0.3c0.7,0.2,1.4,0.5,2,0.8
		c0.9,0.4,1.6,1,2.2,1.6c0.5,0.7,0.8,1.5,0.8,2.4c0,1.5-0.7,2.8-2,3.9c-0.8,0.6-1.8,1.1-3,1.3c-0.9,0.2-1.9,0.3-3,0.3
		c-1.2,0-2.3-0.1-3.4-0.3c-1.3-0.2-2.6-0.7-3.8-1.2c-2.2-1-4-2.4-5.6-4l-3.9,5.4c3.4,3.6,7.8,5.7,13.3,6.2v3.4h6.4v-3.4
		c1.3-0.2,2.5-0.4,3.6-0.8c2-0.6,3.7-1.6,4.9-2.7c1.2-1.2,2.2-2.5,2.8-3.9c0.6-1.5,0.9-3,0.9-4.8C58.2,183.1,57.9,181.7,57.4,180.4z
		"/>
	<g>
		<path class="st1" d="M42.2,208.2c-17.7,0-32.1-14.4-32.1-32.1S24.5,144,42.2,144s32.1,14.4,32.1,32.1S59.9,208.2,42.2,208.2z
			 M42.2,146.9C26.1,146.9,13,160,13,176.1s13.1,29.2,29.2,29.2s29.2-13.1,29.2-29.2S58.3,146.9,42.2,146.9z"/>
	</g>
</g>
<circle class="st5" cx="109.2" cy="198.8" r="35.2"/>
<g>
	<g>
		<path class="st1" d="M109.3,227.9c-15.9,0-28.8-13-28.8-29.1s12.9-29.1,28.8-29.1s28.8,13,28.8,29.1S125.2,227.9,109.3,227.9z
			 M109.3,172.8c-14.2,0-25.7,11.7-25.7,26c0,14.4,11.5,26,25.7,26s25.7-11.7,25.7-26C135,184.5,123.5,172.8,109.3,172.8z"/>
	</g>
	<path class="st1" d="M122.2,198.5h-11.7v-11.6c0-0.8-0.7-1.5-1.5-1.5s-1.5,0.7-1.5,1.5V200c0,0.8,0.7,1.5,1.5,1.5c0,0,0.1,0,0.1,0
		c0,0,0.1,0,0.1,0h12.9c0.8,0,1.5-0.7,1.5-1.5S123,198.5,122.2,198.5z"/>
</g>
<path class="st1" d="M85.8,123.4l-5.3-6.7l-0.9,5.1c-9.5-1-18.9,4.3-22.8,13.6c-1.4,3.4-1.9,6.9-1.6,10.4c0-0.1,0.1-0.2,0.1-0.3
	c3.8-9.2,13.2-14.5,22.6-13.6l-0.8,4.7l5.8-3.7l7-4.4L85.8,123.4z"/>
<g>
	<path class="st1" d="M5.9,196.8L5.9,196.8c-0.7-0.5-0.9-1.5-0.4-2.2l2.6-3.7c0.5-0.7,1.5-0.9,2.2-0.4h0c0.7,0.5,0.9,1.5,0.4,2.2
		l-2.6,3.7C7.6,197.2,6.6,197.3,5.9,196.8z"/>
</g>
<g>
	<path class="st1" d="M5.9,205.6L5.9,205.6c-0.7-0.5-0.9-1.5-0.4-2.2l5.1-7.5c0.5-0.7,1.5-0.9,2.2-0.4l0,0c0.7,0.5,0.9,1.5,0.4,2.2
		l-5.1,7.5C7.6,206,6.6,206.1,5.9,205.6z"/>
</g>
<g>
	<path class="st1" d="M23.5,213.8L23.5,213.8c-0.7-0.5-0.9-1.5-0.4-2.2l2.6-3.7c0.5-0.7,1.5-0.9,2.2-0.4h0c0.7,0.5,0.9,1.5,0.4,2.2
		l-2.6,3.7C25.2,214.1,24.2,214.3,23.5,213.8z"/>
</g>
<g>
	<path class="st1" d="M29.1,215.7L29.1,215.7c-0.7-0.5-0.9-1.5-0.4-2.2l2.6-3.7c0.5-0.7,1.5-0.9,2.2-0.4l0,0
		c0.7,0.5,0.9,1.5,0.4,2.2l-2.6,3.7C30.8,216,29.9,216.2,29.1,215.7z"/>
</g>
</svg>
