<?xml version="1.0" encoding="utf-8"?>
<!-- Generator: Adobe Illustrator 21.0.0, SVG Export Plug-In . SVG Version: 6.00 Build 0)  -->
<svg version="1.1" id="Layer_1" xmlns="http://www.w3.org/2000/svg" xmlns:xlink="http://www.w3.org/1999/xlink" x="0px" y="0px"
	 viewBox="0 0 300 300" style="enable-background:new 0 0 300 300;" xml:space="preserve">
<style type="text/css">
	.st0{fill:#FFD5B0;}
	.st1{fill:#FF8400;}
	.st2{fill:none;stroke:#FF8400;stroke-width:9;stroke-miterlimit:10;}
	.st3{fill:none;}
	.st4{clip-path:url(#SVGID_2_);}
	.st5{fill:#FFFFFF;}
	.st6{fill:#FDD4B0;}
	.st7{fill:none;stroke:#F37526;stroke-width:9;stroke-miterlimit:10;}
	.st8{fill:#F37526;}
	.st9{fill:#F37527;}
	.st10{fill:none;stroke:#FE761E;stroke-width:7;stroke-miterlimit:10;}
	.st11{fill:#FE761E;}
	.st12{fill:none;stroke:#FE761E;stroke-width:6;stroke-miterlimit:10;}
	.st13{fill:none;stroke:#FE761E;stroke-width:5;stroke-miterlimit:10;}
	.st14{fill:#FFFFFF;stroke:#FE761E;stroke-width:6;stroke-miterlimit:10;}
	.st15{clip-path:url(#SVGID_4_);}
	.st16{fill:none;stroke:#F37527;stroke-width:5;stroke-miterlimit:10;}
</style>
<g>
	<g>
		<path class="st0" d="M-137.1,38.6h-146.1v0c0-10.6,8.6-19.2,19.2-19.2h107.7C-145.7,19.4-137.1,28-137.1,38.6L-137.1,38.6z"/>
		<path class="st0" d="M-153.3,276.5h-113c-8.6,0-15.5-6.9-15.5-15.5v-19.5h144V261C-137.8,269.6-144.8,276.5-153.3,276.5z"/>
		<g>
			<path class="st1" d="M-152.2,282h-117.2c-9.1,0-16.5-7.4-16.5-16.5v-231c0-9.1,7.4-16.5,16.5-16.5h117.2
				c9.1,0,16.5,7.4,16.5,16.5v231C-135.8,274.6-143.1,282-152.2,282z M-269.5,23.5c-6.1,0-11,4.9-11,11v231c0,6.1,4.9,11,11,11
				h117.2c6.1,0,11-4.9,11-11v-231c0-6.1-4.9-11-11-11H-269.5z"/>
		</g>
		<g>
			<rect x="-283.2" y="36.1" class="st1" width="144.7" height="5.5"/>
		</g>
		<g>
			<rect x="-283.2" y="241.8" class="st1" width="144.7" height="5.5"/>
		</g>
		<g>
			<path class="st1" d="M-209.8,274.1c-6.6,0-12-5.4-12-12c0-6.6,5.4-12,12-12s12,5.4,12,12C-197.8,268.7-203.2,274.1-209.8,274.1z
				 M-209.8,254.9c-4,0-7.2,3.2-7.2,7.2s3.2,7.2,7.2,7.2s7.2-3.2,7.2-7.2S-205.8,254.9-209.8,254.9z"/>
		</g>
	</g>
	<g>
		<circle class="st1" cx="-237.2" cy="185" r="9.3"/>
		<circle class="st1" cx="-95.6" cy="116.7" r="11"/>
		<circle class="st1" cx="-148.4" cy="180.5" r="11"/>
		<circle class="st1" cx="-201.2" cy="144.9" r="9.6"/>
		<polyline class="st2" points="-95.6,116.7 -147.8,179.8 -201.2,142.8 -237.6,184.6 		"/>
	</g>
</g>
<g>
	<rect x="393.8" y="97.5" class="st0" width="109.1" height="61.2"/>
	<rect x="377.7" y="110.8" class="st0" width="125.2" height="47.9"/>
	<g>
		<g>
			<path class="st1" d="M548.7,120.1c-22.6,0-41-18.4-41-41s18.4-41,41-41s41,18.4,41,41S571.3,120.1,548.7,120.1z M548.7,41.8
				c-20.5,0-37.2,16.7-37.2,37.2s16.7,37.2,37.2,37.2s37.2-16.7,37.2-37.2S569.2,41.8,548.7,41.8z"/>
		</g>
		<g>
			<path class="st1" d="M547.7,89.5c-1.6,0-2.8-1.4-2.6-3c0.1-0.9,0.3-1.8,0.6-2.5c0.5-1.3,1.5-2.8,2.9-4.4l3.8-3.9
				c1.6-1.8,2.4-3.8,2.4-5.9c0-2-0.5-3.6-1.6-4.7c-1.1-1.1-2.6-1.7-4.6-1.7c-2,0-3.5,0.5-4.7,1.6c-0.7,0.6-1.3,1.4-1.5,2.4
				c-0.3,1.1-1.4,1.8-2.6,1.8l0,0c-1.7,0-3-1.7-2.5-3.3c0.5-1.6,1.5-3.1,2.8-4.2c2.2-1.9,5-2.9,8.5-2.9c3.6,0,6.5,1,8.5,2.9
				c2,1.9,3,4.6,3,8c0,3.4-1.6,6.7-4.7,9.9l-3.1,3.1c-1,1.1-1.7,2.6-2,4.5c-0.2,1.3-1.3,2.2-2.5,2.2H547.7z M544.7,98.6
				c0-0.9,0.3-1.6,0.8-2.2c0.5-0.6,1.3-0.9,2.3-0.9c1,0,1.8,0.3,2.4,0.9c0.5,0.6,0.8,1.3,0.8,2.2c0,0.9-0.3,1.6-0.8,2.2
				c-0.5,0.6-1.3,0.9-2.4,0.9c-1,0-1.8-0.3-2.3-0.9C544.9,100.2,544.7,99.5,544.7,98.6z"/>
		</g>
	</g>
	<path class="st0" d="M579.7,109.9c-1.1,0.9-2.3,1.8-3.5,2.6c2,1.4,3.3,4,3.3,7.1V204c0,4.4-2.8,8-6.3,8h-17.4l3.6,16.7L536.3,212
		H443c-3.5,0-6.3-3.6-6.3-8v-10.2h-4.3V204c0,6.8,4.7,12.3,10.6,12.3H535l31,22.4l-4.8-22.4h12.1c5.8,0,10.6-5.5,10.6-12.3v-84.4
		C583.7,115.7,582.2,112.2,579.7,109.9z"/>
	<g>
		<path class="st1" d="M364.6,216.1l6.3-24.2h-17.2c-7.5,0-13.5-6.1-13.5-13.5V84c0-7.5,6.1-13.5,13.5-13.5h152.6v4.3H353.8
			c-5.1,0-9.2,4.1-9.2,9.2v94.4c0,5.1,4.1,9.2,9.2,9.2h22.7l-5.1,19.4l32.5-19.4h125.8c5.1,0,9.2-4.1,9.2-9.2V122h4.3v56.4
			c0,7.5-6.1,13.5-13.5,13.5H405.1L364.6,216.1z"/>
	</g>
	<g>
		<g>
			<rect x="394" y="97.5" class="st1" width="108.9" height="4.3"/>
		</g>
		<g>
			<rect x="377.7" y="111.3" class="st1" width="125.2" height="4.3"/>
		</g>
		<g>
			<rect x="377.7" y="125.5" class="st1" width="125.2" height="4.3"/>
		</g>
		<g>
			<rect x="377.7" y="139.8" class="st1" width="125.2" height="4.3"/>
		</g>
		<g>
			<rect x="377.7" y="154" class="st1" width="125.2" height="4.3"/>
		</g>
	</g>
</g>
<g>
	<g>
		<path class="st1" d="M399.1-29L399.1-29c-0.7-0.5-0.9-1.5-0.4-2.2l2.6-3.7c0.5-0.7,1.5-0.9,2.2-0.4l0,0c0.7,0.5,0.9,1.5,0.4,2.2
			l-2.6,3.7C400.8-28.6,399.8-28.5,399.1-29z"/>
	</g>
	<g>
		<path class="st1" d="M399.1-20.2L399.1-20.2c-0.7-0.5-0.9-1.5-0.4-2.2l5.1-7.5c0.5-0.7,1.5-0.9,2.2-0.4l0,0
			c0.7,0.5,0.9,1.5,0.4,2.2l-5.1,7.5C400.8-19.9,399.8-19.7,399.1-20.2z"/>
	</g>
	<g>
		<g>
			<g>
				
					<rect x="542.1" y="-11.7" transform="matrix(1.857960e-03 -1 1 1.857960e-03 557.5647 540.7303)" class="st1" width="15" height="5.5"/>
			</g>
			<g>
				
					<rect x="616.9" y="-11.6" transform="matrix(1.857960e-03 -1 1 1.857960e-03 632.092 615.6741)" class="st1" width="15" height="5.5"/>
			</g>
		</g>
		<g>
			<path class="st1" d="M672.4-13.7L501.7-14c-8.5,0-15.3-6.9-15.3-15.4l0.2-98.7c0-8.5,6.9-15.3,15.4-15.3l170.8,0.3
				c8.5,0,15.3,6.9,15.3,15.4L687.8-29C687.8-20.5,680.9-13.6,672.4-13.7z M501.9-137.9c-5.4,0-9.8,4.4-9.8,9.8l-0.2,98.7
				c0,5.4,4.4,9.8,9.8,9.8l170.8,0.3c5.4,0,9.8-4.4,9.8-9.8l0.2-98.7c0-5.4-4.4-9.8-9.8-9.8L501.9-137.9z"/>
		</g>
		<g>
			
				<rect x="582.6" y="-55" transform="matrix(1.861045e-03 -1 1 1.861045e-03 587.2922 585.6943)" class="st1" width="8.8" height="107.3"/>
		</g>
		
			<ellipse transform="matrix(1.857960e-03 -1 1 1.857960e-03 625.0385 450.7603)" class="st3" cx="538.3" cy="-87.7" rx="33.2" ry="33.2"/>
		<g>
			
				<ellipse transform="matrix(1.857960e-03 -1 1 1.857960e-03 636.7944 461.4853)" class="st0" cx="549.6" cy="-88.2" rx="21.3" ry="21.3"/>
			<g>
				<defs>
					
						<ellipse id="SVGID_1_" transform="matrix(1.857960e-03 -1 1 1.857960e-03 636.1651 462.1134)" cx="549.6" cy="-87.6" rx="21.3" ry="21.3"/>
				</defs>
				<clipPath id="SVGID_2_">
					<use xlink:href="#SVGID_1_"  style="overflow:visible;"/>
				</clipPath>
				<g class="st4">
					<g>
						<path class="st1" d="M549.6-85.8c-4.9,0-8.9-4-8.9-8.9c0-4.9,4-8.9,8.9-8.9c4.9,0,8.9,4,8.9,8.9
							C558.4-89.8,554.5-85.8,549.6-85.8z M549.6-100c-2.9,0-5.3,2.4-5.3,5.3c0,2.9,2.4,5.3,5.3,5.3c2.9,0,5.3-2.4,5.3-5.3
							C554.9-97.6,552.5-100,549.6-100z"/>
					</g>
					<g>
						<path class="st1" d="M553.1-60.7l-7.1,0c-6.7,0-12.2-5.5-12.1-12.2c0-6.7,5.5-12.2,12.2-12.1l7.1,0c6.7,0,12.2,5.5,12.1,12.2
							C565.2-66.2,559.8-60.7,553.1-60.7z M546-81.5c-4.8,0-8.6,3.8-8.6,8.6c0,4.8,3.8,8.6,8.6,8.6l7.1,0c4.8,0,8.6-3.8,8.6-8.6
							c0-4.8-3.8-8.6-8.6-8.6L546-81.5z"/>
					</g>
				</g>
			</g>
		</g>
		<g>
			<rect x="579.2" y="-111" class="st0" width="72.4" height="46.7"/>
			<g>
				
					<rect x="612.6" y="-144.4" transform="matrix(1.857960e-03 -1 1 1.857960e-03 722.4146 507.4331)" class="st1" width="5.5" height="72.4"/>
			</g>
			<g>
				
					<rect x="612.6" y="-131.7" transform="matrix(1.857960e-03 -1 1 1.857960e-03 709.7257 520.0515)" class="st1" width="5.5" height="72.4"/>
			</g>
			<g>
				
					<rect x="612.6" y="-117.5" transform="matrix(1.857960e-03 -1 1 1.857960e-03 695.4507 534.2472)" class="st1" width="5.5" height="72.4"/>
			</g>
			<g>
				
					<rect x="612.5" y="-103.2" transform="matrix(1.857960e-03 -1 1 1.857960e-03 681.1757 548.4429)" class="st1" width="5.5" height="72.4"/>
			</g>
		</g>
		<g>
			<rect x="491.9" y="-36" class="st1" width="190.4" height="5.5"/>
		</g>
		<g>
			<path class="st1" d="M450.6-45.4c-0.5-1.3-1.3-2.3-2.2-3.1c-0.9-0.8-2-1.6-3.1-2.2c-1.2-0.6-2.4-1.1-3.7-1.5l-2.4-0.7
				c-0.5-0.1-1-0.3-1.5-0.4c-1.3-0.4-2.5-0.7-3.7-1c-0.4-0.1-0.9-0.2-1.3-0.4c-0.7-0.2-1.3-0.4-1.8-0.7c-0.9-0.4-1.6-0.9-2.1-1.5
				c-0.5-0.6-0.8-1.3-0.8-2.1c0-1.5,0.6-2.7,1.9-3.7c0.8-0.6,1.8-1,2.9-1.2c0.6-0.1,1.3-0.2,2-0.2c1.5,0,3,0.2,4.4,0.5
				c0.7,0.2,1.3,0.4,2,0.6c2,0.8,3.8,1.9,5.3,3.4l4.1-5.2c-3-2.9-6.8-4.7-11.3-5.3v-4h-6.4v3.9c-3.1,0.4-5.8,1.4-7.9,3.2
				c-2.7,2.2-4.1,5-4.1,8.4c0,1.6,0.3,3,0.8,4.2c0.5,1.2,1.3,2.3,2.2,3c0.9,0.8,1.9,1.5,3.1,2.1c1.2,0.6,2.4,1.1,3.7,1.4
				c0.7,0.2,1.5,0.4,2.2,0.6c0.6,0.2,1.1,0.3,1.7,0.5c1.3,0.4,2.5,0.7,3.7,1c0.4,0.1,0.7,0.2,1.1,0.3c0.7,0.2,1.4,0.5,2,0.8
				c0.9,0.4,1.6,1,2.2,1.6c0.5,0.7,0.8,1.5,0.8,2.4c0,1.5-0.7,2.8-2,3.9c-0.8,0.6-1.8,1.1-3,1.3c-0.9,0.2-1.9,0.3-3,0.3
				c-1.2,0-2.3-0.1-3.4-0.3c-1.3-0.2-2.6-0.7-3.8-1.2c-2.2-1-4-2.4-5.6-4l-3.9,5.4c3.4,3.6,7.8,5.7,13.3,6.2v3.4h6.4v-3.4
				c1.3-0.2,2.5-0.4,3.6-0.8c2-0.6,3.7-1.6,4.9-2.7c1.2-1.2,2.2-2.5,2.8-3.9c0.6-1.5,0.9-3,0.9-4.8
				C451.4-42.7,451.1-44.1,450.6-45.4z"/>
			<g>
				<path class="st1" d="M435.4-17.6c-17.7,0-32.1-14.4-32.1-32.1s14.4-32.1,32.1-32.1c17.7,0,32.1,14.4,32.1,32.1
					S453.1-17.6,435.4-17.6z M435.4-78.9c-16.1,0-29.2,13.1-29.2,29.2s13.1,29.2,29.2,29.2c16.1,0,29.2-13.1,29.2-29.2
					S451.5-78.9,435.4-78.9z"/>
			</g>
		</g>
		<circle class="st5" cx="502.4" cy="-27" r="35.2"/>
		<g>
			<g>
				<path class="st1" d="M502.5,2.1c-15.9,0-28.8-13-28.8-29.1S486.6-56,502.5-56c15.9,0,28.8,13,28.8,29.1S518.4,2.1,502.5,2.1z
					 M502.5-53c-14.2,0-25.7,11.7-25.7,26s11.5,26,25.7,26s25.7-11.7,25.7-26S516.7-53,502.5-53z"/>
			</g>
			<path class="st1" d="M515.4-27.3h-11.7v-11.6c0-0.8-0.7-1.5-1.5-1.5s-1.5,0.7-1.5,1.5v13.1c0,0.8,0.7,1.5,1.5,1.5
				c0,0,0.1,0,0.1,0c0,0,0.1,0,0.1,0h12.9c0.8,0,1.5-0.7,1.5-1.5C516.9-26.6,516.2-27.3,515.4-27.3z"/>
		</g>
		<path class="st1" d="M479-102.4l-5.3-6.7l-0.9,5.1c-9.5-1-18.9,4.3-22.8,13.6c-1.4,3.4-1.9,6.9-1.6,10.4c0-0.1,0.1-0.2,0.1-0.3
			c3.8-9.2,13.2-14.5,22.6-13.6l-0.8,4.7l5.8-3.7l7-4.4L479-102.4z"/>
		<g>
			<path class="st1" d="M416.7-12L416.7-12c-0.7-0.5-0.9-1.5-0.4-2.2l2.6-3.7c0.5-0.7,1.5-0.9,2.2-0.4v0c0.7,0.5,0.9,1.5,0.4,2.2
				l-2.6,3.7C418.4-11.7,417.4-11.5,416.7-12z"/>
		</g>
		<g>
			<path class="st1" d="M422.3-10.1L422.3-10.1c-0.7-0.5-0.9-1.5-0.4-2.2l2.6-3.7c0.5-0.7,1.5-0.9,2.2-0.4v0
				c0.7,0.5,0.9,1.5,0.4,2.2l-2.6,3.7C424-9.8,423-9.6,422.3-10.1z"/>
		</g>
	</g>
</g>
<g>
	<polyline class="st6" points="187.3,-248.2 292.8,-249.9 337.2,-203 337.7,-57.4 	"/>
	<path class="st7" d="M221.1-85.4c-1.2-1.5-2.5-3-3.7-4.5c-3.3-4-5.3-8.7-6.5-13.7c-0.6-2.3-1-4.7-1.5-7c-0.3-1.6-0.6-3.3-0.9-4.9
		c-0.6-4.2-1.1-8.3-1.6-12.5c-0.6-4.7-2.6-8.5-6.2-11.6c-1.7-1.5-3.7-2.6-5.8-3.3c-1.2-0.4-1.3-1-1.3-2.1c0-3.4-1.4-6-4.5-7.6
		c-3.9-2-8.7,0.1-10.3,3.8c-0.7,1.5-0.7,3.1-0.7,4.6c0,0.4,0,0.7-0.5,0.9c-1.9,0.9-3.8,1.8-5.6,3c-3.4,2.2-5.7,5.4-6.6,9.3
		c-0.8,3.7-1.2,7.4-1.7,11.2c-0.9,7-1.8,13.9-4.2,20.6c-0.9,2.3-1.9,4.6-3.2,6.7c-1.8,2.7-3.9,5.1-5.9,7.6c-2.2,2.7-3.6,5.8-4.5,9.2
		c-0.9,3.2-1.1,6.6-1.1,9.9c0,2.7,1.1,3.9,3.9,3.9c7.2,0,14.5,0,21.7,0c1.4,0,1.4,0,1.8,1.4c1.2,4.1,3.8,7.1,7.6,8.9
		c8.3,3.8,17.6-0.4,20.2-9.3c0.2-0.7,0.5-0.9,1.2-0.9c3.7,0,7.5,0,11.2,0c3.7,0,7.4,0,11,0c2.5,0,3.8-1.2,3.7-3.8
		c-0.1-2.3-0.2-4.6-0.5-6.8C226-77.4,224.2-81.6,221.1-85.4z"/>
	<path class="st8" d="M278.1-131c-6.9,0-13.9,0-20.8,0c-10.3,0-20.5,0-30.8,0c-2.4,0-4.2,2.3-3.6,4.7c0.4,1.8,1.9,2.9,4.2,2.9
		c13.7,0,27.5,0,41.2,0c13.6,0,27.1,0,40.7,0c0.5,0,1,0,1.5,0c1.6-0.1,3.2-1.8,3.3-3.4c0.1-2.4-1.6-4.2-4.1-4.2
		C299.2-131,288.6-131,278.1-131z"/>
	<path class="st8" d="M313.6-155.6c-0.5-1.5-1.8-2.6-3.4-2.6c-2,0-4,0-6.1,0c-11.9,0-23.9,0-35.8,0c0,0,0,0,0,0
		c-11.9,0-23.7,0-35.6,0c-2.1,0-4.3,0-6.4,0c-1.5,0-2.8,1.1-3.3,2.5c-0.8,2.6,1.1,5,3.9,5c5.8,0,11.7,0,17.5,0c21.8,0,43.5,0,65.3,0
		c0.8,0,1.8-0.3,2.5-0.8C313.6-152.3,314.1-154,313.6-155.6z"/>
	<path class="st8" d="M274-96.1C274-96.1,274-96.1,274-96.1c11.5,0,23.1,0,34.6,0c0.4,0,0.9,0,1.3,0c2.5-0.2,4.2-2.2,3.8-4.5
		c-0.4-1.9-2-3.1-4.4-3.1c-12,0-24,0-36,0c-11.5,0-22.9,0-34.4,0c-0.6,0-1.3,0.1-1.9,0.2c-1.1,0.3-1.9,1.1-2.3,2.2
		c-1,2.7,0.9,5.2,3.9,5.2C250.4-96.1,262.2-96.1,274-96.1z"/>
	<path class="st9" d="M341.6-61.2c0-36.5,0-73,0-109.6c0-10.7,0-21.5,0-32.2c0-1.3-0.4-2.3-1.3-3.2c-1.1-1.1-2.2-2.2-3.3-3.3
		c-4.9-5-9.9-9.9-14.8-14.9c-5.5-5.5-11-11-16.5-16.5c-3.4-3.4-6.8-6.8-10.2-10.3c-1.1-1.1-2.3-1.7-3.9-1.7c-8.4,0.1-16.7,0-25.1,0
		c-20.3,0-40.6,0.1-60.9,0.1c-6.3,0-12.6-0.1-18.9,0c-0.8,0-1.7,0.2-2.4,0.5c-1.5,0.8-1.8,2.2-1.8,3.7c0,14.3,0,28.6,0,42.9
		c0,12.7,0,25.3,0,38c0,0.4,0,0.8,0,1.1c0.2,1.9,1.6,3.3,3.3,3.5c2,0.2,3.6-0.9,4.1-2.8c0.2-0.7,0.1-1.4,0.1-2.1
		c0-25.3,0-50.5,0-75.8c0-0.5,0-0.9,0-1.5c32.8,0,65.6,0,98.3,0c0,0.5,0,0.9,0,1.3c0,13.3,0,26.6,0,40c0,2.2,1.7,4.5,4.5,4.5
		c13.4-0.1,26.7,0,40.1,0c0.4,0,0.7,0,1.2,0c0,45.2,0,90.3,0,135.5h-94.8c-2,0-3.7,1.7-3.7,3.7v1.1c0,2,1.7,3.7,3.7,3.7H338
		c2,0,3.7-1.7,3.7-3.7v-1.1C341.7-60.6,341.7-60.9,341.6-61.2z"/>
</g>
<g>
	<line class="st10" x1="-460.5" y1="430.7" x2="-336.5" y2="430.7"/>
	<g>
		<g>
			<rect x="-445" y="413.3" class="st11" width="6.4" height="17.4"/>
		</g>
		<g>
			<rect x="-358.4" y="413.3" class="st11" width="6.4" height="17.4"/>
		</g>
	</g>
	<line class="st12" x1="-417.6" y1="359.8" x2="-368.5" y2="359.8"/>
	<line class="st12" x1="-417.6" y1="309" x2="-368.5" y2="309"/>
	<line class="st12" x1="-417.6" y1="334.4" x2="-368.5" y2="334.4"/>
	<polyline class="st13" points="-448.9,307.3 -443.8,312.4 -429.9,298.4 	"/>
	<polyline class="st13" points="-448.9,358.1 -443.8,363.2 -429.9,349.2 	"/>
	<polyline class="st13" points="-448.9,332.7 -443.8,337.8 -429.9,323.8 	"/>
	<path class="st11" d="M-321.9,409.9h-175.4c-6.3,0-11.3-5.1-11.3-11.3v-4.4l0,3.2l188.1-0.4c0.7-2.2,1.6-4.4,2.7-6.4l-190.8,0.4
		V284.3c0-6.3,5.1-11.3,11.3-11.3h197.5c6.3,0,11.3,5.1,11.3,11.3v88.6c0.1,0,0.3,0,0.4,0c2,0,4.1,0.2,6,0.5v-89.1
		c0-9.8-8-17.8-17.8-17.8h-197.5c-9.8,0-17.8,8-17.8,17.8v114.2c0,9.8,8,17.8,17.8,17.8h176.6C-321.3,414.2-321.7,412.1-321.9,409.9
		z"/>
	<circle class="st14" cx="-312.5" cy="378.4" r="39.5"/>
	<g>
		<defs>
			
				<ellipse id="SVGID_3_" transform="matrix(1.857960e-03 -1 1 1.857960e-03 -690.6309 64.0905)" cx="-313.2" cy="378" rx="33.8" ry="33.8"/>
		</defs>
		<clipPath id="SVGID_4_">
			<use xlink:href="#SVGID_3_"  style="overflow:visible;"/>
		</clipPath>
		<g class="st15">
			<g>
				<path class="st11" d="M-313.2,380.8c-7.8,0-14.1-6.3-14.1-14.1c0-7.8,6.3-14.1,14.1-14.1c7.8,0,14.1,6.3,14.1,14.1
					C-299.1,374.5-305.4,380.8-313.2,380.8z M-313.2,358.3c-4.7,0-8.5,3.8-8.5,8.4s3.8,8.5,8.4,8.5s8.5-3.8,8.5-8.4
					C-304.7,362.1-308.5,358.3-313.2,358.3z"/>
			</g>
			<g>
				<path class="st11" d="M-307.7,420.7l-11.3,0c-10.7,0-19.3-8.7-19.3-19.4c0-10.7,8.7-19.3,19.4-19.3l11.3,0
					c10.7,0,19.3,8.7,19.3,19.4S-297,420.7-307.7,420.7z M-318.9,387.7c-7.6,0-13.7,6.1-13.7,13.7s6.1,13.7,13.7,13.7l11.3,0
					c7.6,0,13.7-6.1,13.7-13.7c0-7.6-6.1-13.7-13.7-13.7L-318.9,387.7z"/>
			</g>
		</g>
	</g>
</g>
<g>
	<circle class="st6" cx="119.6" cy="120.5" r="63.3"/>
	<path class="st9" d="M122.9,44.9c2.6,0.3,5.1,0.6,7.7,0.9c30.5,3.9,56.1,27.6,62.3,57.7c4.2,20.1,0.7,38.9-10.2,56.3
		c-0.7,1.1-1.5,2.2-2.3,3.2c-0.7,1-1.5,2-2.3,3.1c1.2,0.9,2.2,1.8,3.2,2.6c-4.7,4.8-9.3,9.4-14.1,14.2c-1-1.2-1.9-2.4-2.7-3.4
		c-4.3,2.4-8.4,5-12.8,7.1c-27.7,13.1-61.6,7.3-83.3-14.2c-15.2-15.1-22.6-33.5-22.3-54.8c0.5-34.9,26.1-64.9,60.4-71.1
		c3.3-0.6,6.7-0.8,10-1.2c0.5-0.1,1-0.2,1.6-0.3C119.8,44.9,121.4,44.9,122.9,44.9z M120.3,179.4c33.3,0,60.2-26.8,60.2-60.1
		c0.1-33.2-26.8-60.1-60-60.2C87.2,59,60.3,85.9,60.2,119.3C60.2,152.4,87.1,179.3,120.3,179.4z"/>
	<path class="st9" d="M182.7,200.4c5.5-5.4,10.9-10.8,16.4-16.4c0.8,0.7,1.7,1.4,2.6,2.2c15.4,13.4,30.8,26.7,46.2,40.1
		c3,2.6,5.2,5.6,5.7,9.6c0.6,4.3-0.7,8.1-3.7,11.3c-1.4,1.5-2.8,3-4.4,4.3c-5.8,5.1-14.4,4.8-19.5-1c-14.5-16.5-28.8-33.2-43.2-49.7
		C182.9,200.6,182.8,200.5,182.7,200.4z"/>
	<path class="st16" d="M172.2,188.4c5-5,9.9-9.9,14.8-14.8c2.1,1.8,4.3,3.7,6.4,5.5c-5.2,5.2-10.4,10.4-15.7,15.7
		C175.9,192.6,174,190.5,172.2,188.4z"/>
	<path class="st16" d="M84.8,148c0-19.4,0-38.8,0-58.3c0.9,0,1.8,0,2.8,0c0,18.4,0,36.8,0,55.4c22.9,0,45.6,0,68.5,0
		c0,1,0,1.9,0,2.9C132.3,148,108.6,148,84.8,148z"/>
	<path class="st9" d="M127.3,95.7c2.7,0,5.4,0,8.2,0c0,13.7,0,27.4,0,41.2c-2.7,0-5.4,0-8.2,0C127.3,123.2,127.3,109.5,127.3,95.7z"
		/>
	<path class="st9" d="M101.6,136.9c-2.8,0-5.4,0-8.2,0c0-12.5,0-25,0-37.5c2.7,0,5.4,0,8.2,0C101.6,111.9,101.6,124.3,101.6,136.9z"
		/>
	<path class="st9" d="M110.3,136.8c0-10.4,0-20.7,0-31c2.8,0,5.5,0,8.3,0c0,10.4,0,20.6,0,31C115.8,136.8,113.1,136.8,110.3,136.8z"
		/>
	<path class="st9" d="M152.5,136.9c-2.8,0-5.4,0-8.2,0c0-16.5,0-32.9,0-49.5c2.7,0,5.4,0,8.2,0C152.5,103.8,152.5,120.2,152.5,136.9
		z"/>
	<path class="st5" d="M126.5,69.5c0,0,17-3.9,27.4,18.1c10.4,22,17.9,5.2,4.3-10.9s-32.4-9.3-32.4-9.3"/>
</g>
</svg>
