<?xml version="1.0" encoding="utf-8"?>
<!-- Generator: Adobe Illustrator 21.0.0, SVG Export Plug-In . SVG Version: 6.00 Build 0)  -->
<svg version="1.1" id="Layer_1" xmlns="http://www.w3.org/2000/svg" xmlns:xlink="http://www.w3.org/1999/xlink" x="0px" y="0px"
	 viewBox="0 0 299 299" style="enable-background:new 0 0 299 299;" xml:space="preserve">
<style type="text/css">
	.st0{fill:#D0F4F7;}
	.st1{fill:#43B6C7;}
	.st2{clip-path:url(#SVGID_2_);}
</style>
<title>application_form_icon</title>
<g>
	<polygon class="st0" points="435,173.6 435,115.7 401.2,115.7 401.2,197.7 574.8,197.7 574.8,173.6 	"/>
	<path class="st0" d="M459.1,101.3h-57.9V62.7h57.9V101.3z"/>
	<path class="st0" d="M531.4,101.3h-57.9V62.7h57.9L531.4,101.3z"/>
	<path class="st1" d="M627.9,82h-33.8V4.8H381.9V82h-4.8c-13.3,0-24.1,10.8-24.1,24.1v144.7c0,13.3,10.8,24.1,24.1,24.1h62.7v19.3
		h-19.3v9.6h164v-9.6h-19.3v-19.3h62.7c13.3,0,24.1-10.8,24.1-24.1V106.1C652,92.8,641.2,82,627.9,82z M584.5,120.6h9.7v28.9h-9.7
		V120.6z M574.8,130.2H488v-9.7h86.8L574.8,130.2z M478.4,147.4L450.8,137c-1.1-0.4-1.7-1.7-1.2-2.8c0.2-0.6,0.7-1,1.2-1.2
		l27.6-10.3V147.4z M488,139.8h86.8v9.6H488V139.8z M603.7,120.5h4.8c8,0,14.5,6.5,14.5,14.5c0,8-6.5,14.5-14.5,14.5h-4.8V120.5z
		 M482.3,110.9L447.5,124c-6.1,2.3-9.2,9.1-6.9,15.2c1.2,3.2,3.7,5.7,6.9,6.9l34.9,13.1h102.1v48.2H391.6V53.1h192.9v57.9H482.3z
		 M584.5,14.5v28.9H391.6V14.5H584.5z M377.1,91.6h4.8V217h212.2v-57.9h14.5c13.3,0,24.1-10.8,24.1-24.1s-10.8-24.1-24.1-24.1h-14.5
		V91.6h33.8c8,0,14.5,6.5,14.5,14.5v130.2H362.6V106.1C362.7,98.1,369.1,91.7,377.1,91.6z M555.5,294.2H449.5v-19.3h106.1V294.2z
		 M627.9,265.2H377.1c-8,0-14.4-6.5-14.5-14.4V246h279.7v4.8C642.3,258.8,635.9,265.2,627.9,265.2L627.9,265.2z"/>
	<rect x="401.2" y="24.1" class="st1" width="9.6" height="9.6"/>
	<rect x="420.5" y="24.1" class="st1" width="9.7" height="9.6"/>
	<rect x="439.8" y="24.1" class="st1" width="9.7" height="9.6"/>
	<rect x="401.2" y="110.9" class="st1" width="33.8" height="9.7"/>
	<rect x="401.2" y="130.2" class="st1" width="28.9" height="9.6"/>
	<rect x="401.2" y="149.5" class="st1" width="33.8" height="9.6"/>
	<rect x="401.2" y="168.8" class="st1" width="173.6" height="9.6"/>
	<rect x="565.2" y="188.1" class="st1" width="9.6" height="9.6"/>
	<rect x="401.2" y="188.1" class="st1" width="154.3" height="9.6"/>
</g>
<title>id_icon</title>
<g>
	<rect x="155" y="104.3" class="st0" width="92.7" height="86.9"/>
	<g>
		<circle class="st0" cx="79.9" cy="147.5" r="47.4"/>
		<g>
			<defs>
				<circle id="SVGID_1_" cx="79.5" cy="146.5" r="47.8"/>
			</defs>
			<clipPath id="SVGID_2_">
				<use xlink:href="#SVGID_1_"  style="overflow:visible;"/>
			</clipPath>
			<g class="st2">
				<g>
					<path class="st1" d="M79.5,150.5c-11,0-19.9-8.9-19.9-19.9c0-11,8.9-19.9,19.9-19.9c11,0,19.9,8.9,19.9,19.9
						C99.4,141.6,90.5,150.5,79.5,150.5z M79.5,118.7c-6.6,0-11.9,5.3-11.9,11.9c0,6.6,5.3,11.9,11.9,11.9s11.9-5.3,11.9-11.9l0,0
						C91.5,124,86.1,118.7,79.5,118.7z"/>
					<path class="st1" d="M87.5,206.8H71.6c-15.1,0-27.3-12.2-27.3-27.3c0-15.1,12.2-27.3,27.3-27.3h15.9
						c15.1,0,27.3,12.2,27.3,27.3C114.8,194.6,102.5,206.8,87.5,206.8z M71.6,160.1c-10.7,0-19.3,8.7-19.3,19.3
						c0,10.7,8.7,19.3,19.3,19.3h15.9c10.7,0,19.3-8.6,19.3-19.3c0-10.7-8.6-19.3-19.3-19.3c0,0,0,0,0,0H71.6z"/>
				</g>
			</g>
		</g>
	</g>
	<rect x="155" y="104.3" class="st1" width="92.7" height="13.4"/>
	<rect x="155" y="124.4" class="st1" width="92.7" height="13.4"/>
	<rect x="155" y="149.2" class="st1" width="92.7" height="13.4"/>
	<rect x="155" y="177.9" class="st1" width="19.1" height="13.4"/>
	<rect x="177.9" y="177.9" class="st1" width="19.1" height="13.4"/>
	<rect x="200.9" y="177.9" class="st1" width="10.5" height="13.4"/>
	<rect x="215.2" y="177.9" class="st1" width="32.5" height="13.4"/>
	<path class="st1" d="M269.2,240H29.8c-15.6,0-28.2-12.6-28.2-28.2V87.1C1.7,71.6,14.3,59,29.8,59h239.4c15.5,0,28.1,12.6,28.2,28.1
		v124.7C297.4,227.4,284.8,240,269.2,240z M29.8,66.6c-11.3,0-20.5,9.2-20.5,20.5v124.7c0,11.3,9.2,20.5,20.5,20.5c0,0,0,0,0,0
		h239.4c11.3,0,20.5-9.2,20.5-20.5V87.1c0-11.3-9.2-20.5-20.5-20.5L29.8,66.6z"/>
</g>
</svg>
