<svg id="Layer_1" data-name="Layer 1" xmlns="http://www.w3.org/2000/svg" xmlns:xlink="http://www.w3.org/1999/xlink" viewBox="0 0 300 142.37">
  <defs>
    <clipPath id="clip-path" transform="translate(0 -79.63)">
      <circle cx="131.48" cy="147.28" r="36.32" fill="none"/>
    </clipPath>
  </defs>
  <title>id_proof_docs_icon</title>
  <g>
    <rect x="188.86" y="35.59" width="70.46" height="66.1" fill="#d0f4f7"/>
    <g>
      <circle cx="131.74" cy="68.45" r="36.05" fill="#d0f4f7"/>
      <g clip-path="url(#clip-path)">
        <g>
          <path d="M131.48,150.3a15.13,15.13,0,1,1,15.13-15.13A15.15,15.15,0,0,1,131.48,150.3Zm0-24.21a9.08,9.08,0,1,0,9.08,9.08A9.09,9.09,0,0,0,131.48,126.09Z" transform="translate(0 -79.63)" fill="#43b6c7"/>
          <path d="M137.53,193.11H125.42a20.75,20.75,0,0,1,0-41.51h12.11a20.75,20.75,0,1,1,0,41.51Zm-12.11-35.45a14.7,14.7,0,1,0,0,29.4h12.11a14.7,14.7,0,1,0,0-29.4Z" transform="translate(0 -79.63)" fill="#43b6c7"/>
        </g>
      </g>
    </g>
    <path d="M276.76,222H93.7a23.27,23.27,0,0,1-23.24-23.24V102.87A23.27,23.27,0,0,1,93.7,79.63H276.76A23.27,23.27,0,0,1,300,102.87v95.88A23.27,23.27,0,0,1,276.76,222ZM93.7,89.8a13.09,13.09,0,0,0-13.08,13.08v95.88A13.09,13.09,0,0,0,93.7,211.83H276.76a13.09,13.09,0,0,0,13.08-13.08V102.87A13.09,13.09,0,0,0,276.76,89.8Z" transform="translate(0 -79.63)" fill="#43b6c7"/>
    <rect x="188.86" y="35.59" width="70.46" height="10.17" fill="#43b6c7"/>
    <rect x="188.86" y="50.85" width="70.46" height="10.17" fill="#43b6c7"/>
    <rect x="188.86" y="69.73" width="70.46" height="10.17" fill="#43b6c7"/>
    <rect x="188.86" y="91.53" width="14.53" height="10.17" fill="#43b6c7"/>
    <rect x="206.3" y="91.53" width="14.53" height="10.17" fill="#43b6c7"/>
    <rect x="223.73" y="91.53" width="7.99" height="10.17" fill="#43b6c7"/>
    <rect x="234.62" y="91.53" width="24.7" height="10.17" fill="#43b6c7"/>
    <rect x="42.86" y="21.79" width="22.52" height="4.36" fill="#43b6c7"/>
    <rect x="22.52" y="36.32" width="9.26" height="4.36" fill="#43b6c7"/>
    <rect x="35.53" y="36.32" width="29.84" height="4.36" fill="#43b6c7"/>
    <rect x="42.86" y="116.22" width="22.52" height="4.36" fill="#43b6c7"/>
    <rect y="101.69" width="55.39" height="4.36" fill="#43b6c7"/>
    <rect x="58.11" y="101.69" width="7.26" height="4.36" fill="#43b6c7"/>
    <rect x="49.39" y="65.38" width="15.98" height="4.36" fill="#43b6c7"/>
  </g>
</svg>
