<?xml version="1.0" encoding="utf-8"?>
<!-- Generator: Adobe Illustrator 21.0.0, SVG Export Plug-In . SVG Version: 6.00 Build 0)  -->
<svg version="1.1" id="Layer_1" xmlns="http://www.w3.org/2000/svg" xmlns:xlink="http://www.w3.org/1999/xlink" x="0px" y="0px"
	 viewBox="0 0 299 299" style="enable-background:new 0 0 299 299;" xml:space="preserve">
<style type="text/css">
	.st0{fill:#D0F4F7;}
	.st1{fill:#43B6C7;}
	.st2{clip-path:url(#SVGID_2_);}
	.st3{fill:none;stroke:#43B6C7;stroke-width:14;stroke-miterlimit:10;}
	.st4{clip-path:url(#SVGID_4_);}
	.st5{enable-background:new    ;}
	.st6{clip-path:url(#SVGID_6_);}
	.st7{opacity:0.78;fill:#FE761E;}
	.st8{fill:#FFFFFF;}
</style>
<title>application_form_icon</title>
<g>
	<polygon class="st0" points="-526.5,173.6 -526.5,115.7 -560.2,115.7 -560.2,197.7 -386.6,197.7 -386.6,173.6 	"/>
	<path class="st0" d="M-502.4,101.3h-57.9V62.7h57.9V101.3z"/>
	<path class="st0" d="M-430,101.3h-57.9V62.7h57.9L-430,101.3z"/>
	<path class="st1" d="M-333.6,82h-33.8V4.8h-212.2V82h-4.8c-13.3,0-24.1,10.8-24.1,24.1v144.7c0,13.3,10.8,24.1,24.1,24.1h62.7v19.3
		h-19.3v9.6h164v-9.6h-19.3v-19.3h62.7c13.3,0,24.1-10.8,24.1-24.1V106.1C-309.5,92.8-320.3,82-333.6,82z M-377,120.6h9.6v28.9h-9.6
		V120.6z M-386.6,130.2h-86.8v-9.7h86.8L-386.6,130.2z M-483.1,147.4l-27.6-10.3c-1.1-0.4-1.7-1.7-1.2-2.8c0.2-0.6,0.7-1,1.2-1.2
		l27.6-10.3L-483.1,147.4z M-473.5,139.8h86.8v9.6h-86.8V139.8z M-357.7,120.5h4.8c8,0,14.5,6.5,14.5,14.5c0,8-6.5,14.5-14.5,14.5
		h-4.8V120.5z M-479.1,110.9L-514,124c-6.1,2.3-9.2,9.1-6.9,15.2c1.2,3.2,3.7,5.7,6.9,6.9l34.9,13.1H-377v48.2h-192.9V53.1H-377
		v57.9H-479.1z M-377,14.5v28.9h-192.9V14.5H-377z M-584.3,91.6h4.8V217h212.2v-57.9h14.5c13.3,0,24.1-10.8,24.1-24.1
		s-10.8-24.1-24.1-24.1h-14.5V91.6h33.8c8,0,14.5,6.5,14.5,14.5v130.2h-279.7V106.1C-598.8,98.1-592.3,91.7-584.3,91.6z
		 M-405.9,294.2H-512v-19.3h106.1L-405.9,294.2z M-333.6,265.2h-250.8c-8,0-14.4-6.5-14.5-14.4V246h279.7v4.8
		C-319.1,258.8-325.6,265.2-333.6,265.2L-333.6,265.2z"/>
	<rect x="-560.2" y="24.1" class="st1" width="9.6" height="9.6"/>
	<rect x="-540.9" y="24.1" class="st1" width="9.7" height="9.6"/>
	<rect x="-521.6" y="24.1" class="st1" width="9.7" height="9.6"/>
	<rect x="-560.2" y="110.9" class="st1" width="33.8" height="9.7"/>
	<rect x="-560.2" y="130.2" class="st1" width="28.9" height="9.6"/>
	<rect x="-560.2" y="149.5" class="st1" width="33.8" height="9.6"/>
	<rect x="-560.2" y="168.8" class="st1" width="173.6" height="9.6"/>
	<rect x="-396.3" y="188.1" class="st1" width="9.6" height="9.6"/>
	<rect x="-560.2" y="188.1" class="st1" width="154.3" height="9.6"/>
</g>
<title>id_icon</title>
<g>
	<rect x="-1165.7" y="104.3" class="st0" width="92.7" height="86.9"/>
	<g>
		<circle class="st0" cx="-1240.8" cy="147.5" r="47.4"/>
		<g>
			<defs>
				<circle id="SVGID_1_" cx="-1241.1" cy="146.5" r="47.8"/>
			</defs>
			<clipPath id="SVGID_2_">
				<use xlink:href="#SVGID_1_"  style="overflow:visible;"/>
			</clipPath>
			<g class="st2">
				<g>
					<path class="st1" d="M-1241.1,150.5c-11,0-19.9-8.9-19.9-19.9c0-11,8.9-19.9,19.9-19.9c11,0,19.9,8.9,19.9,19.9
						C-1221.3,141.6-1230.2,150.5-1241.1,150.5z M-1241.1,118.7c-6.6,0-11.9,5.3-11.9,11.9c0,6.6,5.3,11.9,11.9,11.9
						s11.9-5.3,11.9-11.9l0,0C-1229.2,124-1234.5,118.7-1241.1,118.7z"/>
					<path class="st1" d="M-1233.2,206.8h-15.9c-15.1,0-27.3-12.2-27.3-27.3c0-15.1,12.2-27.3,27.3-27.3h15.9
						c15.1,0,27.3,12.2,27.3,27.3C-1205.9,194.6-1218.1,206.8-1233.2,206.8z M-1249.1,160.1c-10.7,0-19.3,8.7-19.3,19.3
						c0,10.7,8.7,19.3,19.3,19.3h15.9c10.7,0,19.3-8.6,19.3-19.3c0-10.7-8.6-19.3-19.3-19.3c0,0,0,0,0,0H-1249.1z"/>
				</g>
			</g>
		</g>
	</g>
	<rect x="-1165.7" y="104.3" class="st1" width="92.7" height="13.4"/>
	<rect x="-1165.7" y="124.4" class="st1" width="92.7" height="13.4"/>
	<rect x="-1165.7" y="149.2" class="st1" width="92.7" height="13.4"/>
	<rect x="-1165.7" y="177.9" class="st1" width="19.1" height="13.4"/>
	<rect x="-1142.7" y="177.9" class="st1" width="19.1" height="13.4"/>
	<rect x="-1119.8" y="177.9" class="st1" width="10.5" height="13.4"/>
	<rect x="-1105.5" y="177.9" class="st1" width="32.5" height="13.4"/>
	<path class="st1" d="M-1051.5,240h-239.4c-15.6,0-28.2-12.6-28.2-28.2V87.1c0-15.5,12.6-28.1,28.2-28.1h239.4
		c15.5,0,28.1,12.6,28.2,28.1v124.7C-1023.3,227.4-1035.9,240-1051.5,240z M-1290.8,66.6c-11.3,0-20.5,9.2-20.5,20.5v124.7
		c0,11.3,9.2,20.5,20.5,20.5c0,0,0,0,0,0h239.4c11.3,0,20.5-9.2,20.5-20.5V87.1c0-11.3-9.2-20.5-20.5-20.5L-1290.8,66.6z"/>
</g>
<g>
	<rect x="-804.1" y="148.6" class="st0" width="107.1" height="69.1"/>
	<g>
		<path class="st1" d="M-685.7,260.1h-252.6c-12.5,0-22.7-10.2-22.7-22.7v-146c0-12.5,10.2-22.7,22.7-22.7h252.6
			c12.5,0,22.6,10.1,22.7,22.6v146.1C-663,249.9-673.1,260.1-685.7,260.1z M-938.3,76.8c-8,0-14.5,6.5-14.5,14.5v146.1
			c0,8,6.5,14.5,14.5,14.5h252.6c8,0,14.5-6.5,14.5-14.5v-146c0-8-6.4-14.5-14.5-14.6c0,0,0,0,0,0H-938.3z"/>
		<line class="st3" x1="-891.3" y1="278.5" x2="-732.6" y2="278.5"/>
		<g>
			<rect x="-871.4" y="256.3" class="st1" width="8.2" height="22.3"/>
			<rect x="-760.7" y="256.3" class="st1" width="8.2" height="22.3"/>
		</g>
		<g>
			<circle class="st0" cx="-884.3" cy="150.9" r="49.2"/>
			<g>
				<defs>
					<circle id="SVGID_3_" cx="-884.3" cy="150.9" r="49.2"/>
				</defs>
				<clipPath id="SVGID_4_">
					<use xlink:href="#SVGID_3_"  style="overflow:visible;"/>
				</clipPath>
				<g class="st4">
					<g>
						<path class="st1" d="M-884.3,155c-11.3,0-20.5-9.2-20.5-20.5s9.2-20.5,20.5-20.5c11.3,0,20.5,9.2,20.5,20.5l0,0
							C-863.8,145.8-872.9,155-884.3,155z M-884.3,122.2c-6.8,0-12.3,5.5-12.3,12.3c0,6.8,5.5,12.3,12.3,12.3
							c6.8,0,12.3-5.5,12.3-12.3C-872,127.7-877.5,122.2-884.3,122.2L-884.3,122.2z"/>
						<path class="st1" d="M-876.1,213h-16.4c-15.5,0-28.1-12.6-28.1-28.1c0-15.5,12.6-28.1,28.1-28.1h16.4
							c15.5,0,28.1,12.6,28.1,28.1S-860.5,212.9-876.1,213C-876,213-876.1,213-876.1,213z M-892.5,165c-11,0.2-19.7,9.4-19.5,20.4
							c0.2,10.6,8.8,19.2,19.5,19.5h16.4c11-0.2,19.7-9.4,19.5-20.4c-0.2-10.6-8.8-19.2-19.5-19.5H-892.5z"/>
					</g>
				</g>
			</g>
		</g>
		<rect x="-804.1" y="148.6" class="st1" width="107.1" height="8.2"/>
		<rect x="-804.1" y="167.3" class="st1" width="107.1" height="8.2"/>
		<rect x="-804.1" y="188.4" class="st1" width="107.1" height="8.2"/>
		<rect x="-804.1" y="209.4" class="st1" width="107.1" height="8.2"/>
		<g>
			<rect x="-803.5" y="103.5" class="st0" width="31.6" height="31.6"/>
			<rect x="-766" y="103.5" class="st0" width="31.6" height="31.6"/>
			<rect x="-728.5" y="103.5" class="st0" width="31.6" height="31.6"/>
		</g>
		
			<rect x="-952.8" y="227.3" transform="matrix(1 -2.094389e-03 2.094389e-03 1 -0.4864 -1.7)" class="st1" width="281.6" height="8.2"/>
	</g>
</g>
<g>
	<circle class="st0" cx="442.6" cy="137" r="47.8"/>
	<path class="st1" d="M396.9,158.6c11.8,25.3,41.9,36.3,67.2,24.5c10.8-5,19.5-13.7,24.5-24.5c0.1-0.2,0.2-0.3,0.2-0.5
		c6.5-14.4,5.9-31-1.6-44.9c-0.1-0.2-0.2-0.4-0.3-0.5c-13.6-24.4-44.4-33.2-68.8-19.6c-8.2,4.6-15,11.4-19.6,19.6
		c-0.1,0.2-0.2,0.4-0.3,0.6c-3.6,6.7-5.7,14.2-6,21.8c0,0,0,0.1,0,0.1c0,0.7,0,1.4,0,2.1c0,7.2,1.5,14.3,4.5,20.8
		C396.8,158.3,396.8,158.5,396.9,158.6z M464.9,176.8c2-5.5,3.6-11.2,4.9-16.9H482C477.9,167,472,172.8,464.9,176.8z M484.7,154.7
		h-13.8c1-5.6,1.6-11.2,1.6-16.8h15.6C488.1,143.6,486.9,149.3,484.7,154.7L484.7,154.7z M487.9,132.6h-15.4
		c-0.2-5.3-0.9-10.5-2-15.7h12.7C485.7,121.8,487.3,127.1,487.9,132.6L487.9,132.6z M480.1,111.6h-10.8c-1.2-4.7-2.6-9.3-4.3-13.8
		C471,101.2,476.2,105.9,480.1,111.6z M445.4,92c4.4,0.2,8.7,1.1,12.9,2.6c0,0.2,0.1,0.5,0.2,0.7c2.1,5.3,4,10.7,5.5,16.1h-18.5V92z
		 M445.4,116.8h19.8c1.1,5.2,1.8,10.4,2.1,15.7h-21.9V116.8z M445.4,137.8h21.9c-0.1,5.6-0.7,11.3-1.7,16.8h-20.2V137.8L445.4,137.8
		z M445.4,159.9h19c-1.6,6.6-3.6,13-6,19.3c-0.1,0.2-0.1,0.4-0.1,0.6c-4.1,1.5-8.5,2.4-12.9,2.7L445.4,159.9z M403.5,159.9h12.2
		c1.3,5.7,3,11.4,4.9,16.9C413.6,172.8,407.6,167,403.5,159.9L403.5,159.9z M440.2,182.5c-4.4-0.3-8.7-1.2-12.9-2.7
		c0-0.2-0.1-0.4-0.1-0.6c-2.4-6.3-4.5-12.8-6-19.3h19.1V182.5z M440.2,154.6H420c-1.1-5.5-1.7-11.2-1.7-16.8h21.9V154.6L440.2,154.6
		z M440.2,132.6h-21.8c0.3-5.3,0.9-10.6,2.1-15.7h19.8V132.6z M440.2,111.6h-18.5c1.5-5.5,3.3-10.9,5.5-16.2
		c0.1-0.2,0.1-0.5,0.2-0.7c4.1-1.5,8.5-2.4,12.9-2.6V111.6L440.2,111.6z M420.6,97.8c-1.7,4.5-3.1,9.1-4.3,13.8h-10.8
		C409.4,105.9,414.6,101.2,420.6,97.8z M402.4,116.8h12.8c-1.1,5.2-1.7,10.4-2,15.7h-15.4C398.3,127.1,399.9,121.8,402.4,116.8z
		 M413.1,137.8c0.1,5.6,0.6,11.3,1.6,16.8h-13.8c-2.2-5.3-3.4-11-3.5-16.8H413.1L413.1,137.8z"/>
	<path class="st1" d="M530.4,31h-0.2c-14.2,1.1-30.9,2.2-48.6,3.4c-36.9,2.4-78.6,5.2-109.9,8.6c-9.9,0.6-17.6,8.8-17.6,18.7v197.2
		c0,10.3,8.4,18.7,18.7,18.7h139.9c8.7,0,16.3-6.1,18.3-14.6c9.4-0.3,16.8-8,16.8-17.4V48.5C547.9,38.8,540.1,31.1,530.4,31z
		 M523.6,258.9c0,6-4.9,10.8-10.8,10.8H372.8c-6,0-10.8-4.9-10.8-10.8V61.7c0-6,4.9-10.8,10.8-10.8h139.9c6,0,10.8,4.9,10.8,10.8
		L523.6,258.9L523.6,258.9z M542.6,245.6c0,6.3-4.8,11.5-11.1,12.1v-196c0-10.3-8.4-18.7-18.7-18.7h-79.8
		c16.4-1.2,33.2-2.3,49.1-3.3c17.6-1.2,34.3-2.3,48.5-3.3c6.7,0.1,12.1,5.5,12.1,12.2L542.6,245.6z"/>
	<path class="st1" d="M395.7,212.1h94.4c7.3,0,13.2,5.9,13.2,13.2v9.4c0,7.3-5.9,13.2-13.2,13.2h-94.4c-7.3,0-13.2-5.9-13.2-13.2
		v-9.4C382.4,218.1,388.3,212.1,395.7,212.1z"/>
</g>
<g>
	<path class="st0" d="M-339.6,546.7h-238.7c-13.4,0-24.3,10.8-24.3,24.2c0,0,0,0,0,0v14.3h287.3v-14.3
		C-315.3,557.5-326.2,546.7-339.6,546.7z"/>
	<path class="st1" d="M-339.6,720.5h-238.7c-15.5,0-28.1-12.6-28.1-28.1V568c0-15.5,12.6-28,28.1-28h238.7c15.5,0,28,12.6,28.1,28
		v124.3C-311.5,707.9-324.1,720.5-339.6,720.5z M-578.3,547.6c-11.3,0-20.5,9.1-20.5,20.4v124.3c0,11.3,9.2,20.5,20.5,20.5
		c0,0,0,0,0,0h238.7c11.3,0,20.4-9.2,20.5-20.5V568c0-11.3-9.2-20.4-20.5-20.5L-578.3,547.6z"/>
	<g class="st5">
		<path class="st1" d="M-571.5,577.3v-18.2h6.3c1.4,0,2.5,0.1,3.2,0.3c1,0.2,1.9,0.7,2.7,1.3c1,0.8,1.7,1.8,2.2,3.1
			c0.5,1.3,0.7,2.7,0.7,4.3c0,1.4-0.2,2.6-0.5,3.7c-0.3,1.1-0.7,2-1.2,2.7c-0.5,0.7-1.1,1.3-1.7,1.7s-1.3,0.7-2.2,0.9
			c-0.8,0.2-1.8,0.3-2.9,0.3H-571.5z M-569.1,575.2h3.9c1.2,0,2.1-0.1,2.8-0.3c0.7-0.2,1.2-0.5,1.6-0.9c0.6-0.6,1-1.3,1.3-2.3
			c0.3-1,0.5-2.1,0.5-3.5c0-1.9-0.3-3.4-0.9-4.4c-0.6-1-1.4-1.7-2.3-2.1c-0.6-0.2-1.7-0.4-3.1-0.4h-3.8V575.2z"/>
		<path class="st1" d="M-553.1,577.3v-18.2h8.1c1.6,0,2.9,0.2,3.7,0.5c0.8,0.3,1.5,0.9,2,1.7c0.5,0.8,0.8,1.7,0.8,2.7
			c0,1.3-0.4,2.4-1.3,3.3s-2.1,1.4-3.9,1.7c0.6,0.3,1.1,0.6,1.5,0.9c0.7,0.6,1.4,1.5,2,2.4l3.2,5h-3l-2.4-3.8
			c-0.7-1.1-1.3-1.9-1.7-2.5s-0.9-1-1.2-1.2c-0.4-0.2-0.7-0.4-1.1-0.5c-0.3-0.1-0.7-0.1-1.3-0.1h-2.8v8.1H-553.1z M-550.7,567.1h5.2
			c1.1,0,2-0.1,2.6-0.3c0.6-0.2,1.1-0.6,1.4-1.1c0.3-0.5,0.5-1,0.5-1.6c0-0.9-0.3-1.6-0.9-2.1c-0.6-0.6-1.6-0.8-3-0.8h-5.8V567.1z"
			/>
		<path class="st1" d="M-534.3,577.3v-18.2h2.4v18.2H-534.3z"/>
		<path class="st1" d="M-522.5,577.3l-7.1-18.2h2.6l4.7,13.2c0.4,1.1,0.7,2.1,1,3c0.3-1,0.6-2,1-3l4.9-13.2h2.5l-7.1,18.2H-522.5z"
			/>
		<path class="st1" d="M-510.7,577.3v-18.2h13.2v2.1h-10.8v5.6h10.1v2.1h-10.1v6.2h11.2v2.1H-510.7z"/>
		<path class="st1" d="M-493.7,577.3v-18.2h8.1c1.6,0,2.9,0.2,3.7,0.5c0.8,0.3,1.5,0.9,2,1.7c0.5,0.8,0.8,1.7,0.8,2.7
			c0,1.3-0.4,2.4-1.3,3.3c-0.8,0.9-2.1,1.4-3.9,1.7c0.6,0.3,1.1,0.6,1.5,0.9c0.7,0.6,1.4,1.5,2,2.4l3.2,5h-3l-2.4-3.8
			c-0.7-1.1-1.3-1.9-1.7-2.5c-0.5-0.6-0.9-1-1.2-1.2c-0.4-0.2-0.7-0.4-1.1-0.5c-0.3-0.1-0.7-0.1-1.3-0.1h-2.8v8.1H-493.7z
			 M-491.3,567.1h5.2c1.1,0,2-0.1,2.6-0.3c0.6-0.2,1.1-0.6,1.4-1.1c0.3-0.5,0.5-1,0.5-1.6c0-0.9-0.3-1.6-0.9-2.1
			c-0.6-0.6-1.6-0.8-3-0.8h-5.8V567.1z"/>
		<path class="st1" d="M-476.2,571.5l2.3-0.2c0.1,0.9,0.4,1.7,0.8,2.2c0.4,0.6,1,1.1,1.8,1.4s1.8,0.5,2.8,0.5c0.9,0,1.7-0.1,2.4-0.4
			c0.7-0.3,1.2-0.6,1.6-1.1c0.3-0.5,0.5-1,0.5-1.6c0-0.6-0.2-1.1-0.5-1.5c-0.3-0.4-0.9-0.8-1.6-1.1c-0.5-0.2-1.6-0.5-3.2-0.9
			c-1.7-0.4-2.8-0.8-3.5-1.1c-0.9-0.5-1.5-1-1.9-1.7c-0.4-0.7-0.6-1.4-0.6-2.3c0-0.9,0.3-1.8,0.8-2.6c0.5-0.8,1.3-1.4,2.3-1.8
			c1-0.4,2.1-0.6,3.3-0.6c1.3,0,2.5,0.2,3.6,0.7c1,0.4,1.8,1.1,2.4,1.9c0.6,0.8,0.9,1.8,0.9,2.9l-2.3,0.2c-0.1-1.2-0.5-2-1.3-2.6
			c-0.7-0.6-1.8-0.9-3.2-0.9c-1.5,0-2.5,0.3-3.2,0.8c-0.7,0.5-1,1.2-1,1.9c0,0.7,0.2,1.2,0.7,1.6c0.5,0.4,1.7,0.9,3.6,1.3
			c2,0.4,3.3,0.8,4,1.2c1.1,0.5,1.8,1.1,2.3,1.9c0.5,0.7,0.8,1.6,0.8,2.6c0,1-0.3,1.9-0.8,2.7c-0.6,0.9-1.4,1.5-2.4,2
			c-1,0.5-2.2,0.7-3.5,0.7c-1.6,0-3-0.2-4.1-0.7c-1.1-0.5-2-1.2-2.6-2.2C-475.8,573.8-476.2,572.7-476.2,571.5z"/>
		<path class="st1" d="M-451.4,577.3v-18.2h2.4v16.1h9v2.1H-451.4z"/>
		<path class="st1" d="M-436.8,577.3v-18.2h2.4v18.2H-436.8z"/>
		<path class="st1" d="M-417.1,570.9l2.4,0.6c-0.5,2-1.4,3.5-2.7,4.5c-1.3,1-2.9,1.6-4.8,1.6c-2,0-3.6-0.4-4.8-1.2
			c-1.2-0.8-2.2-2-2.8-3.5c-0.6-1.5-1-3.1-1-4.9c0-1.9,0.4-3.6,1.1-5c0.7-1.4,1.8-2.5,3.1-3.2c1.3-0.7,2.8-1.1,4.4-1.1
			c1.8,0,3.4,0.5,4.6,1.4c1.2,0.9,2.1,2.2,2.6,3.9l-2.4,0.6c-0.4-1.3-1-2.3-1.8-2.9c-0.8-0.6-1.8-0.9-3-0.9c-1.4,0-2.6,0.3-3.5,1
			c-0.9,0.7-1.6,1.6-2,2.7c-0.4,1.1-0.6,2.3-0.6,3.5c0,1.5,0.2,2.9,0.7,4.1c0.5,1.2,1.2,2,2.1,2.6c1,0.6,2,0.9,3.1,0.9
			c1.3,0,2.5-0.4,3.4-1.2C-418.1,573.6-417.5,572.5-417.1,570.9z"/>
		<path class="st1" d="M-411.7,577.3v-18.2h13.2v2.1h-10.8v5.6h10.1v2.1h-10.1v6.2h11.2v2.1H-411.7z"/>
		<path class="st1" d="M-394.8,577.3v-18.2h2.5l9.6,14.3v-14.3h2.3v18.2h-2.5l-9.6-14.3v14.3H-394.8z"/>
		<path class="st1" d="M-377.2,571.5l2.3-0.2c0.1,0.9,0.4,1.7,0.8,2.2c0.4,0.6,1,1.1,1.8,1.4s1.8,0.5,2.8,0.5c0.9,0,1.7-0.1,2.4-0.4
			c0.7-0.3,1.2-0.6,1.6-1.1c0.3-0.5,0.5-1,0.5-1.6c0-0.6-0.2-1.1-0.5-1.5c-0.3-0.4-0.9-0.8-1.6-1.1c-0.5-0.2-1.6-0.5-3.2-0.9
			c-1.7-0.4-2.8-0.8-3.5-1.1c-0.9-0.5-1.5-1-1.9-1.7c-0.4-0.7-0.6-1.4-0.6-2.3c0-0.9,0.3-1.8,0.8-2.6c0.5-0.8,1.3-1.4,2.3-1.8
			c1-0.4,2.1-0.6,3.3-0.6c1.4,0,2.5,0.2,3.6,0.7c1,0.4,1.8,1.1,2.4,1.9c0.6,0.8,0.9,1.8,0.9,2.9l-2.3,0.2c-0.1-1.2-0.5-2-1.3-2.6
			c-0.7-0.6-1.8-0.9-3.2-0.9c-1.5,0-2.5,0.3-3.2,0.8c-0.7,0.5-1,1.2-1,1.9c0,0.7,0.2,1.2,0.7,1.6c0.5,0.4,1.7,0.9,3.6,1.3
			c2,0.4,3.3,0.8,4,1.2c1.1,0.5,1.8,1.1,2.3,1.9c0.5,0.7,0.8,1.6,0.8,2.6c0,1-0.3,1.9-0.8,2.7c-0.6,0.9-1.4,1.5-2.4,2
			c-1,0.5-2.2,0.7-3.5,0.7c-1.6,0-3-0.2-4.1-0.7c-1.1-0.5-2-1.2-2.6-2.2C-376.9,573.8-377.2,572.7-377.2,571.5z"/>
		<path class="st1" d="M-359.4,577.3v-18.2h13.2v2.1H-357v5.6h10.1v2.1H-357v6.2h11.2v2.1H-359.4z"/>
	</g>
	<g>
		<rect x="-579.2" y="591.9" class="st0" width="83.8" height="83.8"/>
		<g>
			<defs>
				<rect id="SVGID_5_" x="-589.7" y="588.1" width="102.9" height="87.7"/>
			</defs>
			<clipPath id="SVGID_6_">
				<use xlink:href="#SVGID_5_"  style="overflow:visible;"/>
			</clipPath>
			<g class="st6">
				<g>
					<path class="st1" d="M-537.3,641.7c-11,0-19.8-8.9-19.8-19.8s8.9-19.8,19.8-19.8s19.8,8.9,19.8,19.8
						C-517.5,632.8-526.4,641.7-537.3,641.7z M-537.3,610c-6.6,0-11.9,5.3-11.9,11.9s5.3,11.9,11.9,11.9s11.9-5.3,11.9-11.9l0,0
						C-525.4,615.3-530.7,610-537.3,610z"/>
					<path class="st1" d="M-529.4,697.8h-15.9c-15,0-27.2-12.2-27.2-27.2c0-15,12.2-27.2,27.2-27.2h15.9c15,0,27.2,12.2,27.2,27.2
						C-502.2,685.7-514.3,697.8-529.4,697.8z M-545.3,651.3c-10.6,0-19.3,8.6-19.3,19.3c0,10.6,8.6,19.3,19.3,19.3h15.9
						c10.6,0,19.3-8.6,19.3-19.3c0-10.6-8.6-19.3-19.3-19.3c0,0,0,0,0,0H-545.3z"/>
				</g>
			</g>
		</g>
	</g>
	<rect x="-478.2" y="591.9" class="st0" width="133.4" height="73.4"/>
	<rect x="-478.2" y="591.9" class="st1" width="108.6" height="3.8"/>
	<rect x="-478.2" y="601.4" class="st1" width="69.5" height="3.8"/>
	<rect x="-478.2" y="612.4" class="st1" width="72.4" height="2.9"/>
	<rect x="-579.2" y="687.1" class="st1" width="234.4" height="13.3"/>
	<rect x="-478.2" y="622.4" class="st1" width="56.2" height="2.9"/>
	<rect x="-478.2" y="650.9" class="st1" width="133.4" height="22.9"/>
</g>
<g>
	<circle class="st7" cx="133.5" cy="163.8" r="119.6"/>
	<circle class="st1" cx="165.5" cy="135.2" r="119.6"/>
	<polygon class="st1" points="277.5,242 259.5,172.8 206.5,233.9 	"/>
	<g>
		<path class="st8" d="M165.7,176.5h-2.8c-3.2,0-5.8-2.6-5.8-5.8V82c0-3.2,2.6-5.8,5.8-5.8h2.8c3.2,0,5.8,2.6,5.8,5.8v88.6
			C171.5,173.9,168.9,176.5,165.7,176.5z"/>
	</g>
	<g>
		<path class="st8" d="M165.7,212.7h-2.8c-3.2,0-5.8-2.6-5.8-5.8v-10.1c0-3.2,2.6-5.8,5.8-5.8h2.8c3.2,0,5.8,2.6,5.8,5.8v10.1
			C171.5,210.1,168.9,212.7,165.7,212.7z"/>
	</g>
</g>
</svg>
