<?xml version="1.0" encoding="utf-8"?>
<!-- Generator: Adobe Illustrator 21.0.0, SVG Export Plug-In . SVG Version: 6.00 Build 0)  -->
<svg version="1.1" id="Layer_1" xmlns="http://www.w3.org/2000/svg" xmlns:xlink="http://www.w3.org/1999/xlink" x="0px" y="0px"
	 viewBox="0 0 300 300" style="enable-background:new 0 0 300 300;" xml:space="preserve">
<style type="text/css">
	.st0{fill:#FFD5B0;}
	.st1{fill:#FF8400;}
	.st2{fill:none;stroke:#FF8400;stroke-width:9;stroke-miterlimit:10;}
</style>
<g>
	<g>
		<path class="st0" d="M-137.1,38.6h-146.1v0c0-10.6,8.6-19.2,19.2-19.2h107.7C-145.7,19.4-137.1,28-137.1,38.6L-137.1,38.6z"/>
		<path class="st0" d="M-153.3,276.5h-113c-8.6,0-15.5-6.9-15.5-15.5v-19.5h144V261C-137.8,269.6-144.8,276.5-153.3,276.5z"/>
		<g>
			<path class="st1" d="M-152.2,282h-117.2c-9.1,0-16.5-7.4-16.5-16.5v-231c0-9.1,7.4-16.5,16.5-16.5h117.2
				c9.1,0,16.5,7.4,16.5,16.5v231C-135.8,274.6-143.1,282-152.2,282z M-269.5,23.5c-6.1,0-11,4.9-11,11v231c0,6.1,4.9,11,11,11
				h117.2c6.1,0,11-4.9,11-11v-231c0-6.1-4.9-11-11-11H-269.5z"/>
		</g>
		<g>
			<rect x="-283.2" y="36.1" class="st1" width="144.7" height="5.5"/>
		</g>
		<g>
			<rect x="-283.2" y="241.8" class="st1" width="144.7" height="5.5"/>
		</g>
		<g>
			<path class="st1" d="M-209.8,274.1c-6.6,0-12-5.4-12-12c0-6.6,5.4-12,12-12s12,5.4,12,12C-197.8,268.7-203.2,274.1-209.8,274.1z
				 M-209.8,254.9c-4,0-7.2,3.2-7.2,7.2s3.2,7.2,7.2,7.2s7.2-3.2,7.2-7.2S-205.8,254.9-209.8,254.9z"/>
		</g>
	</g>
	<g>
		<circle class="st1" cx="-237.2" cy="185" r="9.3"/>
		<circle class="st1" cx="-95.6" cy="116.7" r="11"/>
		<circle class="st1" cx="-148.4" cy="180.5" r="11"/>
		<circle class="st1" cx="-201.2" cy="144.9" r="9.6"/>
		<polyline class="st2" points="-95.6,116.7 -147.8,179.8 -201.2,142.8 -237.6,184.6 		"/>
	</g>
</g>
<g>
	<rect x="56.7" y="107.7" class="st0" width="109.1" height="61.2"/>
	<rect x="40.5" y="121" class="st0" width="125.2" height="47.9"/>
	<g>
		<g>
			<path class="st1" d="M211.5,130.3c-22.6,0-41-18.4-41-41s18.4-41,41-41s41,18.4,41,41S234.1,130.3,211.5,130.3z M211.5,52
				c-20.5,0-37.2,16.7-37.2,37.2s16.7,37.2,37.2,37.2s37.2-16.7,37.2-37.2S232,52,211.5,52z"/>
		</g>
		<g>
			<path class="st1" d="M210.5,99.7c-1.6,0-2.8-1.4-2.6-3c0.1-0.9,0.3-1.8,0.6-2.5c0.5-1.3,1.5-2.8,2.9-4.4l3.8-3.9
				c1.6-1.8,2.4-3.8,2.4-5.9c0-2-0.5-3.6-1.6-4.7c-1.1-1.1-2.6-1.7-4.6-1.7c-2,0-3.5,0.5-4.7,1.6c-0.7,0.6-1.3,1.4-1.5,2.4
				c-0.3,1.1-1.4,1.8-2.6,1.8h0c-1.7,0-3-1.7-2.5-3.3c0.5-1.6,1.5-3.1,2.8-4.2c2.2-1.9,5-2.9,8.5-2.9c3.6,0,6.5,1,8.5,2.9
				c2,1.9,3,4.6,3,8c0,3.4-1.6,6.7-4.7,9.9l-3.1,3.1c-1,1.1-1.7,2.6-2,4.5c-0.2,1.3-1.3,2.2-2.5,2.2H210.5z M207.5,108.8
				c0-0.9,0.3-1.6,0.8-2.2c0.5-0.6,1.3-0.9,2.3-0.9c1,0,1.8,0.3,2.4,0.9c0.5,0.6,0.8,1.3,0.8,2.2c0,0.9-0.3,1.6-0.8,2.2
				c-0.5,0.6-1.3,0.9-2.4,0.9c-1,0-1.8-0.3-2.3-0.9C207.8,110.4,207.5,109.7,207.5,108.8z"/>
		</g>
	</g>
	<path class="st0" d="M242.6,120.1c-1.1,0.9-2.3,1.8-3.5,2.6c2,1.4,3.3,4,3.3,7.1v84.4c0,4.4-2.8,8-6.3,8h-17.4l3.6,16.7l-23.1-16.7
		h-93.3c-3.5,0-6.3-3.6-6.3-8V204h-4.3v10.2c0,6.8,4.7,12.3,10.6,12.3h91.9l31,22.4l-4.8-22.4H236c5.8,0,10.6-5.5,10.6-12.3v-84.4
		C246.6,125.9,245,122.4,242.6,120.1z"/>
	<g>
		<path class="st1" d="M27.4,226.3l6.3-24.2H16.6c-7.5,0-13.5-6.1-13.5-13.5V94.2c0-7.5,6.1-13.5,13.5-13.5h152.6V85H16.6
			c-5.1,0-9.2,4.1-9.2,9.2v94.4c0,5.1,4.1,9.2,9.2,9.2h22.7l-5.1,19.4l32.5-19.4h125.8c5.1,0,9.2-4.1,9.2-9.2v-56.4h4.3v56.4
			c0,7.5-6.1,13.5-13.5,13.5H67.9L27.4,226.3z"/>
	</g>
	<g>
		<g>
			<rect x="56.9" y="107.7" class="st1" width="108.9" height="4.3"/>
		</g>
		<g>
			<rect x="40.5" y="121.5" class="st1" width="125.2" height="4.3"/>
		</g>
		<g>
			<rect x="40.5" y="135.7" class="st1" width="125.2" height="4.3"/>
		</g>
		<g>
			<rect x="40.5" y="149.9" class="st1" width="125.2" height="4.3"/>
		</g>
		<g>
			<rect x="40.5" y="164.2" class="st1" width="125.2" height="4.3"/>
		</g>
	</g>
</g>
</svg>
