<?xml version="1.0" encoding="utf-8"?>
<!-- Generator: Adobe Illustrator 21.0.0, SVG Export Plug-In . SVG Version: 6.00 Build 0)  -->
<svg version="1.1" id="Layer_1" xmlns="http://www.w3.org/2000/svg" xmlns:xlink="http://www.w3.org/1999/xlink" x="0px" y="0px"
	 viewBox="0 0 299 299" style="enable-background:new 0 0 299 299;" xml:space="preserve">
<style type="text/css">
	.st0{fill:#D0F4F7;}
	.st1{fill:#43B6C7;}
	.st2{clip-path:url(#SVGID_2_);}
	.st3{fill:none;stroke:#43B6C7;stroke-width:14;stroke-miterlimit:10;}
	.st4{clip-path:url(#SVGID_4_);}
</style>
<title>application_form_icon</title>
<g>
	<polygon class="st0" points="435,173.6 435,115.7 401.2,115.7 401.2,197.7 574.8,197.7 574.8,173.6 	"/>
	<path class="st0" d="M459.1,101.3h-57.9V62.7h57.9V101.3z"/>
	<path class="st0" d="M531.4,101.3h-57.9V62.7h57.9L531.4,101.3z"/>
	<path class="st1" d="M627.9,82h-33.8V4.8H381.9V82h-4.8c-13.3,0-24.1,10.8-24.1,24.1v144.7c0,13.3,10.8,24.1,24.1,24.1h62.7v19.3
		h-19.3v9.6h164v-9.6h-19.3v-19.3h62.7c13.3,0,24.1-10.8,24.1-24.1V106.1C652,92.8,641.2,82,627.9,82z M584.5,120.6h9.7v28.9h-9.7
		V120.6z M574.8,130.2H488v-9.7h86.8L574.8,130.2z M478.4,147.4L450.8,137c-1.1-0.4-1.7-1.7-1.2-2.8c0.2-0.6,0.7-1,1.2-1.2
		l27.6-10.3V147.4z M488,139.8h86.8v9.6H488V139.8z M603.7,120.5h4.8c8,0,14.5,6.5,14.5,14.5c0,8-6.5,14.5-14.5,14.5h-4.8V120.5z
		 M482.3,110.9L447.5,124c-6.1,2.3-9.2,9.1-6.9,15.2c1.2,3.2,3.7,5.7,6.9,6.9l34.9,13.1h102.1v48.2H391.6V53.1h192.9v57.9H482.3z
		 M584.5,14.5v28.9H391.6V14.5H584.5z M377.1,91.6h4.8V217h212.2v-57.9h14.5c13.3,0,24.1-10.8,24.1-24.1s-10.8-24.1-24.1-24.1h-14.5
		V91.6h33.8c8,0,14.5,6.5,14.5,14.5v130.2H362.6V106.1C362.7,98.1,369.1,91.7,377.1,91.6z M555.5,294.2H449.5v-19.3h106.1V294.2z
		 M627.9,265.2H377.1c-8,0-14.4-6.5-14.5-14.4V246h279.7v4.8C642.3,258.8,635.9,265.2,627.9,265.2L627.9,265.2z"/>
	<rect x="401.2" y="24.1" class="st1" width="9.6" height="9.6"/>
	<rect x="420.5" y="24.1" class="st1" width="9.7" height="9.6"/>
	<rect x="439.8" y="24.1" class="st1" width="9.7" height="9.6"/>
	<rect x="401.2" y="110.9" class="st1" width="33.8" height="9.7"/>
	<rect x="401.2" y="130.2" class="st1" width="28.9" height="9.6"/>
	<rect x="401.2" y="149.5" class="st1" width="33.8" height="9.6"/>
	<rect x="401.2" y="168.8" class="st1" width="173.6" height="9.6"/>
	<rect x="565.2" y="188.1" class="st1" width="9.6" height="9.6"/>
	<rect x="401.2" y="188.1" class="st1" width="154.3" height="9.6"/>
</g>
<title>id_icon</title>
<g>
	<rect x="-204.2" y="104.3" class="st0" width="92.7" height="86.9"/>
	<g>
		<circle class="st0" cx="-279.3" cy="147.5" r="47.4"/>
		<g>
			<defs>
				<circle id="SVGID_1_" cx="-279.7" cy="146.5" r="47.8"/>
			</defs>
			<clipPath id="SVGID_2_">
				<use xlink:href="#SVGID_1_"  style="overflow:visible;"/>
			</clipPath>
			<g class="st2">
				<g>
					<path class="st1" d="M-279.7,150.5c-11,0-19.9-8.9-19.9-19.9c0-11,8.9-19.9,19.9-19.9c11,0,19.9,8.9,19.9,19.9
						C-259.8,141.6-268.7,150.5-279.7,150.5z M-279.7,118.7c-6.6,0-11.9,5.3-11.9,11.9c0,6.6,5.3,11.9,11.9,11.9
						c6.6,0,11.9-5.3,11.9-11.9l0,0C-267.7,124-273.1,118.7-279.7,118.7z"/>
					<path class="st1" d="M-271.7,206.8h-15.9c-15.1,0-27.3-12.2-27.3-27.3c0-15.1,12.2-27.3,27.3-27.3h15.9
						c15.1,0,27.3,12.2,27.3,27.3C-244.4,194.6-256.7,206.8-271.7,206.8z M-287.6,160.1c-10.7,0-19.3,8.7-19.3,19.3
						c0,10.7,8.7,19.3,19.3,19.3h15.9c10.7,0,19.3-8.6,19.3-19.3s-8.6-19.3-19.3-19.3c0,0,0,0,0,0H-287.6z"/>
				</g>
			</g>
		</g>
	</g>
	<rect x="-204.2" y="104.3" class="st1" width="92.7" height="13.4"/>
	<rect x="-204.2" y="124.4" class="st1" width="92.7" height="13.4"/>
	<rect x="-204.2" y="149.2" class="st1" width="92.7" height="13.4"/>
	<rect x="-204.2" y="177.9" class="st1" width="19.1" height="13.4"/>
	<rect x="-181.3" y="177.9" class="st1" width="19.1" height="13.4"/>
	<rect x="-158.3" y="177.9" class="st1" width="10.5" height="13.4"/>
	<rect x="-144" y="177.9" class="st1" width="32.5" height="13.4"/>
	<path class="st1" d="M-90,240h-239.4c-15.6,0-28.2-12.6-28.2-28.2V87.1c0-15.5,12.6-28.1,28.2-28.1H-90c15.5,0,28.1,12.6,28.2,28.1
		v124.7C-61.8,227.4-74.4,240-90,240z M-329.4,66.6c-11.3,0-20.5,9.2-20.5,20.5v124.7c0,11.3,9.2,20.5,20.5,20.5c0,0,0,0,0,0H-90
		c11.3,0,20.5-9.2,20.5-20.5V87.1c0-11.3-9.2-20.5-20.5-20.5L-329.4,66.6z"/>
</g>
<g>
	<rect x="157.4" y="124.4" class="st0" width="107.1" height="69.1"/>
	<g>
		<path class="st1" d="M275.8,236H23.2c-12.5,0-22.7-10.2-22.7-22.7v-146c0-12.5,10.2-22.7,22.7-22.7h252.6
			c12.5,0,22.6,10.1,22.7,22.6v146.1C298.5,225.8,288.3,235.9,275.8,236z M23.2,52.7c-8,0-14.5,6.5-14.5,14.5v146.1
			c0,8,6.5,14.5,14.5,14.5h252.6c8,0,14.5-6.5,14.5-14.5v-146c0-8-6.4-14.5-14.5-14.6c0,0,0,0,0,0H23.2z"/>
		<line class="st3" x1="70.2" y1="254.4" x2="228.8" y2="254.4"/>
		<g>
			<rect x="90.1" y="232.2" class="st1" width="8.2" height="22.3"/>
			<rect x="200.7" y="232.2" class="st1" width="8.2" height="22.3"/>
		</g>
		<g>
			<circle class="st0" cx="77.2" cy="126.8" r="49.2"/>
			<g>
				<defs>
					<circle id="SVGID_3_" cx="77.2" cy="126.8" r="49.2"/>
				</defs>
				<clipPath id="SVGID_4_">
					<use xlink:href="#SVGID_3_"  style="overflow:visible;"/>
				</clipPath>
				<g class="st4">
					<g>
						<path class="st1" d="M77.2,130.9c-11.3,0-20.5-9.2-20.5-20.5s9.2-20.5,20.5-20.5c11.3,0,20.5,9.2,20.5,20.5l0,0
							C97.7,121.7,88.5,130.9,77.2,130.9z M77.2,98.1c-6.8,0-12.3,5.5-12.3,12.3c0,6.8,5.5,12.3,12.3,12.3c6.8,0,12.3-5.5,12.3-12.3
							C89.5,103.6,84,98.1,77.2,98.1L77.2,98.1z"/>
						<path class="st1" d="M85.4,188.8H69c-15.5,0-28.1-12.6-28.1-28.1c0-15.5,12.6-28.1,28.1-28.1h16.4c15.5,0,28.1,12.6,28.1,28.1
							S100.9,188.8,85.4,188.8C85.4,188.8,85.4,188.8,85.4,188.8z M69,140.8c-11,0.2-19.7,9.4-19.5,20.4
							c0.2,10.6,8.8,19.2,19.5,19.5h16.4c11-0.2,19.7-9.4,19.5-20.4c-0.2-10.6-8.8-19.2-19.5-19.5H69z"/>
					</g>
				</g>
			</g>
		</g>
		<rect x="157.4" y="124.4" class="st1" width="107.1" height="8.2"/>
		<rect x="157.4" y="143.2" class="st1" width="107.1" height="8.2"/>
		<rect x="157.4" y="164.3" class="st1" width="107.1" height="8.2"/>
		<rect x="157.4" y="185.3" class="st1" width="107.1" height="8.2"/>
		<g>
			<rect x="158" y="79.4" class="st0" width="31.6" height="31.6"/>
			<rect x="195.5" y="79.4" class="st0" width="31.6" height="31.6"/>
			<rect x="232.9" y="79.4" class="st0" width="31.6" height="31.6"/>
		</g>
		
			<rect x="8.7" y="203.2" transform="matrix(1 -2.094389e-03 2.094389e-03 1 -0.4338 0.3136)" class="st1" width="281.6" height="8.2"/>
	</g>
</g>
</svg>
