<?xml version="1.0" encoding="utf-8"?>
<!-- Generator: Adobe Illustrator 21.0.0, SVG Export Plug-In . SVG Version: 6.00 Build 0)  -->
<svg version="1.1" id="Layer_1" xmlns="http://www.w3.org/2000/svg" xmlns:xlink="http://www.w3.org/1999/xlink" x="0px" y="0px"
	 viewBox="0 0 299 299" style="enable-background:new 0 0 299 299;" xml:space="preserve">
<style type="text/css">
	.st0{fill:#D0F4F7;}
	.st1{fill:#43B6C7;}
	.st2{clip-path:url(#SVGID_2_);}
	.st3{fill:none;stroke:#43B6C7;stroke-width:14;stroke-miterlimit:10;}
	.st4{clip-path:url(#SVGID_4_);}
</style>
<title>application_form_icon</title>
<g>
	<polygon class="st0" points="-526.5,173.6 -526.5,115.7 -560.2,115.7 -560.2,197.7 -386.6,197.7 -386.6,173.6 	"/>
	<path class="st0" d="M-502.4,101.3h-57.9V62.7h57.9V101.3z"/>
	<path class="st0" d="M-430,101.3h-57.9V62.7h57.9L-430,101.3z"/>
	<path class="st1" d="M-333.6,82h-33.8V4.8h-212.2V82h-4.8c-13.3,0-24.1,10.8-24.1,24.1v144.7c0,13.3,10.8,24.1,24.1,24.1h62.7v19.3
		h-19.3v9.6h164v-9.6h-19.3v-19.3h62.7c13.3,0,24.1-10.8,24.1-24.1V106.1C-309.5,92.8-320.3,82-333.6,82z M-377,120.6h9.6v28.9h-9.6
		V120.6z M-386.6,130.2h-86.8v-9.7h86.8L-386.6,130.2z M-483.1,147.4l-27.6-10.3c-1.1-0.4-1.7-1.7-1.2-2.8c0.2-0.6,0.7-1,1.2-1.2
		l27.6-10.3L-483.1,147.4z M-473.5,139.8h86.8v9.6h-86.8V139.8z M-357.7,120.5h4.8c8,0,14.5,6.5,14.5,14.5c0,8-6.5,14.5-14.5,14.5
		h-4.8V120.5z M-479.1,110.9L-514,124c-6.1,2.3-9.2,9.1-6.9,15.2c1.2,3.2,3.7,5.7,6.9,6.9l34.9,13.1H-377v48.2h-192.9V53.1H-377
		v57.9H-479.1z M-377,14.5v28.9h-192.9V14.5H-377z M-584.3,91.6h4.8V217h212.2v-57.9h14.5c13.3,0,24.1-10.8,24.1-24.1
		s-10.8-24.1-24.1-24.1h-14.5V91.6h33.8c8,0,14.5,6.5,14.5,14.5v130.2h-279.7V106.1C-598.8,98.1-592.3,91.7-584.3,91.6z
		 M-405.9,294.2H-512v-19.3h106.1L-405.9,294.2z M-333.6,265.2h-250.8c-8,0-14.4-6.5-14.5-14.4V246h279.7v4.8
		C-319.1,258.8-325.6,265.2-333.6,265.2L-333.6,265.2z"/>
	<rect x="-560.2" y="24.1" class="st1" width="9.6" height="9.6"/>
	<rect x="-540.9" y="24.1" class="st1" width="9.7" height="9.6"/>
	<rect x="-521.6" y="24.1" class="st1" width="9.7" height="9.6"/>
	<rect x="-560.2" y="110.9" class="st1" width="33.8" height="9.7"/>
	<rect x="-560.2" y="130.2" class="st1" width="28.9" height="9.6"/>
	<rect x="-560.2" y="149.5" class="st1" width="33.8" height="9.6"/>
	<rect x="-560.2" y="168.8" class="st1" width="173.6" height="9.6"/>
	<rect x="-396.3" y="188.1" class="st1" width="9.6" height="9.6"/>
	<rect x="-560.2" y="188.1" class="st1" width="154.3" height="9.6"/>
</g>
<title>id_icon</title>
<g>
	<rect x="-1165.7" y="104.3" class="st0" width="92.7" height="86.9"/>
	<g>
		<circle class="st0" cx="-1240.8" cy="147.5" r="47.4"/>
		<g>
			<defs>
				<circle id="SVGID_1_" cx="-1241.1" cy="146.5" r="47.8"/>
			</defs>
			<clipPath id="SVGID_2_">
				<use xlink:href="#SVGID_1_"  style="overflow:visible;"/>
			</clipPath>
			<g class="st2">
				<g>
					<path class="st1" d="M-1241.1,150.5c-11,0-19.9-8.9-19.9-19.9c0-11,8.9-19.9,19.9-19.9c11,0,19.9,8.9,19.9,19.9
						C-1221.3,141.6-1230.2,150.5-1241.1,150.5z M-1241.1,118.7c-6.6,0-11.9,5.3-11.9,11.9c0,6.6,5.3,11.9,11.9,11.9
						s11.9-5.3,11.9-11.9l0,0C-1229.2,124-1234.5,118.7-1241.1,118.7z"/>
					<path class="st1" d="M-1233.2,206.8h-15.9c-15.1,0-27.3-12.2-27.3-27.3c0-15.1,12.2-27.3,27.3-27.3h15.9
						c15.1,0,27.3,12.2,27.3,27.3C-1205.9,194.6-1218.1,206.8-1233.2,206.8z M-1249.1,160.1c-10.7,0-19.3,8.7-19.3,19.3
						c0,10.7,8.7,19.3,19.3,19.3h15.9c10.7,0,19.3-8.6,19.3-19.3c0-10.7-8.6-19.3-19.3-19.3c0,0,0,0,0,0H-1249.1z"/>
				</g>
			</g>
		</g>
	</g>
	<rect x="-1165.7" y="104.3" class="st1" width="92.7" height="13.4"/>
	<rect x="-1165.7" y="124.4" class="st1" width="92.7" height="13.4"/>
	<rect x="-1165.7" y="149.2" class="st1" width="92.7" height="13.4"/>
	<rect x="-1165.7" y="177.9" class="st1" width="19.1" height="13.4"/>
	<rect x="-1142.7" y="177.9" class="st1" width="19.1" height="13.4"/>
	<rect x="-1119.8" y="177.9" class="st1" width="10.5" height="13.4"/>
	<rect x="-1105.5" y="177.9" class="st1" width="32.5" height="13.4"/>
	<path class="st1" d="M-1051.5,240h-239.4c-15.6,0-28.2-12.6-28.2-28.2V87.1c0-15.5,12.6-28.1,28.2-28.1h239.4
		c15.5,0,28.1,12.6,28.2,28.1v124.7C-1023.3,227.4-1035.9,240-1051.5,240z M-1290.8,66.6c-11.3,0-20.5,9.2-20.5,20.5v124.7
		c0,11.3,9.2,20.5,20.5,20.5c0,0,0,0,0,0h239.4c11.3,0,20.5-9.2,20.5-20.5V87.1c0-11.3-9.2-20.5-20.5-20.5L-1290.8,66.6z"/>
</g>
<g>
	<rect x="-804.1" y="148.6" class="st0" width="107.1" height="69.1"/>
	<g>
		<path class="st1" d="M-685.7,260.1h-252.6c-12.5,0-22.7-10.2-22.7-22.7v-146c0-12.5,10.2-22.7,22.7-22.7h252.6
			c12.5,0,22.6,10.1,22.7,22.6v146.1C-663,249.9-673.1,260.1-685.7,260.1z M-938.3,76.8c-8,0-14.5,6.5-14.5,14.5v146.1
			c0,8,6.5,14.5,14.5,14.5h252.6c8,0,14.5-6.5,14.5-14.5v-146c0-8-6.4-14.5-14.5-14.6c0,0,0,0,0,0H-938.3z"/>
		<line class="st3" x1="-891.3" y1="278.5" x2="-732.6" y2="278.5"/>
		<g>
			<rect x="-871.4" y="256.3" class="st1" width="8.2" height="22.3"/>
			<rect x="-760.7" y="256.3" class="st1" width="8.2" height="22.3"/>
		</g>
		<g>
			<circle class="st0" cx="-884.3" cy="150.9" r="49.2"/>
			<g>
				<defs>
					<circle id="SVGID_3_" cx="-884.3" cy="150.9" r="49.2"/>
				</defs>
				<clipPath id="SVGID_4_">
					<use xlink:href="#SVGID_3_"  style="overflow:visible;"/>
				</clipPath>
				<g class="st4">
					<g>
						<path class="st1" d="M-884.3,155c-11.3,0-20.5-9.2-20.5-20.5s9.2-20.5,20.5-20.5c11.3,0,20.5,9.2,20.5,20.5l0,0
							C-863.8,145.8-872.9,155-884.3,155z M-884.3,122.2c-6.8,0-12.3,5.5-12.3,12.3c0,6.8,5.5,12.3,12.3,12.3
							c6.8,0,12.3-5.5,12.3-12.3C-872,127.7-877.5,122.2-884.3,122.2L-884.3,122.2z"/>
						<path class="st1" d="M-876.1,213h-16.4c-15.5,0-28.1-12.6-28.1-28.1c0-15.5,12.6-28.1,28.1-28.1h16.4
							c15.5,0,28.1,12.6,28.1,28.1S-860.5,212.9-876.1,213C-876,213-876.1,213-876.1,213z M-892.5,165c-11,0.2-19.7,9.4-19.5,20.4
							c0.2,10.6,8.8,19.2,19.5,19.5h16.4c11-0.2,19.7-9.4,19.5-20.4c-0.2-10.6-8.8-19.2-19.5-19.5H-892.5z"/>
					</g>
				</g>
			</g>
		</g>
		<rect x="-804.1" y="148.6" class="st1" width="107.1" height="8.2"/>
		<rect x="-804.1" y="167.3" class="st1" width="107.1" height="8.2"/>
		<rect x="-804.1" y="188.4" class="st1" width="107.1" height="8.2"/>
		<rect x="-804.1" y="209.4" class="st1" width="107.1" height="8.2"/>
		<g>
			<rect x="-803.5" y="103.5" class="st0" width="31.6" height="31.6"/>
			<rect x="-766" y="103.5" class="st0" width="31.6" height="31.6"/>
			<rect x="-728.5" y="103.5" class="st0" width="31.6" height="31.6"/>
		</g>
		
			<rect x="-952.8" y="227.3" transform="matrix(1 -2.094389e-03 2.094389e-03 1 -0.4864 -1.7)" class="st1" width="281.6" height="8.2"/>
	</g>
</g>
<g>
	<circle class="st0" cx="141.1" cy="132.2" r="47.8"/>
	<path class="st1" d="M95.5,153.8c11.8,25.3,41.9,36.3,67.2,24.5c10.8-5,19.5-13.7,24.5-24.5c0.1-0.2,0.2-0.3,0.2-0.5
		c6.5-14.4,5.9-31-1.6-44.9c-0.1-0.2-0.2-0.4-0.3-0.5c-13.6-24.4-44.4-33.2-68.8-19.6c-8.2,4.6-15,11.4-19.6,19.6
		c-0.1,0.2-0.2,0.4-0.3,0.6c-3.6,6.7-5.7,14.2-6,21.8c0,0,0,0.1,0,0.1c0,0.7,0,1.4,0,2.1c0,7.2,1.5,14.3,4.5,20.8
		C95.3,153.5,95.4,153.7,95.5,153.8z M163.4,172c2-5.5,3.6-11.2,4.9-16.9h12.2C176.5,162.2,170.5,168,163.4,172z M183.2,149.8h-13.8
		c1-5.6,1.6-11.2,1.6-16.8h15.6C186.6,138.8,185.4,144.5,183.2,149.8L183.2,149.8z M186.4,127.7H171c-0.2-5.3-0.9-10.5-2-15.7h12.7
		C184.3,116.9,185.8,122.3,186.4,127.7L186.4,127.7z M178.6,106.7h-10.8c-1.2-4.7-2.6-9.3-4.3-13.8
		C169.5,96.3,174.7,101,178.6,106.7z M143.9,87.2c4.4,0.2,8.7,1.1,12.9,2.6c0,0.2,0.1,0.5,0.2,0.7c2.1,5.3,4,10.7,5.5,16.1h-18.5
		V87.2z M143.9,112h19.8c1.1,5.2,1.8,10.4,2.1,15.7h-21.9V112z M143.9,133h21.9c-0.1,5.6-0.7,11.3-1.7,16.8h-20.2V133L143.9,133z
		 M143.9,155.1h19c-1.6,6.6-3.6,13-6,19.3c-0.1,0.2-0.1,0.4-0.1,0.6c-4.1,1.5-8.5,2.4-12.9,2.7L143.9,155.1z M102,155.1h12.2
		c1.3,5.7,3,11.4,4.9,16.9C112.1,168,106.2,162.2,102,155.1L102,155.1z M138.7,177.7c-4.4-0.3-8.7-1.2-12.9-2.7
		c0-0.2-0.1-0.4-0.1-0.6c-2.4-6.3-4.5-12.8-6-19.3h19.1V177.7z M138.7,149.8h-20.2c-1.1-5.5-1.7-11.2-1.7-16.8h21.9V149.8
		L138.7,149.8z M138.7,127.7h-21.8c0.3-5.3,0.9-10.6,2.1-15.7h19.8V127.7z M138.7,106.8h-18.5c1.5-5.5,3.3-10.9,5.5-16.2
		c0.1-0.2,0.1-0.5,0.2-0.7c4.1-1.5,8.5-2.4,12.9-2.6V106.8L138.7,106.8z M119.1,93c-1.7,4.5-3.1,9.1-4.3,13.8H104
		C107.9,101.1,113.1,96.3,119.1,93z M100.9,112h12.8c-1.1,5.2-1.7,10.4-2,15.7H96.2C96.8,122.3,98.4,116.9,100.9,112z M111.6,133
		c0.1,5.6,0.6,11.3,1.6,16.8H99.5c-2.2-5.3-3.4-11-3.5-16.8H111.6L111.6,133z"/>
	<path class="st1" d="M229,26.2h-0.2c-14.2,1.1-30.9,2.2-48.6,3.4c-36.9,2.4-78.6,5.2-109.9,8.6c-9.9,0.6-17.6,8.8-17.6,18.7v197.2
		c0,10.3,8.4,18.7,18.7,18.7h139.9c8.7,0,16.3-6.1,18.3-14.6c9.4-0.3,16.8-8,16.8-17.4V43.6C246.4,34,238.6,26.2,229,26.2z
		 M222.1,254.1c0,6-4.9,10.8-10.8,10.8H71.3c-6,0-10.8-4.9-10.8-10.8V56.9c0-6,4.9-10.8,10.8-10.8h139.9c6,0,10.8,4.9,10.8,10.8
		L222.1,254.1L222.1,254.1z M241.1,240.8c0,6.3-4.8,11.5-11.1,12.1v-196c0-10.3-8.4-18.7-18.7-18.7h-79.8
		c16.4-1.2,33.2-2.3,49.1-3.3c17.6-1.2,34.3-2.3,48.5-3.3c6.7,0.1,12.1,5.5,12.1,12.2L241.1,240.8z"/>
	<path class="st1" d="M94.2,207.3h94.4c7.3,0,13.2,5.9,13.2,13.2v9.4c0,7.3-5.9,13.2-13.2,13.2H94.2c-7.3,0-13.2-5.9-13.2-13.2v-9.4
		C80.9,213.2,86.9,207.3,94.2,207.3z"/>
</g>
</svg>
