<?xml version="1.0" encoding="utf-8"?>
<!-- Generator: Adobe Illustrator 21.0.0, SVG Export Plug-In . SVG Version: 6.00 Build 0)  -->
<svg version="1.1" id="Layer_1" xmlns="http://www.w3.org/2000/svg" xmlns:xlink="http://www.w3.org/1999/xlink" x="0px" y="0px"
	 viewBox="0 0 300 300" style="enable-background:new 0 0 300 300;" xml:space="preserve">
<style type="text/css">
	.st0{fill:#FFD5B0;}
	.st1{fill:#FF8400;}
	.st2{fill:none;stroke:#FF8400;stroke-width:9;stroke-miterlimit:10;}
	.st3{fill:none;}
	.st4{clip-path:url(#SVGID_2_);}
	.st5{fill:#FFFFFF;}
	.st6{fill:#FDD4B0;}
	.st7{fill:none;stroke:#F37526;stroke-width:9;stroke-miterlimit:10;}
	.st8{fill:#F37526;}
	.st9{fill:#F37527;}
	.st10{fill:none;stroke:#FE761E;stroke-width:7;stroke-miterlimit:10;}
	.st11{fill:#FE761E;}
	.st12{fill:none;stroke:#FE761E;stroke-width:6;stroke-miterlimit:10;}
	.st13{fill:none;stroke:#FE761E;stroke-width:5;stroke-miterlimit:10;}
	.st14{fill:#FFFFFF;stroke:#FE761E;stroke-width:6;stroke-miterlimit:10;}
	.st15{clip-path:url(#SVGID_4_);}
	.st16{fill:none;stroke:#F37527;stroke-width:5;stroke-miterlimit:10;}
</style>
<g>
	<g>
		<path class="st0" d="M-137.1,38.6h-146.1v0c0-10.6,8.6-19.2,19.2-19.2h107.7C-145.7,19.4-137.1,28-137.1,38.6L-137.1,38.6z"/>
		<path class="st0" d="M-153.3,276.5h-113c-8.6,0-15.5-6.9-15.5-15.5v-19.5h144V261C-137.8,269.6-144.8,276.5-153.3,276.5z"/>
		<g>
			<path class="st1" d="M-152.2,282h-117.2c-9.1,0-16.5-7.4-16.5-16.5v-231c0-9.1,7.4-16.5,16.5-16.5h117.2
				c9.1,0,16.5,7.4,16.5,16.5v231C-135.8,274.6-143.1,282-152.2,282z M-269.5,23.5c-6.1,0-11,4.9-11,11v231c0,6.1,4.9,11,11,11
				h117.2c6.1,0,11-4.9,11-11v-231c0-6.1-4.9-11-11-11H-269.5z"/>
		</g>
		<g>
			<rect x="-283.2" y="36.1" class="st1" width="144.7" height="5.5"/>
		</g>
		<g>
			<rect x="-283.2" y="241.8" class="st1" width="144.7" height="5.5"/>
		</g>
		<g>
			<path class="st1" d="M-209.8,274.1c-6.6,0-12-5.4-12-12c0-6.6,5.4-12,12-12s12,5.4,12,12C-197.8,268.7-203.2,274.1-209.8,274.1z
				 M-209.8,254.9c-4,0-7.2,3.2-7.2,7.2s3.2,7.2,7.2,7.2s7.2-3.2,7.2-7.2S-205.8,254.9-209.8,254.9z"/>
		</g>
	</g>
	<g>
		<circle class="st1" cx="-237.2" cy="185" r="9.3"/>
		<circle class="st1" cx="-95.6" cy="116.7" r="11"/>
		<circle class="st1" cx="-148.4" cy="180.5" r="11"/>
		<circle class="st1" cx="-201.2" cy="144.9" r="9.6"/>
		<polyline class="st2" points="-95.6,116.7 -147.8,179.8 -201.2,142.8 -237.6,184.6 		"/>
	</g>
</g>
<g>
	<rect x="393.8" y="97.5" class="st0" width="109.1" height="61.2"/>
	<rect x="377.7" y="110.8" class="st0" width="125.2" height="47.9"/>
	<g>
		<g>
			<path class="st1" d="M548.7,120.1c-22.6,0-41-18.4-41-41s18.4-41,41-41s41,18.4,41,41S571.3,120.1,548.7,120.1z M548.7,41.8
				c-20.5,0-37.2,16.7-37.2,37.2s16.7,37.2,37.2,37.2s37.2-16.7,37.2-37.2S569.2,41.8,548.7,41.8z"/>
		</g>
		<g>
			<path class="st1" d="M547.7,89.5c-1.6,0-2.8-1.4-2.6-3c0.1-0.9,0.3-1.8,0.6-2.5c0.5-1.3,1.5-2.8,2.9-4.4l3.8-3.9
				c1.6-1.8,2.4-3.8,2.4-5.9c0-2-0.5-3.6-1.6-4.7c-1.1-1.1-2.6-1.7-4.6-1.7c-2,0-3.5,0.5-4.7,1.6c-0.7,0.6-1.3,1.4-1.5,2.4
				c-0.3,1.1-1.4,1.8-2.6,1.8l0,0c-1.7,0-3-1.7-2.5-3.3c0.5-1.6,1.5-3.1,2.8-4.2c2.2-1.9,5-2.9,8.5-2.9c3.6,0,6.5,1,8.5,2.9
				c2,1.9,3,4.6,3,8c0,3.4-1.6,6.7-4.7,9.9l-3.1,3.1c-1,1.1-1.7,2.6-2,4.5c-0.2,1.3-1.3,2.2-2.5,2.2H547.7z M544.7,98.6
				c0-0.9,0.3-1.6,0.8-2.2c0.5-0.6,1.3-0.9,2.3-0.9c1,0,1.8,0.3,2.4,0.9c0.5,0.6,0.8,1.3,0.8,2.2c0,0.9-0.3,1.6-0.8,2.2
				c-0.5,0.6-1.3,0.9-2.4,0.9c-1,0-1.8-0.3-2.3-0.9C544.9,100.2,544.7,99.5,544.7,98.6z"/>
		</g>
	</g>
	<path class="st0" d="M579.7,109.9c-1.1,0.9-2.3,1.8-3.5,2.6c2,1.4,3.3,4,3.3,7.1V204c0,4.4-2.8,8-6.3,8h-17.4l3.6,16.7L536.3,212
		H443c-3.5,0-6.3-3.6-6.3-8v-10.2h-4.3V204c0,6.8,4.7,12.3,10.6,12.3H535l31,22.4l-4.8-22.4h12.1c5.8,0,10.6-5.5,10.6-12.3v-84.4
		C583.7,115.7,582.2,112.2,579.7,109.9z"/>
	<g>
		<path class="st1" d="M364.6,216.1l6.3-24.2h-17.2c-7.5,0-13.5-6.1-13.5-13.5V84c0-7.5,6.1-13.5,13.5-13.5h152.6v4.3H353.8
			c-5.1,0-9.2,4.1-9.2,9.2v94.4c0,5.1,4.1,9.2,9.2,9.2h22.7l-5.1,19.4l32.5-19.4h125.8c5.1,0,9.2-4.1,9.2-9.2V122h4.3v56.4
			c0,7.5-6.1,13.5-13.5,13.5H405.1L364.6,216.1z"/>
	</g>
	<g>
		<g>
			<rect x="394" y="97.5" class="st1" width="108.9" height="4.3"/>
		</g>
		<g>
			<rect x="377.7" y="111.3" class="st1" width="125.2" height="4.3"/>
		</g>
		<g>
			<rect x="377.7" y="125.5" class="st1" width="125.2" height="4.3"/>
		</g>
		<g>
			<rect x="377.7" y="139.8" class="st1" width="125.2" height="4.3"/>
		</g>
		<g>
			<rect x="377.7" y="154" class="st1" width="125.2" height="4.3"/>
		</g>
	</g>
</g>
<g>
	<g>
		<path class="st1" d="M-330.7,356.2L-330.7,356.2c-0.7-0.5-0.9-1.5-0.4-2.2l2.6-3.7c0.5-0.7,1.5-0.9,2.2-0.4l0,0
			c0.7,0.5,0.9,1.5,0.4,2.2l-2.6,3.7C-329,356.5-330,356.7-330.7,356.2z"/>
	</g>
	<g>
		<path class="st1" d="M-330.7,365L-330.7,365c-0.7-0.5-0.9-1.5-0.4-2.2l5.1-7.5c0.5-0.7,1.5-0.9,2.2-0.4l0,0
			c0.7,0.5,0.9,1.5,0.4,2.2l-5.1,7.5C-329,365.3-330,365.5-330.7,365z"/>
	</g>
	<g>
		<g>
			<g>
				
					<rect x="-187.6" y="373.5" transform="matrix(1.857960e-03 -1 1 1.857960e-03 -555.9966 195.4351)" class="st1" width="15" height="5.5"/>
			</g>
			<g>
				
					<rect x="-112.8" y="373.6" transform="matrix(1.857960e-03 -1 1 1.857960e-03 -481.4693 270.379)" class="st1" width="15" height="5.5"/>
			</g>
		</g>
		<g>
			<path class="st1" d="M-57.3,371.5l-170.8-0.3c-8.5,0-15.3-6.9-15.3-15.4l0.2-98.7c0-8.5,6.9-15.3,15.4-15.3l170.8,0.3
				c8.5,0,15.3,6.9,15.3,15.4l-0.2,98.7C-41.9,364.7-48.8,371.5-57.3,371.5z M-227.8,247.3c-5.4,0-9.8,4.4-9.8,9.8l-0.2,98.7
				c0,5.4,4.4,9.8,9.8,9.8l170.8,0.3c5.4,0,9.8-4.4,9.8-9.8l0.2-98.7c0-5.4-4.4-9.8-9.8-9.8L-227.8,247.3z"/>
		</g>
		<g>
			
				<rect x="-147.1" y="330.2" transform="matrix(1.861045e-03 -1 1 1.861045e-03 -526.2668 240.398)" class="st1" width="8.8" height="107.3"/>
		</g>
		
			<ellipse transform="matrix(1.857960e-03 -1 1 1.857960e-03 -488.5229 105.4652)" class="st3" cx="-191.4" cy="297.4" rx="33.2" ry="33.2"/>
		<g>
			
				<ellipse transform="matrix(1.857960e-03 -1 1 1.857960e-03 -476.7669 116.1901)" class="st0" cx="-180.2" cy="296.9" rx="21.3" ry="21.3"/>
			<g>
				<defs>
					
						<ellipse id="SVGID_1_" transform="matrix(1.857960e-03 -1 1 1.857960e-03 -477.3963 116.8182)" cx="-180.2" cy="297.6" rx="21.3" ry="21.3"/>
				</defs>
				<clipPath id="SVGID_2_">
					<use xlink:href="#SVGID_1_"  style="overflow:visible;"/>
				</clipPath>
				<g class="st4">
					<g>
						<path class="st1" d="M-180.2,299.3c-4.9,0-8.9-4-8.9-8.9s4-8.9,8.9-8.9s8.9,4,8.9,8.9C-171.3,295.4-175.3,299.3-180.2,299.3z
							 M-180.2,285.1c-2.9,0-5.3,2.4-5.3,5.3c0,2.9,2.4,5.3,5.3,5.3c2.9,0,5.3-2.4,5.3-5.3C-174.8,287.5-177.2,285.1-180.2,285.1z"
							/>
					</g>
					<g>
						<path class="st1" d="M-176.7,324.4l-7.1,0c-6.7,0-12.2-5.5-12.1-12.2c0-6.7,5.5-12.2,12.2-12.1l7.1,0
							c6.7,0,12.2,5.5,12.1,12.2C-164.5,319-170,324.4-176.7,324.4z M-183.7,303.6c-4.8,0-8.6,3.8-8.6,8.6c0,4.8,3.8,8.6,8.6,8.6
							l7.1,0c4.8,0,8.6-3.8,8.6-8.6c0-4.8-3.8-8.6-8.6-8.6L-183.7,303.6z"/>
					</g>
				</g>
			</g>
		</g>
		<g>
			<rect x="-150.6" y="274.2" class="st0" width="72.4" height="46.7"/>
			<g>
				
					<rect x="-117.1" y="240.8" transform="matrix(1.857960e-03 -1 1 1.857960e-03 -391.1468 162.1379)" class="st1" width="5.5" height="72.4"/>
			</g>
			<g>
				
					<rect x="-117.1" y="253.5" transform="matrix(1.857960e-03 -1 1 1.857960e-03 -403.8357 174.7563)" class="st1" width="5.5" height="72.4"/>
			</g>
			<g>
				
					<rect x="-117.2" y="267.7" transform="matrix(1.857960e-03 -1 1 1.857960e-03 -418.1107 188.952)" class="st1" width="5.5" height="72.4"/>
			</g>
			<g>
				
					<rect x="-117.2" y="282" transform="matrix(1.857960e-03 -1 1 1.857960e-03 -432.3857 203.1477)" class="st1" width="5.5" height="72.4"/>
			</g>
		</g>
		<g>
			<rect x="-237.8" y="349.2" class="st1" width="190.4" height="5.5"/>
		</g>
		<g>
			<path class="st1" d="M-279.2,339.8c-0.5-1.3-1.3-2.3-2.2-3.1c-0.9-0.8-2-1.6-3.1-2.2c-1.2-0.6-2.4-1.1-3.7-1.5l-2.4-0.7
				c-0.5-0.1-1-0.3-1.5-0.4c-1.3-0.4-2.5-0.7-3.7-1c-0.4-0.1-0.9-0.2-1.3-0.4c-0.7-0.2-1.3-0.4-1.8-0.7c-0.9-0.4-1.6-0.9-2.1-1.5
				c-0.5-0.6-0.8-1.3-0.8-2.1c0-1.5,0.6-2.7,1.9-3.7c0.8-0.6,1.8-1,2.9-1.2c0.6-0.1,1.3-0.2,2-0.2c1.5,0,3,0.2,4.4,0.5
				c0.7,0.2,1.3,0.4,2,0.6c2,0.8,3.8,1.9,5.3,3.4l4.1-5.2c-3-2.9-6.8-4.7-11.3-5.3v-4h-6.4v3.9c-3.1,0.4-5.8,1.4-7.9,3.2
				c-2.7,2.2-4.1,5-4.1,8.4c0,1.6,0.3,3,0.8,4.2c0.5,1.2,1.3,2.3,2.2,3c0.9,0.8,1.9,1.5,3.1,2.1c1.2,0.6,2.4,1.1,3.7,1.4
				c0.7,0.2,1.5,0.4,2.2,0.6c0.6,0.2,1.1,0.3,1.7,0.5c1.3,0.4,2.5,0.7,3.7,1c0.4,0.1,0.7,0.2,1.1,0.3c0.7,0.2,1.4,0.5,2,0.8
				c0.9,0.4,1.6,1,2.2,1.6c0.5,0.7,0.8,1.5,0.8,2.4c0,1.5-0.7,2.8-2,3.9c-0.8,0.6-1.8,1.1-3,1.3c-0.9,0.2-1.9,0.3-3,0.3
				c-1.2,0-2.3-0.1-3.4-0.3c-1.3-0.2-2.6-0.7-3.8-1.2c-2.2-1-4-2.4-5.6-4l-3.9,5.4c3.4,3.6,7.8,5.7,13.3,6.2v3.4h6.4v-3.4
				c1.3-0.2,2.5-0.4,3.6-0.8c2-0.6,3.7-1.6,4.9-2.7c1.2-1.2,2.2-2.5,2.8-3.9c0.6-1.5,0.9-3,0.9-4.8
				C-278.4,342.5-278.6,341-279.2,339.8z"/>
			<g>
				<path class="st1" d="M-294.3,367.5c-17.7,0-32.1-14.4-32.1-32.1c0-17.7,14.4-32.1,32.1-32.1c17.7,0,32.1,14.4,32.1,32.1
					C-262.3,353.1-276.7,367.5-294.3,367.5z M-294.3,306.2c-16.1,0-29.2,13.1-29.2,29.2c0,16.1,13.1,29.2,29.2,29.2
					s29.2-13.1,29.2-29.2C-265.1,319.3-278.2,306.2-294.3,306.2z"/>
			</g>
		</g>
		<circle class="st5" cx="-227.3" cy="358.1" r="35.2"/>
		<g>
			<g>
				<path class="st1" d="M-227.3,387.3c-15.9,0-28.8-13-28.8-29.1s12.9-29.1,28.8-29.1s28.8,13,28.8,29.1S-211.4,387.3-227.3,387.3z
					 M-227.3,332.2c-14.2,0-25.7,11.7-25.7,26s11.5,26,25.7,26s25.7-11.7,25.7-26S-213.1,332.2-227.3,332.2z"/>
			</g>
			<path class="st1" d="M-214.4,357.9h-11.7v-11.6c0-0.8-0.7-1.5-1.5-1.5c-0.8,0-1.5,0.7-1.5,1.5v13.1c0,0.8,0.7,1.5,1.5,1.5
				c0,0,0.1,0,0.1,0c0,0,0.1,0,0.1,0h12.9c0.8,0,1.5-0.7,1.5-1.5S-213.6,357.9-214.4,357.9z"/>
		</g>
		<path class="st1" d="M-250.8,282.8l-5.3-6.7l-0.9,5.1c-9.5-1-18.9,4.3-22.8,13.6c-1.4,3.4-1.9,6.9-1.6,10.4c0-0.1,0.1-0.2,0.1-0.3
			c3.8-9.2,13.2-14.5,22.6-13.6l-0.8,4.7l5.8-3.7l7-4.4L-250.8,282.8z"/>
		<g>
			<path class="st1" d="M-313.1,373.2L-313.1,373.2c-0.7-0.5-0.9-1.5-0.4-2.2l2.6-3.7c0.5-0.7,1.5-0.9,2.2-0.4l0,0
				c0.7,0.5,0.9,1.5,0.4,2.2l-2.6,3.7C-311.4,373.5-312.4,373.7-313.1,373.2z"/>
		</g>
		<g>
			<path class="st1" d="M-307.4,375.1L-307.4,375.1c-0.7-0.5-0.9-1.5-0.4-2.2l2.6-3.7c0.5-0.7,1.5-0.9,2.2-0.4l0,0
				c0.7,0.5,0.9,1.5,0.4,2.2l-2.6,3.7C-305.7,375.4-306.7,375.6-307.4,375.1z"/>
		</g>
	</g>
</g>
<g>
	<polyline class="st6" points="49.1,53.4 154.6,51.7 199,98.6 199.6,244.2 	"/>
	<path class="st7" d="M83,216.2c-1.2-1.5-2.5-3-3.7-4.5c-3.3-4-5.3-8.7-6.5-13.7c-0.6-2.3-1-4.7-1.5-7c-0.3-1.6-0.6-3.3-0.9-4.9
		c-0.6-4.2-1.1-8.3-1.6-12.5c-0.6-4.7-2.6-8.5-6.2-11.6c-1.7-1.5-3.7-2.6-5.8-3.3c-1.2-0.4-1.3-1-1.3-2.1c0-3.4-1.4-6-4.5-7.6
		c-3.9-2-8.7,0.1-10.3,3.8c-0.7,1.5-0.7,3.1-0.7,4.6c0,0.4,0,0.7-0.5,0.9c-1.9,0.9-3.8,1.8-5.6,3c-3.4,2.2-5.7,5.4-6.6,9.3
		c-0.8,3.7-1.2,7.4-1.7,11.2c-0.9,7-1.8,13.9-4.2,20.6c-0.9,2.3-1.9,4.6-3.2,6.7c-1.8,2.7-3.9,5.1-5.9,7.6c-2.2,2.7-3.6,5.8-4.5,9.2
		c-0.9,3.2-1.1,6.6-1.1,9.9c0,2.7,1.1,3.9,3.9,3.9c7.2,0,14.5,0,21.7,0c1.4,0,1.4,0,1.8,1.4c1.2,4.1,3.8,7.1,7.6,8.9
		c8.3,3.8,17.6-0.4,20.2-9.3c0.2-0.7,0.5-0.9,1.2-0.9c3.7,0,7.5,0,11.2,0c3.7,0,7.4,0,11,0c2.5,0,3.8-1.2,3.7-3.8
		c-0.1-2.3-0.2-4.6-0.5-6.8C87.8,224.2,86,220,83,216.2z"/>
	<path class="st8" d="M139.9,170.6c-6.9,0-13.9,0-20.8,0c-10.3,0-20.5,0-30.8,0c-2.4,0-4.2,2.3-3.6,4.7c0.4,1.8,1.9,2.9,4.2,2.9
		c13.7,0,27.5,0,41.2,0c13.6,0,27.1,0,40.7,0c0.5,0,1,0,1.5,0c1.6-0.1,3.2-1.8,3.3-3.4c0.1-2.4-1.6-4.2-4.1-4.2
		C161,170.6,150.4,170.6,139.9,170.6z"/>
	<path class="st8" d="M175.4,146c-0.5-1.5-1.8-2.6-3.4-2.6c-2,0-4,0-6.1,0c-11.9,0-23.9,0-35.8,0c0,0,0,0,0,0c-11.9,0-23.7,0-35.6,0
		c-2.1,0-4.3,0-6.4,0c-1.5,0-2.8,1.1-3.3,2.5c-0.8,2.6,1.1,5,3.9,5c5.8,0,11.7,0,17.5,0c21.8,0,43.5,0,65.3,0c0.8,0,1.8-0.3,2.5-0.8
		C175.4,149.3,175.9,147.6,175.4,146z"/>
	<path class="st8" d="M135.9,205.5C135.9,205.5,135.9,205.5,135.9,205.5c11.5,0,23.1,0,34.6,0c0.4,0,0.9,0,1.3,0
		c2.5-0.2,4.2-2.2,3.8-4.5c-0.4-1.9-2-3.1-4.4-3.1c-12,0-24,0-36,0c-11.5,0-22.9,0-34.4,0c-0.6,0-1.3,0.1-1.9,0.2
		c-1.1,0.3-1.9,1.1-2.3,2.2c-1,2.7,0.9,5.2,3.9,5.2C112.3,205.5,124.1,205.5,135.9,205.5z"/>
	<path class="st9" d="M203.4,240.4c0-36.5,0-73,0-109.6c0-10.7,0-21.5,0-32.2c0-1.3-0.4-2.3-1.3-3.2c-1.1-1.1-2.2-2.2-3.3-3.3
		c-4.9-5-9.9-9.9-14.8-14.9c-5.5-5.5-11-11-16.5-16.5c-3.4-3.4-6.8-6.8-10.2-10.3c-1.1-1.1-2.3-1.7-3.9-1.7c-8.4,0.1-16.7,0-25.1,0
		c-20.3,0-40.6,0.1-60.9,0.1c-6.3,0-12.6-0.1-18.9,0c-0.8,0-1.7,0.2-2.4,0.5c-1.5,0.8-1.8,2.2-1.8,3.7c0,14.3,0,28.6,0,42.9
		c0,12.7,0,25.3,0,38c0,0.4,0,0.8,0,1.1c0.2,1.9,1.6,3.3,3.3,3.5c2,0.2,3.6-0.9,4.1-2.8c0.2-0.7,0.1-1.4,0.1-2.1
		c0-25.3,0-50.5,0-75.8c0-0.5,0-0.9,0-1.5c32.8,0,65.6,0,98.3,0c0,0.5,0,0.9,0,1.3c0,13.3,0,26.6,0,40c0,2.2,1.7,4.5,4.5,4.5
		c13.4-0.1,26.7,0,40.1,0c0.4,0,0.7,0,1.2,0c0,45.2,0,90.3,0,135.5h-94.8c-2,0-3.7,1.7-3.7,3.7v1.1c0,2,1.7,3.7,3.7,3.7h98.7
		c2,0,3.7-1.7,3.7-3.7v-1.1C203.6,241,203.5,240.7,203.4,240.4z"/>
</g>
<g>
	<line class="st10" x1="-460.5" y1="430.7" x2="-336.5" y2="430.7"/>
	<g>
		<g>
			<rect x="-445" y="413.3" class="st11" width="6.4" height="17.4"/>
		</g>
		<g>
			<rect x="-358.4" y="413.3" class="st11" width="6.4" height="17.4"/>
		</g>
	</g>
	<line class="st12" x1="-417.6" y1="359.8" x2="-368.5" y2="359.8"/>
	<line class="st12" x1="-417.6" y1="309" x2="-368.5" y2="309"/>
	<line class="st12" x1="-417.6" y1="334.4" x2="-368.5" y2="334.4"/>
	<polyline class="st13" points="-448.9,307.3 -443.8,312.4 -429.9,298.4 	"/>
	<polyline class="st13" points="-448.9,358.1 -443.8,363.2 -429.9,349.2 	"/>
	<polyline class="st13" points="-448.9,332.7 -443.8,337.8 -429.9,323.8 	"/>
	<path class="st11" d="M-321.9,409.9h-175.4c-6.3,0-11.3-5.1-11.3-11.3v-4.4l0,3.2l188.1-0.4c0.7-2.2,1.6-4.4,2.7-6.4l-190.8,0.4
		V284.3c0-6.3,5.1-11.3,11.3-11.3h197.5c6.3,0,11.3,5.1,11.3,11.3v88.6c0.1,0,0.3,0,0.4,0c2,0,4.1,0.2,6,0.5v-89.1
		c0-9.8-8-17.8-17.8-17.8h-197.5c-9.8,0-17.8,8-17.8,17.8v114.2c0,9.8,8,17.8,17.8,17.8h176.6C-321.3,414.2-321.7,412.1-321.9,409.9
		z"/>
	<circle class="st14" cx="-312.5" cy="378.4" r="39.5"/>
	<g>
		<defs>
			
				<ellipse id="SVGID_3_" transform="matrix(1.857960e-03 -1 1 1.857960e-03 -690.6309 64.0905)" cx="-313.2" cy="378" rx="33.8" ry="33.8"/>
		</defs>
		<clipPath id="SVGID_4_">
			<use xlink:href="#SVGID_3_"  style="overflow:visible;"/>
		</clipPath>
		<g class="st15">
			<g>
				<path class="st11" d="M-313.2,380.8c-7.8,0-14.1-6.3-14.1-14.1c0-7.8,6.3-14.1,14.1-14.1c7.8,0,14.1,6.3,14.1,14.1
					C-299.1,374.5-305.4,380.8-313.2,380.8z M-313.2,358.3c-4.7,0-8.5,3.8-8.5,8.4s3.8,8.5,8.4,8.5s8.5-3.8,8.5-8.4
					C-304.7,362.1-308.5,358.3-313.2,358.3z"/>
			</g>
			<g>
				<path class="st11" d="M-307.7,420.7l-11.3,0c-10.7,0-19.3-8.7-19.3-19.4c0-10.7,8.7-19.3,19.4-19.3l11.3,0
					c10.7,0,19.3,8.7,19.3,19.4S-297,420.7-307.7,420.7z M-318.9,387.7c-7.6,0-13.7,6.1-13.7,13.7s6.1,13.7,13.7,13.7l11.3,0
					c7.6,0,13.7-6.1,13.7-13.7c0-7.6-6.1-13.7-13.7-13.7L-318.9,387.7z"/>
			</g>
		</g>
	</g>
</g>
<g>
	<circle class="st6" cx="-268" cy="-113.6" r="63.3"/>
	<path class="st9" d="M-264.7-189.2c2.6,0.3,5.1,0.6,7.7,0.9c30.5,3.9,56.1,27.6,62.3,57.7c4.2,20.1,0.7,38.9-10.2,56.3
		c-0.7,1.1-1.5,2.2-2.3,3.2c-0.7,1-1.5,2-2.3,3.1c1.2,0.9,2.2,1.8,3.2,2.6c-4.7,4.8-9.3,9.4-14.1,14.2c-1-1.2-1.9-2.4-2.7-3.4
		c-4.3,2.4-8.4,5-12.8,7.1c-27.7,13.1-61.6,7.3-83.3-14.2c-15.2-15.1-22.6-33.5-22.3-54.8c0.5-34.9,26.1-64.9,60.4-71.1
		c3.3-0.6,6.7-0.8,10-1.2c0.5-0.1,1-0.2,1.6-0.3C-267.8-189.2-266.2-189.2-264.7-189.2z M-267.3-54.7c33.3,0,60.2-26.8,60.2-60.1
		c0.1-33.2-26.8-60.1-60-60.2c-33.4-0.1-60.3,26.8-60.3,60.2C-327.4-81.7-300.4-54.8-267.3-54.7z"/>
	<path class="st9" d="M-204.9-33.7c5.5-5.4,10.9-10.8,16.4-16.4c0.8,0.7,1.7,1.4,2.6,2.2c15.4,13.4,30.8,26.7,46.2,40.1
		c3,2.6,5.2,5.6,5.7,9.6c0.6,4.3-0.7,8.1-3.7,11.3c-1.4,1.5-2.8,3-4.4,4.3c-5.8,5.1-14.4,4.8-19.5-1c-14.5-16.5-28.8-33.2-43.2-49.7
		C-204.7-33.4-204.8-33.6-204.9-33.7z"/>
	<path class="st16" d="M-215.4-45.7c5-5,9.9-9.9,14.8-14.8c2.1,1.8,4.3,3.7,6.4,5.5c-5.2,5.2-10.4,10.4-15.7,15.7
		C-211.7-41.4-213.5-43.6-215.4-45.7z"/>
	<path class="st16" d="M-302.8-86.1c0-19.4,0-38.8,0-58.3c0.9,0,1.8,0,2.8,0c0,18.4,0,36.8,0,55.4c22.9,0,45.6,0,68.5,0
		c0,1,0,1.9,0,2.9C-255.3-86.1-279-86.1-302.8-86.1z"/>
	<path class="st9" d="M-260.3-138.4c2.7,0,5.4,0,8.2,0c0,13.7,0,27.4,0,41.2c-2.7,0-5.4,0-8.2,0
		C-260.3-110.9-260.3-124.6-260.3-138.4z"/>
	<path class="st9" d="M-286-97.2c-2.8,0-5.4,0-8.2,0c0-12.5,0-25,0-37.5c2.7,0,5.4,0,8.2,0C-286-122.2-286-109.8-286-97.2z"/>
	<path class="st9" d="M-277.3-97.2c0-10.4,0-20.7,0-31c2.8,0,5.5,0,8.3,0c0,10.4,0,20.6,0,31C-271.7-97.2-274.5-97.2-277.3-97.2z"/>
	<path class="st9" d="M-235.1-97.2c-2.8,0-5.4,0-8.2,0c0-16.5,0-32.9,0-49.5c2.7,0,5.4,0,8.2,0C-235.1-130.3-235.1-113.9-235.1-97.2
		z"/>
	<path class="st5" d="M-261.1-164.6c0,0,17-3.9,27.4,18.1s17.9,5.2,4.3-10.9s-32.4-9.3-32.4-9.3"/>
</g>
<g>
	<path class="st1" d="M604.4,377.7c0,3.8,0,6.5,0,9.7c-58.3,0-116.5,0-175.1,0c0-58.2,0-116.4,0-174.9c2.9,0,5.8,0,9.3,0
		c0,54.8,0,109.7,0,165.2C494.1,377.7,549,377.7,604.4,377.7z"/>
	<path class="st1" d="M493.7,235.9c4.7,0,9,0,13.4,0c0,30,0,59.7,0,89.7c-4.6,0-8.8,0-13.4,0C493.7,295.7,493.7,266,493.7,235.9z"/>
	<path class="st1" d="M473,342.9c0-24.3,0-48.1,0-72.3c4.5,0,8.8,0,13.4,0c0,24,0,48,0,72.3C482,342.9,477.7,342.9,473,342.9z"/>
	<path class="st1" d="M556.2,256.6c4.4,0,8.6,0,13.3,0c0,24,0,48,0,72.3c-4.4,0-8.6,0-13.3,0C556.2,304.9,556.2,280.9,556.2,256.6z"
		/>
	<path class="st1" d="M527.8,335.9c-4.6,0-8.9,0-13.4,0c0-21,0-41.6,0-62.6c4.5,0,8.8,0,13.4,0C527.8,294.1,527.8,314.8,527.8,335.9
		z"/>
	<path class="st1" d="M576.8,335.9c0-18.6,0-36.8,0-55.4c4.5,0,8.8,0,13.4,0c0,18.3,0,36.7,0,55.4
		C585.8,335.9,581.6,335.9,576.8,335.9z"/>
	<path class="st1" d="M452.1,363.8c0-14.3,0-28.2,0-42.4c4.5,0,8.7,0,13.4,0c0,14,0,28.1,0,42.4
		C461.2,363.8,456.9,363.8,452.1,363.8z"/>
	<path class="st1" d="M548.6,322c-4.5,0-8.8,0-13.3,0c0-13.1,0-26,0-39.2c4.4,0,8.7,0,13.3,0C548.6,295.8,548.6,308.6,548.6,322z"/>
</g>
</svg>
