<svg id="Layer_1" data-name="Layer 1" xmlns="http://www.w3.org/2000/svg" xmlns:xlink="http://www.w3.org/1999/xlink" viewBox="0 0 298 216.89">
  <defs>
    <clipPath id="clip-path" transform="translate(-2 -42.23)">
      <circle cx="78.7" cy="124.49" r="49.18" fill="none"/>
    </clipPath>
  </defs>
  <title>open_account_icon</title>
  <g>
    <rect x="156.9" y="79.92" width="107.14" height="69.08" fill="#d0f4f7"/>
    <g>
      <path d="M277.3,233.67H24.7A22.73,22.73,0,0,1,2,211v-146a22.73,22.73,0,0,1,22.7-22.7H277.3A22.73,22.73,0,0,1,300,64.93V211A22.73,22.73,0,0,1,277.3,233.67ZM24.7,50.42A14.52,14.52,0,0,0,10.2,64.93V211A14.52,14.52,0,0,0,24.7,225.48H277.3A14.52,14.52,0,0,0,291.8,211v-146A14.52,14.52,0,0,0,277.3,50.42Z" transform="translate(-2 -42.23)" fill="#43b6c7"/>
      <line x1="69.67" y1="209.89" x2="228.33" y2="209.89" fill="none" stroke="#43b6c7" stroke-miterlimit="10" stroke-width="14"/>
      <g>
        <rect x="89.58" y="187.64" width="8.2" height="22.25" fill="#43b6c7"/>
        <rect x="200.23" y="187.64" width="8.2" height="22.25" fill="#43b6c7"/>
      </g>
      <g>
        <circle cx="76.7" cy="82.26" r="49.18" fill="#d0f4f7"/>
        <g clip-path="url(#clip-path)">
          <g>
            <path d="M78.7,128.58a20.49,20.49,0,1,1,20.49-20.49A20.51,20.51,0,0,1,78.7,128.58Zm0-32.79A12.29,12.29,0,1,0,91,108.09,12.31,12.31,0,0,0,78.7,95.8Z" transform="translate(-2 -42.23)" fill="#43b6c7"/>
            <path d="M86.89,186.54H70.5a28.1,28.1,0,0,1,0-56.2H86.89a28.1,28.1,0,1,1,0,56.2Zm-16.39-48a19.91,19.91,0,0,0,0,39.81H86.89a19.91,19.91,0,0,0,0-39.81Z" transform="translate(-2 -42.23)" fill="#43b6c7"/>
          </g>
        </g>
      </g>
      <rect x="156.9" y="79.92" width="107.14" height="8.2" fill="#43b6c7"/>
      <rect x="156.9" y="98.65" width="107.14" height="8.2" fill="#43b6c7"/>
      <rect x="156.9" y="119.73" width="107.14" height="8.2" fill="#43b6c7"/>
      <rect x="156.9" y="140.8" width="107.14" height="8.2" fill="#43b6c7"/>
      <g>
        <rect x="157.49" y="34.83" width="31.61" height="31.61" fill="#d0f4f7"/>
        <rect x="194.96" y="34.83" width="31.61" height="31.61" fill="#d0f4f7"/>
        <rect x="232.43" y="34.83" width="31.61" height="31.61" fill="#d0f4f7"/>
      </g>
      <rect x="10.2" y="200.89" width="281.61" height="8.2" transform="translate(-2.43 -41.91) rotate(-0.12)" fill="#43b6c7"/>
    </g>
  </g>
</svg>
