<svg id="Layer_1" data-name="Layer 1" xmlns="http://www.w3.org/2000/svg" viewBox="0 0 235.84 300.13">
  <title>passport_icon</title>
  <g>
    <circle cx="107.75" cy="129" r="58.14" fill="#d0f4f7"/>
    <path d="M53.88,155.31a61.57,61.57,0,0,0,111.65,0,3.2,3.2,0,0,0,.28-.61,61.52,61.52,0,0,0-2-54.65,3.21,3.21,0,0,0-.36-.66,61.55,61.55,0,0,0-107.56,0,3.21,3.21,0,0,0-.37.68,61.14,61.14,0,0,0-7.36,26.51c0,.05,0,.11,0,.16q-.05,1.3-.06,2.61a61.22,61.22,0,0,0,5.46,25.35A3.14,3.14,0,0,0,53.88,155.31Zm82.71,22.16a181.74,181.74,0,0,0,6-20.6h14.88A55.56,55.56,0,0,1,136.59,177.47Zm24.07-27H143.91a124.55,124.55,0,0,0,2-20.48h19A54.81,54.81,0,0,1,160.66,150.46Zm3.91-26.88H145.8a122,122,0,0,0-2.38-19.14h15.51A54.72,54.72,0,0,1,164.57,123.57ZM155.12,98H142a166.65,166.65,0,0,0-5.26-16.8A55.58,55.58,0,0,1,155.12,98ZM112.9,74.25a54.8,54.8,0,0,1,15.65,3.22,3.15,3.15,0,0,0,.2.88A174.9,174.9,0,0,1,135.4,98H112.9V74.25Zm0,30.19H137a115,115,0,0,1,2.53,19.14H112.9V104.44Zm0,25.54h26.68a117.37,117.37,0,0,1-2.13,20.48H112.9V130Zm0,26.88h23.18a190.13,190.13,0,0,1-7.36,23.53,3.2,3.2,0,0,0-.18.76,54.73,54.73,0,0,1-15.65,3.25Zm-51,0H76.78a181.8,181.8,0,0,0,6,20.6A55.57,55.57,0,0,1,61.91,156.86ZM106.5,184.4a54.76,54.76,0,0,1-15.65-3.25,3.2,3.2,0,0,0-.18-.76,190.13,190.13,0,0,1-7.36-23.53H106.5V184.4Zm0-33.95H81.94A117.31,117.31,0,0,1,79.81,130H106.5v20.48Zm0-26.88H79.92a115,115,0,0,1,2.53-19.14H106.5v19.14Zm0-25.54H84a174.86,174.86,0,0,1,6.65-19.68,3.17,3.17,0,0,0,.2-.88,54.8,54.8,0,0,1,15.65-3.22V98ZM82.7,81.24A166.63,166.63,0,0,0,77.44,98H64.29A55.58,55.58,0,0,1,82.7,81.24Zm-22.23,23.2H76a122,122,0,0,0-2.38,19.14H54.83A54.7,54.7,0,0,1,60.47,104.44ZM73.5,130a124.54,124.54,0,0,0,2,20.48H58.74A54.84,54.84,0,0,1,54.53,130h19Z" transform="translate(-1.74 0)" fill="#43b6c7"/>
    <path d="M216.37,0h-.24C198.79,1.33,178.5,2.67,157,4.08,112.12,7,61.36,10.36,23.22,14.6A22.81,22.81,0,0,0,1.74,37.33v240a22.82,22.82,0,0,0,22.8,22.8H194.87a22.82,22.82,0,0,0,22.22-17.77,21.21,21.21,0,0,0,20.49-21.16V21.2A21.22,21.22,0,0,0,216.37,0Zm-8.32,277.34a13.21,13.21,0,0,1-13.19,13.19H24.53a13.21,13.21,0,0,1-13.19-13.19v-240A13.21,13.21,0,0,1,24.53,24.14H194.87a13.21,13.21,0,0,1,13.19,13.19v240Zm23.11-16.13a14.81,14.81,0,0,1-13.5,14.73V37.33a22.82,22.82,0,0,0-22.8-22.8H97.68c20-1.45,40.43-2.8,59.76-4.06,21.44-1.41,41.7-2.74,59.05-4.06A14.81,14.81,0,0,1,231.17,21.2Z" transform="translate(-1.74 0)" fill="#43b6c7"/>
    <rect x="34.47" y="220.44" width="147.16" height="43.6" rx="16.1" ry="16.1" fill="#43b6c7"/>
  </g>
</svg>
