<?xml version="1.0" encoding="utf-8"?>
<!-- Generator: Adobe Illustrator 21.0.2, SVG Export Plug-In . SVG Version: 6.00 Build 0)  -->
<svg version="1.1" id="Web_and_Development" xmlns="http://www.w3.org/2000/svg" xmlns:xlink="http://www.w3.org/1999/xlink"
	 x="0px" y="0px" viewBox="0 0 1178 1178" style="enable-background:new 0 0 1178 1178;" xml:space="preserve">
<style type="text/css">
	.st0{fill:#47D3EA;}
	.st1{fill:#FF651F;}
	.st2{fill:#DBDBDB;}
	.st3{fill:#CECECC;}
	.st4{fill:#0051C4;}
	.st5{fill:#E46400;}
	.st6{fill:#C0003B;}
	.st7{fill:#FFEA50;}
	.st8{fill:#EFEFEF;}
	.st9{fill:#D8D8D8;}
	.st10{fill:#EAEAEA;}
	.st11{fill:#FF1A2C;}
	.st12{fill:#FF2C4D;}
	.st13{fill:#FFD74C;}
	.st14{fill:#11C1A7;}
	.st15{fill:#E2E2E2;}
	.st16{opacity:0.1;fill:#231F20;}
	.st17{fill:#FF2C0D;}
	.st18{fill:#0A4E7C;}
	.st19{fill:#E2E2E0;}
	.st20{fill:#FFA931;}
	.st21{opacity:0.1;}
	.st22{fill:#4C4C4B;}
	.st23{fill:#ECF0F1;}
	.st24{opacity:0.2;}
	.st25{fill:#E2C59D;}
	.st26{fill:#F9D5A5;}
	.st27{fill-rule:evenodd;clip-rule:evenodd;fill:#0B2E44;}
	.st28{opacity:0.8;fill-rule:evenodd;clip-rule:evenodd;fill:#39C3DE;}
	.st29{opacity:0.1;fill-rule:evenodd;clip-rule:evenodd;}
	.st30{fill:#4DABCF;}
	.st31{fill:#D8472A;}
	.st32{fill:#0093A2;}
	.st33{opacity:0.5;fill:#FFFFFF;}
	.st34{fill:#9AC900;}
	.st35{fill:#C3DF00;}
	.st36{fill:#DFC300;}
	.st37{fill:#E85F00;}
	.st38{fill:#E53400;}
	.st39{fill:#34495E;}
	.st40{fill:#0CC1B0;}
</style>
<g>
	<circle id="Background_2_24_" class="st0" cx="580.6" cy="650.8" r="460.2"/>
	<path class="st1" d="M581.5,51.3c0,0-105.1,92.7-44.9,226.2l46.9-0.4l46.9-0.4C688.1,142.2,581.5,51.3,581.5,51.3z"/>
	<path class="st2" d="M559.2,310.8c0,0-9.5,175.7-27.1,241.8l110-3.1c0,0-37.9-176-34.1-239.1L559.2,310.8z"/>
	<path class="st3" d="M561.5,316.2c0,0,16.4,116.2,5.4,162.2c-11.1,46-13.8,92.8-13.8,92.8l68.3-10.1c0,0-30.5-202.5-14.4-244.8
		C623.1,273.8,561.5,316.2,561.5,316.2z"/>
	<path class="st4" d="M586.9,277.1l-1,0l-49.4,0.4c0,0,12.6,15.8,23.2,19.1l26.4-0.2l1,0l23-0.2c9.2-3.4,20.1-19.4,20.1-19.4
		L586.9,277.1z"/>
	<polygon class="st5" points="608,310.3 559.2,310.8 559.1,296.6 607.9,296.2 	"/>
	<polygon class="st6" points="603,317 564.4,317.3 564.4,310.7 602.9,310.4 	"/>
	<polygon class="st7" points="529,203.5 480.7,272.2 547.8,269.2 	"/>
	<polygon class="st7" points="632.2,197.9 681.6,265.7 614.6,264 	"/>
	<g>
		<g>
			<path class="st8" d="M704.6,518.7c-3.8,0-7.6,0.4-11.1,1.3c-11.3-48.2-48.5-83.6-92.6-83.6c-32.5,0-61.3,19.2-78.7,48.6
				c-11.1-5.4-23.5-8.5-36.7-8.5c-45.7,0-82.8,36.6-82.8,81.9c0,6.4,0.8,12.7,2.2,18.7h102.3H566h91.7h36.7h56.9
				c0.8-3.5,1.2-7.1,1.2-10.9C752.6,540,731.1,518.7,704.6,518.7z"/>
		</g>
		<g>
			<path class="st9" d="M607.5,600.8c-3.8,0-7.6,0.4-11.1,1.3c-11.3-48.2-48.5-83.6-92.6-83.6c-32.5,0-61.3,19.2-78.7,48.6
				c-11.1-5.4-23.5-8.4-36.7-8.4c-45.7,0-82.8,36.6-82.8,81.9c0,6.4,0.8,12.7,2.2,18.7h102.3H469h91.7h36.7h56.9
				c0.8-3.5,1.2-7.1,1.2-10.9C655.6,622.1,634.1,600.8,607.5,600.8z"/>
		</g>
		<g>
			<path class="st10" d="M563.2,600.8c3.8,0,7.6,0.4,11.1,1.3c11.3-48.2,48.5-83.6,92.6-83.6c32.5,0,61.3,19.2,78.7,48.6
				c11.1-5.4,23.5-8.4,36.7-8.4c45.7,0,82.8,36.6,82.8,81.9c0,6.4-0.8,12.7-2.2,18.7H760.6h-58.9H610h-36.7h-56.9
				c-0.8-3.5-1.2-7.1-1.2-10.9C515.1,622.1,536.6,600.8,563.2,600.8z"/>
		</g>
	</g>
	<polygon class="st11" points="584.2,373.3 600.1,345.1 616.1,316.9 583.7,317.2 551.3,317.4 567.7,345.4 	"/>
	<polygon class="st12" points="583.3,356.6 595.1,336.8 606.8,317 582.9,317.2 559,317.4 571.1,337 	"/>
	<polygon class="st13" points="582.8,336 590.8,326.5 598.9,317 582.6,317.2 566.3,317.3 574.5,326.7 	"/>
	<g id="Globe_5_">
		<ellipse class="st14" cx="303.8" cy="757.8" rx="161.6" ry="161.6"/>
		<path class="st15" d="M396.8,839.7c-1,0-2.2-1.9-3.6-3.2c-1.3-1.2-8.4,0.3-10.1,0.3c-1.7,0-2.6-0.7-4.2-1.7
			c-1.6-1-3.3,0.2-4.5,0.5c-1.2,0.3-1.8-0.8-1-2.2c0.7-1.4-2.5-1-5-0.5c-2.5,0.5-1.5,1.7-3.5,1c-2-0.7,2.3-2.9,3.7-4.6
			c1.4-1.7-0.3-4.6-1.1-4.8c-0.8-0.3-2.4-2.7-4.8-4.6c-2.5-1.9-4.3-0.5-7.2-0.5c-2.9,0-3.6-1.3-5-2.3c-1.4-1-1-3.1-6.4-5.9
			c-5.4-2.9-3.1-1.3-2.8-1.8c0.3-0.5,0.9-0.5-1-1.4c-1.9-0.9-3.5,1-5.4,1.8c-1.9,0.7-4.2,0.5-5,0.3c-0.8-0.2-1.8-2.2-2.7-2.6
			c-1-0.4-1.8-1.3-2.4-2.2c-0.6-1-2.6-0.5-2.5,1.2c0.1,1.8-1,2.8-2.9,3.5c-1.9,0.7-1.1-2.1-1.1-3c0-0.9,1.7-1.8,1.8-3.1
			c0.1-1.4-1.7,1.3-3.5,3.2c-1.8,1.9-3,0.1-6.4,0.5c-3.4,0.3-1.8,3.9-1.8,5.9s-2.9,2.7-3.3,2.2c-0.5-0.5-0.5-1.6-1.5-1.6
			c-1,0-1.3-1.6-1.6-2.2c-0.3-0.6-3.7-1.2-5,1.2c-1.3,2.5-2.7,0.5-4.2,0c-1.6-0.5-4.6-6.6-4-7.7c0.7-1.1,0.7-1.6-0.1-2.3
			c-0.7-0.7-0.4-1.3,0.2-2.5c0.6-1.2,2.2-2.2-1-4.4c-3.3-2.1-8.4-0.3-11.1-0.5c-2.7-0.3-0.5-2.2,0-2.8c0.5-0.5,1.6-2.5,2.2-4.1
			c0.5-1.6-0.5-1.8,0.5-3.9c1-2.2,0.7-3.7-1.5-3.8c-2.2-0.1-4.2,1.5-4.4,4.6c-0.1,3.1-3.3,3-10.5,2.5c-7.2-0.5-6.5-6.3-7.4-10.9
			c-0.8-4.6,1.5-8.6,1.6-10.9c0.1-2.3,3-4.9,5.7-6.9c2.7-2,6.6-1.5,6.6-1.5s5.2,1.1,6.9,1c1.6-0.1,0.3-1.4,0.4-3
			c0.1-1.6,8-0.5,9.4-0.5c1.4,0,1.1,1.1,2.6,2.6c1.5,1.5,1.2-1.5,2.7-1.2c1.5,0.3,0.3,1.2,2.5,4.8c2.2,3.5,1.8,4.8,2.5,7.8
			c0.7,3,2.2,1.5,3.1-1c1-2.5-1.1-10.4-1.6-14.4c-0.5-4.1,3.1-2.6,6.7-6.4c3.5-3.8,7.2-4.1,8.9-6.8c1.6-2.7-0.1-7.2,0.8-4.8
			c1,2.5,1.1-1,1.2-3.5c0.1-2.6,1.5-3.7,2.2-2.2c0.7,1.5,1.5,0.4,2-2.2c0.5-2.6,2.9-5.2,3.9-6.5s3.3-0.1,6.3,0
			c3,0.1,0.1-0.5-0.7-3.5c-0.9-3,1.9-4,3.1-4s6.1-2.7,7.2-3.3c1.1-0.7,2.5-0.6,4.4,0.8c1.9,1.4-1.8,0.3-3,2.5
			c-1.2,2.1,1.8,2.4,3.1,0.5c1.3-1.9,4.2-1,6.6-3.5c2.5-2.5-2.8-1.6-3.9-1.9c-1.2-0.3-1.9-3.2-1.8-4.1c0.1-0.9-0.7-3.3-1.9-4.3
			c-1.2-1-4.4,0.1-7.2,1.2c-2.8,1.1-3.6,2.1-3.4,0.8c0.2-1.3,4.8-4.4,6-4.6c1.2-0.2,4.7-1.6,6.3-3.5c1.6-1.8,6.3,0.3,8.5,0.5
			c2.1,0.2,5.2,1.4,6.3-0.1c1.1-1.5,2-1.5,4.3-1.8c2.2-0.3,2.7-3.6,1.1-5s-3.8-6.6-6.9-8.3c-3.2-1.6-1.9-2.7-0.9-4
			c1-1.3-3.2-4.6-4.6-8c-1.4-3.4,0.1-4.2-1.5-4.4c-1.6-0.1-0.5,2.5-1.4,4.8c-0.8,2.3-4.2,1.1-4.8,1c-0.5-0.1-2.5-2.5-2.3-4.6
			c0.1-2.2,0.7-4.1,0-4.8c-0.7-0.7-2.2-0.1-3-1c-0.8-0.8-1.9-3.3-3.1-4.4c-1.2-1.1-4-0.4-5.9-0.8c-1.9-0.4-3.7,0.3-3.3,1.5
			c0.4,1.2,0.1,2.9-0.5,7.2c-0.7,4.4-2,2-3.1,3.1c-1.1,1.1,0.7,1.4,1.6,4.5c1,3.1-1.2,5.4-2.2,6.4c-1,1-4.1,1.6-6.1,2.3
			c-2,0.7,0.1,3.3,0.4,5.5c0.3,2.2-1.8,5.3-2.9,5.7c-1.1,0.4-4.6-4.1-4.9-6.7c-0.3-2.6,2.2-5.4,1.1-6.3c-1.1-0.8-5.3-0.8-9.3-4.1
			c-4-3.3-8.7-5-10.4-9c-1.6-3.9,1.6-7.5,3-10.3c1.4-2.9,4.1-2.5,8.4-4.1c4.4-1.6,1.6-3.1,2.7-3.1s4.6-0.5,5.4-1.6
			c0.8-1.1,2.7-2.2,4.5-3.1c1.8-1,2.2-2.9,2.9-3.9c0.7-1.1,2.6,1.5,4.8,1.2c2.2-0.3,2,0.4,5-1c3-1.4,0.4-2.2,0.1-3.7
			c-0.3-1.5,1.9-1.1,1.2-2.7c-0.7-1.6-3.7-3.3-5.7-3c-2,0.3,0.6,2.2-1.4,4.1c-2,1.9-1.6,3.1-2.3,3.4c-0.7,0.3-3.7-0.7-3.7-1.6
			s1.4-1.8,1.9-2.2c0.5-0.4-0.4-2.5-0.7-3.1c-0.3-0.7-1.5,0.8-1.8,2.2c-0.3,1.4-1.8,1.5-1.4,0.3c0.4-1.2-1.1-2.7-2.2-4.2
			c-1.1-1.5,1.1-1.4,2.3-3.3c1.2-1.9,0.8-2.7-0.8-3.7c-1.6-1-3.5,0.5-5.4,2.6c-1.9,2-1.2,1.9-0.5,4.5c0.7,2.6,0,0,0.4,2.5
			c0.4,2.5-3.1,2.2-3.1,2.2s-1.8-0.1-2.5-0.4c-0.7-0.3,0-1.2-1.5-1.8c-1.5-0.5-2.2,1.9-2.2,1.9s-4.1-0.1-5.7-0.1
			c-1.6,0-3.9-0.8-4.4-1.5c-0.4-0.7-2.5-2.1-4.2-2.1c-1.8,0-2.5,1.5-2.5,3.3s-3,1.9-2.9,1.1c0.1-0.8-0.4-3.7-0.4-3.7l-1.6,1
			c0,0-4.5-0.3-6-0.4c-1.5-0.1-1-2-1-2l3-0.3l0.4-0.7c0,0-0.8-0.8-1.6-1.1c-0.8-0.3-4.4-1-4.4-1l-1.1-1.5c0,0-1.6,0-2.3,0
			s-1.8,1.4-2.3,1.4c-0.5,0-0.5-1.5-0.5-1.5l0.3-1.2c0,0,0,0-1.4,0.7c-1.4,0.7-1.9,0.1-1.9,0.1l0.5-1.4l0.1-1.5c0,0-0.8-1-0.8-0.3
			c0,0.7-1.4,2.2-2.6,2.1c-1.2-0.1-2,1.1-3.8,0.7c-1.8-0.4-5.2,0.8-7.1,2.5c-1.9,1.6-3.1,2.2-2.7,0.3c0.4-1.9-5.3-1.6-6.3-2
			c-1-0.4-3.4-0.7-5.7-1c-2.3-0.3-2.9-2.2-2.9-2.2l-0.9-3.4c-11.9,6.5-22.9,14.4-32.7,23.6c1.3,2.4,2.6,4.7,3,5c1,0.7,1.9,0,1.9,0
			s-3.8,2.6-9.9,8c-6.1,5.4-4.1,6-4.1,8.1c0,2,1.2,1.2,1.2,1.2s-4.8,4.9-6.1,6.3c-1.4,1.4-3.8,3.3-3.8,3.3l-2.5,3l1.1,0.4l14.8-12.4
			c0,0,0.9-0.2,1-0.7c0.1-0.5,0.9-2.3,1.2-2.4c0.3-0.1,1.6-2.2,1.6-2.2s0.9-0.4,2-1.4c1.1-1,2.2-2.6,3.2-2.7c0.9-0.1,0,1.3-1.6,2.7
			c-1.6,1.3-3.6,4.2-3.6,4.2s5.4-2.9,7.3-4.1c1.8-1.2,1.2-3.1,1.9-3.2c0.7-0.1,2.3,1.4,2.9,3c0.5,1.5,1.1-0.3,3.9,0
			c2.8,0.3,0.9,2.5,1.9,3.9c1,1.4,1,1.8,3.7,1.2c2.7-0.6-1,5.7-1,5.7l-0.2,2c0,0,1,1.4,1,1.6c0,0.2-1.2,3.9-1.2,3.9h2
			c0,0-0.8,1-1.8,1.6c-1,0.6,0.2,2.2,1.2,3.1c1,0.8,0,0-1.4,3.3c-1.4,3.3,0,2.3,1.6,4.5c1.6,2.2,2.7,3.3,3.9,4.7
			c1.2,1.4,0,4.7-1.2,4.9c-1.2,0.2-3.9-1.8-3.9-1.8c0.2,30.6-1.8,10.2-2.9,12.9c-1,2.7-2.5,4.1-2.5,5.7c0,1.6,0,4.1-1.6,6.3
			c-1.6,2.2-0.2,7.4,0,8c0.2,0.6,1.5,3.3,1.5,3.3s0,5.6,0,8.4c0,2.7,4.9,4.1,6.5,6.4c1.6,2.3,1.2,6.8,1.4,7.6
			c0.1,0.7,1.2,2.6,2.1,3.5c1,0.9,1,2.4,1.8,3.7c0.7,1.4-1.2,0.9-1.4,2.7c-0.2,1.8,1.7,1.8,2.7,2.3c1,0.4,2,1,1.5,2.9
			c-0.5,1.9-0.3,1.2,0.7,2.3c1,1.1,0.5,0.4,1.1,2.5c0.5,2,1.9,1.2,1.9,1.2s0,0.9,0,1.2c0,0.3,1.2,0.7,1.2,0.7l0.8-1.2
			c0,0-0.6-0.3-0.6-0.5c0-0.2-0.1-1.2-0.1-1.2l-1.8-0.7c0,0-0.3-1-0.3-1.4c0-0.4,0-1.5,0-1.8c0-0.3-0.7-0.5-0.7-0.5
			s-0.1-1.8-0.1-2.9c0-1.1-1.8-2.1-1.8-2.6c-0.1-0.5-0.2-2-0.9-3.1c-0.7-1-2.3-3.2-2.2-5.5c0.1-2.3-0.5-3.8,0.3-3.8
			c0.9,0,2.4,2.2,2.8,2.7c0.4,0.4,0.1,3.1,1.8,5.6c1.7,2.5,6.1,7.7,5.7,8.1c-0.4,0.4-1.5,0.3-0.9,1.8c0.6,1.5,2.1,1.9,3.2,2.2
			c1.1,0.3,3,6.5,4.2,8.6s-0.3,2-0.6,3.4c-0.3,1.3,0.1,2,2.1,3c2,0.9,1.6,3.2,4,3.9c2.3,0.7,6.9,3.7,8.2,4c1.2,0.3,1.1,1.4,2.7,1.5
			c1.6,0.2,1.9,0.7,2.7,1.2c0.8,0.5,3.7-0.5,4.2-1c0.5-0.4,1.1-0.3,2.6,0c1.5,0.3,5.9,4.9,7.2,6.3c1.4,1.4,2.5-0.5,3.5,0
			c1.1,0.5,3.1,1.8,3.9,1.6c0.8-0.1,0.8-0.8,1.4-0.8c0.5,0,0.1,1.1,2.2,3.7c2,2.6,1.6,3.1,1.6,3.5c0,0.4,1,2.5,2.3,2.2
			c1.4-0.3,2.7,1.2,2.7,1.2v2.3c0,0,4.6,0.3,5.6,0.5c0.9,0.3,1.1,2.3,1.5,2.6c0.4,0.3,2-1.6,1.8-2.7c-0.3-1.1,1.8-1.6,2.6-2.5
			c0.8-0.8,1.9,1,2.6,1.8c0.7,0.8,2.2,2.9,2.2,4.5c0,1.6-0.1,4.1-0.1,6.7c0,2.6-2,3.8-3.5,5.6c-1.5,1.8-2.9,2.6-3.5,3.4
			c-0.7,0.8-1.2,3.4-1,4.9c0.3,1.5,2.2,0.1,2.2,1.9c0,1.8-1.8,0.8-3.8,2.5c-2,1.6,0.3,1.8,1,3.1c0.7,1.4-1,0.3-1,1.9
			c0,1.6,2.5,1.4,4.8,2c2.3,0.7,4.8,6.7,6.1,9.8c1.4,3.1,2.7,5.9,4.1,6.4c1.4,0.5,1.5,1.8,4.4,2.5c2.9,0.7,5.1,2.9,6.7,2.9
			c1.6,0,1.6,2.8,1.1,3.9c-0.5,1.1-0.1,1.4,0.3,5.5c0.4,4.1-0.9,13.3-1.4,14.3c-0.4,1-0.3,0.8,0.4,1.6c0.7,0.8-1.2,4-1.3,5
			c-0.1,1-2,1.6-2.4,2.6c-0.4,1,0.9,1,1.2,1.8c0.3,0.9-0.5,3.1,0.3,3.9c0.8,0.8,1.6,0.5,1.8,1.8c0.2,1.3-0.8,2.5-2.1,2.5
			c-1.4,0-1.4,1.4-0.7,1c0.6-0.5,1.4,0,1.4,0l1.1,1.9c3.3-0.3,6.6-0.8,9.9-1.3c0.7-0.8,1.3-1.5,1.8-1.5c1.6-0.3,0.8-1.9-0.1-5.3
			c-1-3.4,2.3-0.5,4.4-1.4c2-0.8,1.4-3.5,4.2-3.9c2.9-0.4,6-3,7.2-4.9c1.2-1.9-0.5-2.9,3.9-2.3c4.5,0.6,8.6-5.2,12.1-9.4
			c3.5-4.2,0.4-5.6,6.7-9.5c6.3-3.9,16.4-14.7,17-18c0.6-3.4-1.1-3.5,2.5-5.8c3.6-2.3,8.1-8.9,8.5-10.7
			C398.9,842.5,397.9,839.7,396.8,839.7z"/>
		<path class="st15" d="M362.4,615.7c-5.2,0-6.3,5.2-1.6,6c4.6,0.8,14.2,0.8,15.8,7.6c1.6,6.8-4.9,8.7,0,12
			c4.9,3.3-1.1,6.8-1.1,11.4c0,4.6,2.2,8.4,5.4,10.9c3.3,2.5,6.5,5.7,6.8,7.6c0.3,1.9,3.5,1.4,3.5,1.4s-0.3-1.1,0-2.7
			c0.3-1.6,3-3.5,3-8.2s2.4-4.4,4.3-4.1c1.9,0.3,5.7-0.3,6.8,0c1.1,0.3,7.6,0.3,8.2-3c0.5-3.3-4.4-8.2-4.4-8.2s2.8-4.6,2.7-6.6
			c0-0.4-0.3-1.4-0.8-2.7c-13.1-11.7-28.2-21.3-44.6-28.2C366.5,611.4,366,615.7,362.4,615.7z"/>
		<path class="st15" d="M459.1,748.7c-9.4-7.8-15.5-7.8-16.3-5.7c-0.8,2,6.5,9.4,0,18.4c-6.5,9-11.4,12.7-9,20
			c2.5,7.4-10.3,13.9-0.6,20.4c9.6,6.5,7.6,6.5,14.5,6.1c6.8-0.4,5.9,10.4,5.4,11.9c7.9-19.1,12.3-40,12.3-62c0-0.7,0-1.3,0-2
			C464.2,753.9,462.5,751.5,459.1,748.7z"/>
		<path class="st16" d="M318.7,918.7c82.2-7.5,146.6-76.7,146.6-160.9c0-79.7-57.7-145.9-133.6-159.2
			C425.5,636.4,472.1,865.2,318.7,918.7z"/>
	</g>
	<path class="st17" d="M611.6,86.4c-15.5-22.5-30.1-35-30.1-35S567,64.1,551.9,86.9L611.6,86.4z"/>
	<g id="Speed">
		<path class="st18" d="M1002.7,879.2c18.2-29.2,28.8-63.7,28.8-100.7c0-105.3-85.3-190.6-190.6-190.6
			c-105.3,0-190.6,85.3-190.6,190.6c0,37,10.5,71.5,28.8,100.7H1002.7z"/>
		<path class="st19" d="M992.5,870c17.1-27.4,27-59.7,27-94.4c0-98.6-80-178.6-178.6-178.6c-98.6,0-178.6,80-178.6,178.6
			c0,34.7,9.9,67,27,94.4H992.5z"/>
		<path class="st18" d="M915.1,870c8.4-13.4,13.2-29.3,13.2-46.2c0-48.3-39.2-87.5-87.5-87.5s-87.5,39.2-87.5,87.5
			c0,17,4.8,32.8,13.2,46.2H915.1z"/>
		<ellipse class="st1" cx="840.9" cy="807.4" rx="27" ry="27"/>
		<polygon class="st20" points="840.9,804.2 950.6,702.3 952.9,704.6 844.9,808.6 		"/>
		<rect x="839.2" y="608" class="st1" width="3.4" height="18.5"/>
		
			<rect x="992.7" y="733.5" transform="matrix(1.353428e-02 -0.9999 0.9999 1.353428e-02 238.2993 1727.0594)" class="st1" width="3.4" height="18.5"/>
		
			<rect x="686.5" y="737.2" transform="matrix(1.352350e-02 -0.9999 0.9999 1.352350e-02 -67.4296 1424.5356)" class="st1" width="3.4" height="18.5"/>
		<path class="st21" d="M840.9,587.9c-0.6,0-1.1,0-1.7,0v291.3h163.5c18.2-29.2,28.8-63.7,28.8-100.7
			C1031.5,673.2,946.1,587.9,840.9,587.9z"/>
	</g>
	<g>
		<path class="st22" d="M330.2,479c-1.8,0-3.5,0.2-5.2,0.6c-5.3-22.7-22.8-39.3-43.5-39.3c-15.3,0-28.8,9-37,22.9
			c-5.2-2.5-11.1-4-17.2-4c-21.5,0-38.9,17.2-38.9,38.5c0,3,0.4,6,1,8.8h48.1h27.7h43.1h17.3h26.7c0.4-1.6,0.6-3.4,0.6-5.1
			C352.8,489,342.7,479,330.2,479z"/>
		<path class="st23" d="M319.4,479c-1.8,0-3.6,0.2-5.2,0.6c-5.3-22.7-22.8-39.3-43.5-39.3c-15.3,0-28.8,9-37,22.9
			c-5.2-2.5-11.1-4-17.2-4c-21.5,0-38.9,17.2-38.9,38.5c0,3,0.4,6,1,8.8h48.1h27.7h43.1h17.3h26.7c0.4-1.6,0.6-3.4,0.6-5.1
			C342,489,331.8,479,319.4,479z"/>
		<path class="st24" d="M319.4,479c-1.8,0-3.6,0.2-5.2,0.6c-5.3-22.7-22.8-39.3-43.5-39.3c-0.6,0-1.3,0-1.9,0.1v66.1h28.7h17.3h26.7
			c0.4-1.6,0.6-3.4,0.6-5.1C342,489,331.8,479,319.4,479z"/>
	</g>
	<g>
		<path class="st22" d="M875.2,414.2c-1.8,0-3.6,0.2-5.2,0.6c-5.3-22.7-22.8-39.3-43.5-39.3c-15.3,0-28.8,9-37,22.9
			c-5.2-2.5-11.1-4-17.2-4c-21.5,0-38.9,17.2-38.9,38.5c0,3,0.4,6,1,8.8h48.1h27.7h43.1h17.3h26.7c0.4-1.6,0.6-3.4,0.6-5.1
			C897.8,424.2,887.7,414.2,875.2,414.2z"/>
		<path class="st23" d="M864.4,414.2c-1.8,0-3.5,0.2-5.2,0.6c-5.3-22.7-22.8-39.3-43.5-39.3c-15.3,0-28.8,9-37,22.9
			c-5.2-2.5-11-4-17.2-4c-21.5,0-38.9,17.2-38.9,38.5c0,3,0.4,6,1,8.8h48.1h27.7h43.1h17.3h26.7c0.4-1.6,0.6-3.4,0.6-5.1
			C887,424.2,876.9,414.2,864.4,414.2z"/>
		<path class="st24" d="M864.4,414.2c-1.8,0-3.5,0.2-5.2,0.6c-5.3-22.7-22.8-39.3-43.5-39.3c-0.6,0-1.3,0-1.9,0.1v66.1h28.7h17.3
			h26.7c0.4-1.6,0.6-3.4,0.6-5.1C887,424.2,876.9,414.2,864.4,414.2z"/>
	</g>
	<g>
		<path class="st22" d="M491.6,1015.2c-3.2,0-6.4,0.4-9.4,1.1c-9.6-40.7-40.9-70.6-78.1-70.6c-27.4,0-51.7,16.2-66.4,41.1
			c-9.3-4.6-19.8-7.1-31-7.1c-38.6,0-69.8,30.9-69.8,69.1c0,5.4,0.6,10.7,1.8,15.8H325h49.7h77.4h31h48c0.7-2.9,1.1-6,1.1-9.2
			C532.1,1033.1,514,1015.2,491.6,1015.2z"/>
		<path class="st23" d="M472.1,1015.2c-3.2,0-6.4,0.4-9.4,1.1c-9.6-40.7-40.9-70.6-78.1-70.6c-27.4,0-51.7,16.2-66.4,41.1
			c-9.3-4.6-19.8-7.1-31-7.1c-38.6,0-69.8,30.9-69.8,69.1c0,5.4,0.6,10.7,1.8,15.8h86.3h49.7h77.3h31h48c0.7-2.9,1.1-6,1.1-9.2
			C512.7,1033.1,494.5,1015.2,472.1,1015.2z"/>
		<path class="st24" d="M472.1,1015.2c-3.2,0-6.4,0.4-9.4,1.1c-9.6-40.7-40.9-70.6-78.1-70.6c-1.2,0-2.3,0-3.4,0.1v118.7h51.5h31h48
			c0.7-2.9,1.1-6,1.1-9.2C512.7,1033.1,494.5,1015.2,472.1,1015.2z"/>
	</g>
	<g>
		<path class="st22" d="M1022.6,954.4c-2.8,0-5.5,0.3-8.1,0.9c-8.3-35.2-35.4-61-67.6-61c-23.7,0-44.7,14-57.4,35.5
			c-8.1-4-17.2-6.2-26.8-6.2c-33.4,0-60.4,26.7-60.4,59.7c0,4.7,0.6,9.3,1.6,13.7h74.7h43h66.9h26.8h41.5c0.6-2.5,0.9-5.2,0.9-7.9
			C1057.7,969.9,1042,954.4,1022.6,954.4z"/>
		<path class="st23" d="M1005.8,954.4c-2.8,0-5.5,0.3-8.1,0.9c-8.3-35.2-35.4-61-67.6-61c-23.7,0-44.7,14-57.4,35.5
			c-8.1-4-17.2-6.2-26.8-6.2c-33.4,0-60.4,26.7-60.4,59.7c0,4.7,0.6,9.3,1.6,13.7h74.7h43h66.9h26.8h41.5c0.6-2.5,0.9-5.2,0.9-7.9
			C1040.9,969.9,1025.2,954.4,1005.8,954.4z"/>
		<path class="st24" d="M1005.8,954.4c-2.8,0-5.5,0.3-8.1,0.9c-8.3-35.2-35.4-61-67.6-61c-1,0-2,0-3,0.1V997h44.5h26.8h41.5
			c0.6-2.5,0.9-5.2,0.9-7.9C1040.9,969.9,1025.2,954.4,1005.8,954.4z"/>
	</g>
	<path class="st25" d="M597.5,775.8h105.9L749,881.2v245.5H531.4v-44.4c0,0-86.4-62.7-92.7-112.8c0,0,28.5-4.1,108.8-5.2
		c80.3-1.1,86.9-44.9,131.4-69.4l-15.4-51.3C663.5,843.6,599.7,845.3,597.5,775.8z"/>
	<path class="st26" d="M457,709.1c-5.8,9.7-21.7,11-35.5,2.8l-36.5-21.6c-13.8-8.2-20.3-22.7-14.6-32.5l3.5-5.9
		c5.8-9.7,21.6-11,35.5-2.8l36.5,21.6c13.8,8.2,20.3,22.7,14.6,32.5L457,709.1z"/>
	<path class="st24" d="M439.4,973.7c1.2,5.7,3.3,11.5,6.2,17.3h228l9.1-45.3h-60.6l-6.3,0.6c-15.7,10.2-36.1,17.6-68.4,18
		c-56.5,0.8-87.4,3-100.7,4.3L439.4,973.7z"/>
	<path class="st21" d="M445.9,670.8l-12.3-7.3v53.1c10,2,19.3-0.6,23.4-7.5l3.5-5.9C466.3,693.5,459.7,678.9,445.9,670.8z"/>
	<g id="Phone_6_">
		<path class="st27" d="M707.6,967.2c0,8.8-7.1,15.9-15.9,15.9H454.4c-8.8,0-15.9-7.1-15.9-15.9V530.9c0-8.8,7.1-15.9,15.9-15.9
			h237.3c8.8,0,15.9,7.1,15.9,15.9V967.2z"/>
		<rect x="463.4" y="570.5" class="st28" width="219.4" height="320"/>
		<polygon class="st29" points="682.8,570.5 678.7,570.5 463.4,877.6 463.4,890.5 682.8,890.5 		"/>
	</g>
	<rect x="463.4" y="570.5" class="st8" width="219.4" height="320"/>
	<rect x="463.4" y="570.5" class="st30" width="219.4" height="45.2"/>
	<rect x="476.8" y="757.8" class="st31" width="23.5" height="23.5"/>
	<rect x="476.8" y="802.8" class="st31" width="23.5" height="23.5"/>
	<rect x="476.8" y="848.6" class="st31" width="23.5" height="23.5"/>
	<g>
		<rect x="517.1" y="757.8" class="st32" width="109.6" height="2.5"/>
		<rect x="517.1" y="764.1" class="st32" width="109.6" height="3"/>
		<rect x="517.1" y="771.9" class="st32" width="109.6" height="2.5"/>
		<rect x="517.1" y="778.8" class="st32" width="109.6" height="2.5"/>
	</g>
	<g>
		<rect x="517.1" y="802.8" class="st32" width="109.6" height="2.5"/>
		<rect x="517.1" y="809.1" class="st32" width="109.6" height="3"/>
		<rect x="517.1" y="816.9" class="st32" width="109.6" height="2.5"/>
		<rect x="517.1" y="823.8" class="st32" width="109.6" height="2.5"/>
	</g>
	<g>
		<rect x="517.1" y="848.6" class="st32" width="109.6" height="2.5"/>
		<rect x="517.1" y="854.9" class="st32" width="109.6" height="3"/>
		<rect x="517.1" y="862.7" class="st32" width="109.6" height="2.5"/>
		<rect x="517.1" y="869.6" class="st32" width="109.6" height="2.5"/>
	</g>
	<path class="st26" d="M771.3,881.2l-45.6-105.4H619.8c2.3,69.5,66.1,67.8,66.1,67.8l15.4,51.3c-44.4,24.5-52.4,89.4-52.4,89.4
		s-15.3,88.6,41.5,142.4h81V881.2z"/>
	<g>
		<path class="st26" d="M457,782.6c-5.8,9.7-18.3,13-28.1,7.2l-25.7-15.2c-9.7-5.8-13-18.3-7.2-28.1l3.5-5.9
			c5.8-9.7,18.3-13,28.1-7.2l25.7,15.2c9.7,5.8,13,18.3,7.2,28.1L457,782.6z"/>
		<path class="st33" d="M450.5,751.8l-2.5-1.5l-19.7,33.9l2.2,1.3c8,4.7,18.3,2.1,23-5.9l2.9-4.8
			C461.1,766.8,458.5,756.5,450.5,751.8z"/>
	</g>
	<g>
		<path class="st26" d="M457,850.4c-5.8,9.7-18.3,13-28.1,7.2l-25.7-15.2c-9.7-5.8-13-18.3-7.2-28.1l3.5-5.9
			c5.8-9.7,18.3-13,28.1-7.2l25.7,15.2c9.7,5.8,13,18.3,7.2,28.1L457,850.4z"/>
		<path class="st33" d="M450.5,819.6l-2.5-1.5L428.3,852l2.2,1.3c8,4.7,18.3,2.1,23-5.9l2.9-4.8
			C461.1,834.6,458.5,824.3,450.5,819.6z"/>
	</g>
	<g>
		<path class="st26" d="M451.9,912.7c-4.7,8-15.1,10.7-23.1,5.9l-21.2-12.5c-8-4.7-10.7-15.1-5.9-23.1l2.9-4.8
			c4.7-8,15.1-10.7,23.1-5.9l21.2,12.5c8,4.7,10.7,15.1,5.9,23.1L451.9,912.7z"/>
		<path class="st33" d="M446.5,887.4l-2-1.2L428.3,914l1.8,1.1c6.6,3.9,15,1.7,18.9-4.8l2.3-4C455.3,899.7,453.1,891.2,446.5,887.4z
			"/>
	</g>
	<path class="st33" d="M665.7,777.2c0-0.5,0-0.9-0.1-1.3h-40c-0.1,0.4-0.1,0.9-0.1,1.3c0,8.3,9,15.1,20.1,15.1
		C656.7,792.3,665.7,785.5,665.7,777.2z"/>
	<g>
		<rect x="493" y="701.4" class="st34" width="20.8" height="39.7"/>
		<rect x="528.3" y="689.4" class="st35" width="20.8" height="51.7"/>
		<rect x="563.9" y="664.2" class="st36" width="20.8" height="76.9"/>
		<rect x="601" y="651" class="st37" width="20.8" height="90.1"/>
		<rect x="636.5" y="637.1" class="st38" width="20.8" height="102.1"/>
		<g>
			<g>
				<polygon class="st39" points="487.5,717.3 485.6,714.7 546.1,669.4 610.8,662.6 656.5,635.7 658.1,638.4 611.9,665.7 
					547.3,672.5 				"/>
			</g>
			<circle class="st40" cx="486.6" cy="716" r="5.2"/>
			<circle class="st40" cx="546.7" cy="670.9" r="5.2"/>
			<circle class="st40" cx="611.4" cy="664.2" r="5.2"/>
			<circle class="st40" cx="657.3" cy="637.1" r="5.2"/>
		</g>
	</g>
	<path class="st24" d="M611.6,86.4L611.6,86.4C599,68.1,587,56.4,582.9,52.7c0,0,0,0-0.1-0.1c-0.6-0.5-1-0.9-1.2-1.1
		c-0.1,0-0.1,0-0.1-0.1c-0.1-0.1-0.1-0.1-0.1-0.1s0,0-0.1,0.1c0,0,0,0-0.1,0.1c-0.1,0.1-0.4,0.3-0.6,0.6l2.8,319.9l0.8,1.3l16-28.2
		l16-28.2l-9.3,0.1l-3.9,0l-0.1-6.6l5.1,0l-0.1-14.1l2.2,0c9.2-3.4,20.1-19.4,20.1-19.4l0.2,0c1.8-4.1,3.4-8.2,4.9-12.3l46.4,1.2
		l-35.3-48.4C652.6,160.5,631.4,115.2,611.6,86.4z"/>
</g>
</svg>
